<svg width="45" height="44" viewBox="0 0 45 44" fill="none" xmlns="http://www.w3.org/2000/svg">
<path d="M15.8741 31.4625H2.5V41.1559H15.8741V31.4625Z" stroke="#1A2578" stroke-width="1.5" stroke-linecap="round" stroke-linejoin="round"/>
<path d="M29.3706 25.9412H15.874V41.1557H29.3706V25.9412Z" stroke="#1A2578" stroke-width="1.5" stroke-linecap="round" stroke-linejoin="round"/>
<path d="M42.4998 19.7847H29.3706V41.1558H42.4998V19.7847Z" stroke="#1A2578" stroke-width="1.5" stroke-linecap="round" stroke-linejoin="round"/>
<path d="M25.2662 6.23511H8.25439V19.7863H25.2662V6.23511Z" stroke="#BF0830" stroke-width="1.5" stroke-linecap="round" stroke-linejoin="round"/>
<path d="M8.25439 6.23511V10.131C8.25439 10.6468 8.45928 11.1414 8.82397 11.5061C9.18866 11.8708 9.68328 12.0756 10.199 12.0756H23.3233C23.8387 12.0752 24.3329 11.8701 24.6973 11.5055C25.0616 11.1408 25.2662 10.6465 25.2662 10.131V6.23511H8.25439Z" stroke="#BF0830" stroke-width="1.5" stroke-linecap="round" stroke-linejoin="round"/>
<path d="M14.0967 14.1774V12.0756" stroke="#BF0830" stroke-width="1.5" stroke-linecap="round" stroke-linejoin="round"/>
<path d="M19.5796 14.1774V12.0756" stroke="#BF0830" stroke-width="1.5" stroke-linecap="round" stroke-linejoin="round"/>
<path d="M13.2759 6.23512V2.9549H20.2964V6.23512" stroke="#BF0830" stroke-width="1.5" stroke-linecap="round" stroke-linejoin="round"/>
</svg>
