<svg width="45" height="44" viewBox="0 0 45 44" fill="none" xmlns="http://www.w3.org/2000/svg">
<path d="M23.5255 19.1204V37.4275C23.5257 37.9513 23.4228 38.4701 23.2225 38.9541C23.0221 39.4381 22.7284 39.8779 22.3581 40.2484C21.9877 40.6189 21.5481 40.9128 21.0641 41.1133C20.5802 41.3138 20.0615 41.417 19.5377 41.417V41.417C19.0138 41.417 18.4951 41.3138 18.0112 41.1133C17.5273 40.9128 17.0876 40.6189 16.7173 40.2484C16.3469 39.8779 16.0532 39.4381 15.8529 38.9541C15.6526 38.4701 15.5496 37.9513 15.5498 37.4275V35.0057" stroke="#BF0830" stroke-width="1.5" stroke-linecap="round" stroke-linejoin="round"/>
<path d="M4.5 21.8312C4.5 21.8312 7.31086 4.99493 23.5255 4.99493C39.7402 4.99493 41.5 21.8312 41.5 21.8312C41.5 21.8312 35.6264 16.2514 29.1667 21.8312C29.1667 21.8312 22.1193 15.1745 16.6364 21.8312C16.6364 21.8312 10.1767 15.6637 4.5 21.8312Z" stroke="#1A2578" stroke-width="1.5" stroke-linecap="round" stroke-linejoin="round"/>
<path d="M23.5254 4.99494V2" stroke="#BF0830" stroke-width="1.5" stroke-linecap="round" stroke-linejoin="round"/>
</svg>
