<svg width="45" height="44" viewBox="0 0 45 44" fill="none" xmlns="http://www.w3.org/2000/svg">
<path d="M2.5 35.1033L12.5614 27.3268C12.5614 27.3268 17.0642 24.19 21.2704 27.9444L30.4875 30.1335C31.016 30.2588 31.475 30.5851 31.7669 31.0432C32.0589 31.5013 32.1609 32.0551 32.0513 32.5872V32.5872C31.9399 33.129 31.6183 33.6045 31.1569 33.9096C30.6956 34.2147 30.1321 34.3245 29.5899 34.2149L20.2937 32.3377L29.6143 34.2271C29.8771 34.2813 30.1485 34.2796 30.4106 34.2219C30.6727 34.1643 30.9197 34.052 31.1355 33.8924L39.417 27.7892C39.7901 27.5071 40.2526 27.3694 40.7192 27.4016C41.1859 27.4337 41.6251 27.6336 41.956 27.9642V27.9642C42.1493 28.1576 42.2995 28.3898 42.3967 28.6454C42.4938 28.901 42.5359 29.1742 42.5199 29.4472C42.504 29.7202 42.4304 29.9868 42.3041 30.2293C42.1778 30.4719 42.0016 30.6849 41.7871 30.8545L31.4687 39.0022C30.7527 39.5681 29.8667 39.8757 28.9541 39.8754H12.2206L8.48753 43" stroke="#1A2578" stroke-width="1.5" stroke-linecap="round" stroke-linejoin="round"/>
<path d="M29.8195 5.92322C31.1247 5.92322 36.3805 7.03675 36.3805 12.5466C36.3805 12.5466 36.1249 16.2736 33.7366 17.9622C33.7366 17.9622 32.5592 18.63 32.5592 22.1653V25.3188H26.6706V22.0345C26.6706 22.0345 27.0935 19.4043 25.2056 17.7979C23.7087 16.5246 22.7823 14.7737 22.9131 12.0963C23.0364 9.48592 25.4247 5.92322 29.8195 5.92322Z" stroke="#BF0830" stroke-width="1.5" stroke-linecap="round" stroke-linejoin="round"/>
<path d="M26.6665 23.0523H32.5597" stroke="#BF0830" stroke-width="1.5" stroke-linecap="round" stroke-linejoin="round"/>
<path d="M32.6769 20.3992H26.6665" stroke="#BF0830" stroke-width="1.5" stroke-linecap="round" stroke-linejoin="round"/>
<path d="M30.2015 9.32623L28.3867 12.7018H30.9986L29.1184 15.8873" stroke="#BF0830" stroke-width="1.5" stroke-linecap="round" stroke-linejoin="round"/>
<path d="M35.6475 6.58654L37.1763 5.08966" stroke="#BF0830" stroke-width="1.5" stroke-linecap="round" stroke-linejoin="round"/>
<path d="M38.1636 12.7338H40.3617" stroke="#BF0830" stroke-width="1.5" stroke-linecap="round" stroke-linejoin="round"/>
<path d="M35.6475 18.8171L37.1763 20.2181" stroke="#BF0830" stroke-width="1.5" stroke-linecap="round" stroke-linejoin="round"/>
<path d="M23.5766 18.8171L21.9854 20.2181" stroke="#BF0830" stroke-width="1.5" stroke-linecap="round" stroke-linejoin="round"/>
<path d="M21.0604 12.7338H18.8638" stroke="#BF0830" stroke-width="1.5" stroke-linecap="round" stroke-linejoin="round"/>
<path d="M23.5766 6.71433L21.9854 5.08966" stroke="#BF0830" stroke-width="1.5" stroke-linecap="round" stroke-linejoin="round"/>
<path d="M29.6123 4.13427L29.6716 2" stroke="#BF0830" stroke-width="1.5" stroke-linecap="round" stroke-linejoin="round"/>
</svg>
