<svg width="45" height="44" viewBox="0 0 45 44" fill="none" xmlns="http://www.w3.org/2000/svg">
<path d="M7.75721 40.3564C10.6607 40.3564 13.0144 38.0027 13.0144 35.0992C13.0144 32.1957 10.6607 29.842 7.75721 29.842C4.85373 29.842 2.5 32.1957 2.5 35.0992C2.5 38.0027 4.85373 40.3564 7.75721 40.3564Z" stroke="#1A2578" stroke-width="1.5" stroke-linecap="round" stroke-linejoin="round"/>
<path d="M37.4802 40.8313C40.2525 40.8313 42.4999 38.5839 42.4999 35.8116C42.4999 33.0393 40.2525 30.7919 37.4802 30.7919C34.7079 30.7919 32.4604 33.0393 32.4604 35.8116C32.4604 38.5839 34.7079 40.8313 37.4802 40.8313Z" stroke="#1A2578" stroke-width="1.5" stroke-linecap="round" stroke-linejoin="round"/>
<path d="M35.5042 11.1083C37.4904 11.1083 39.1006 9.4981 39.1006 7.51184C39.1006 5.52558 37.4904 3.91541 35.5042 3.91541C33.5179 3.91541 31.9077 5.52558 31.9077 7.51184C31.9077 9.4981 33.5179 11.1083 35.5042 11.1083Z" stroke="#1A2578" stroke-width="1.5" stroke-linecap="round" stroke-linejoin="round"/>
<path d="M8.42911 10.238C10.3498 10.238 11.9068 8.68103 11.9068 6.76035C11.9068 4.83967 10.3498 3.28265 8.42911 3.28265C6.50843 3.28265 4.95142 4.83967 4.95142 6.76035C4.95142 8.68103 6.50843 10.238 8.42911 10.238Z" stroke="#1A2578" stroke-width="1.5" stroke-linecap="round" stroke-linejoin="round"/>
<path d="M22.421 30.3968C27.8785 30.3968 32.3027 25.9726 32.3027 20.5151C32.3027 15.0576 27.8785 10.6334 22.421 10.6334C16.9635 10.6334 12.5393 15.0576 12.5393 20.5151C12.5393 25.9726 16.9635 30.3968 22.421 30.3968Z" stroke="#BF0830" stroke-width="1.5" stroke-linecap="round" stroke-linejoin="round"/>
<path d="M22.1838 26.6815C25.3712 26.6815 27.955 24.0977 27.955 20.9103C27.955 17.723 25.3712 15.1391 22.1838 15.1391C18.9965 15.1391 16.4126 17.723 16.4126 20.9103C16.4126 24.0977 18.9965 26.6815 22.1838 26.6815Z" stroke="#BF0830" stroke-width="1.5" stroke-linecap="round" stroke-linejoin="round"/>
<path d="M10.6021 9.47516L18.143 16.7917" stroke="#1A2578" stroke-width="1.5" stroke-linecap="round" stroke-linejoin="round"/>
<path d="M32.8835 9.97449L26.4666 17.0437" stroke="#1A2578" stroke-width="1.5" stroke-linecap="round" stroke-linejoin="round"/>
<path d="M33.7765 32.4218L26.4666 24.7767" stroke="#1A2578" stroke-width="1.5" stroke-linecap="round" stroke-linejoin="round"/>
<path d="M11.71 31.6362L18.1432 25.0289" stroke="#1A2578" stroke-width="1.5" stroke-linecap="round" stroke-linejoin="round"/>
</svg>
