<svg width="45" height="44" viewBox="0 0 45 44" fill="none" xmlns="http://www.w3.org/2000/svg">
<path d="M3.10938 31.6349V39.7556H14.4697V31.6349L8.78954 28.5201L3.10938 31.6349Z" stroke="#1A2578" stroke-width="1.5" stroke-linecap="round" stroke-linejoin="round"/>
<path d="M10.8812 33.4267H6.9209V39.7538H10.8812V33.4267Z" stroke="#1A2578" stroke-width="1.5" stroke-linecap="round" stroke-linejoin="round"/>
<path d="M21.9865 31.8749C27.2816 31.8749 31.5741 27.5824 31.5741 22.2874C31.5741 16.9923 27.2816 12.6998 21.9865 12.6998C16.6914 12.6998 12.3989 16.9923 12.3989 22.2874C12.3989 27.5824 16.6914 31.8749 21.9865 31.8749Z" stroke="#BF0830" stroke-width="1.5" stroke-linecap="round" stroke-linejoin="round"/>
<path d="M15.8164 24.1627L19.5925 27.9372L28.3474 19.1823L26.3792 17.2142L19.5477 24.0442L17.7557 22.2522L15.8164 24.1627Z" stroke="#BF0830" stroke-width="1.5" stroke-linecap="round" stroke-linejoin="round"/>
<path d="M40.9204 3.487H29.7202V14.4662H40.9204V3.487Z" stroke="#1A2578" stroke-width="1.5" stroke-linecap="round" stroke-linejoin="round"/>
<path d="M37.4131 9.8125H33.2271V14.4662H37.4131V9.8125Z" stroke="#1A2578" stroke-width="1.5" stroke-linecap="round" stroke-linejoin="round"/>
<path d="M5.24756 21.9992C5.24746 17.7904 6.83277 13.7361 9.68771 10.6438C12.5427 7.55141 16.4577 5.64795 20.653 5.31256" stroke="#1A2578" stroke-width="1.5" stroke-linecap="round" stroke-linejoin="round"/>
<path d="M17.2999 10.9751L16.3471 10.1936L20.1968 5.50314L15.2373 2.00567L15.9483 1L21.9888 5.26133L17.2999 10.9751Z" fill="#1A2578"/>
<path d="M38.7282 21.9993C38.7284 26.2082 37.1431 30.2627 34.2882 33.3553C31.4333 36.4479 27.5182 38.3517 23.3228 38.6875" stroke="#1A2578" stroke-width="1.5" stroke-linecap="round" stroke-linejoin="round"/>
<path d="M26.6757 33.0249L27.6285 33.8048L23.7788 38.4969L28.7383 41.9944L28.0273 43L21.9868 38.7387L26.6757 33.0249Z" fill="#1A2578"/>
</svg>
