<svg width="348" height="134" viewBox="0 0 348 134" fill="none" xmlns="http://www.w3.org/2000/svg">
<path d="M293.659 159C333.372 159 365.565 129.227 365.565 92.5C365.565 55.7731 333.372 26 293.659 26C253.947 26 221.754 55.7731 221.754 92.5C221.754 129.227 253.947 159 293.659 159Z" fill="url(#paint0_linear_405_14251)"/>
<path d="M170.707 133C210.419 133 242.612 103.227 242.612 66.5C242.612 29.7731 210.419 0 170.707 0C130.994 0 98.8013 29.7731 98.8013 66.5C98.8013 103.227 130.994 133 170.707 133Z" fill="url(#paint1_linear_405_14251)"/>
<path d="M63.1231 166C102.835 166 135.029 136.227 135.029 99.5C135.029 62.7731 102.835 33 63.1231 33C23.4109 33 -8.78223 62.7731 -8.78223 99.5C-8.78223 136.227 23.4109 166 63.1231 166Z" fill="url(#paint2_linear_405_14251)"/>
<path d="M54.8865 51.136C54.8865 51.136 55.6434 47.7772 59.689 47.1029C63.7347 46.4286 66.5904 49.3299 71.5202 48.2788C76.45 47.2276 81.6939 49.3299 81.5887 54.5806C81.4836 59.8313 84.4196 62.0331 88.1954 64.6131C91.9713 67.193 88.0917 70.2847 87.2518 73.7394C86.412 77.1941 93.4089 75.9097 92.6008 80.4722C90.2971 93.4742 51.2546 89.8481 45.0906 86.0935C41.5859 83.9597 39.2795 80.7583 41.7423 77.3188C44.2051 73.8793 45.1598 78.8313 43.7263 69.4428C43.1632 65.7537 48.0543 63.015 48.9176 60.4325C49.781 57.85 48.5247 51.6881 54.8865 51.136Z" fill="#120283"/>
<path d="M87.2023 152.292C86.0115 152.703 84.8123 153.09 83.6049 153.452C67.6698 158.261 51.0388 159.163 51.0388 159.163L48.3435 157.886L42.9903 155.35L21.6592 145.244V122.266C21.6592 122.266 21.8072 104.566 41.5832 97.5803C43.1602 97.0263 44.7739 96.5632 46.4148 96.1939C48.269 95.7735 50.1489 95.4536 52.0447 95.236L80.3658 95.1226C80.3658 95.1226 82.1645 95.3204 84.8958 96.0224C87.8498 96.7785 90.7094 97.8125 93.4285 99.1078C101.975 103.193 111.68 111.306 112.319 127.144C112.835 139.884 100.763 147.625 87.2023 152.292Z" fill="#E8ECF8"/>
<path d="M48.3489 157.886L42.9957 155.35L21.6646 145.244V122.266C21.6646 122.266 21.8126 104.566 41.5886 97.5803C43.1656 97.0263 44.7793 96.5632 46.4202 96.1939C46.4202 96.1939 47.5035 141.35 48.3489 157.886Z" fill="#120283"/>
<path d="M87.2014 152.292C86.0115 152.703 84.8124 153.09 83.604 153.452C84.0703 133.02 84.8977 96.0199 84.8977 96.0199C93.5037 98.2243 111.444 105.412 112.321 127.142C112.836 139.884 100.762 147.625 87.2014 152.292Z" fill="#120283"/>
<path d="M80.3722 95.12C77.2356 97.4983 74.1958 98.9426 71.3331 99.7303H71.3137C61.8747 102.309 54.352 97.6886 51.4243 95.4527C51.636 95.3796 51.8477 95.3053 52.0566 95.2284C52.6064 95.028 53.1368 94.786 53.6422 94.5049C61.1027 90.3369 59.7453 78.8878 59.7453 78.8878H72.992C72.8431 80.5011 72.8612 82.1236 73.046 83.7339C73.4818 87.7191 75.0979 93.0354 80.3722 95.12Z" fill="#E8ECF8"/>
<path d="M93.4307 99.1054C90.7609 101.058 87.9206 102.81 84.9381 104.342C66.5458 113.691 53.2009 107.299 46.489 102.185C43.2776 99.7368 41.5854 97.5804 41.5854 97.5804C43.162 97.0263 44.7752 96.5633 46.4157 96.1939C47.2873 95.9948 48.1899 95.8149 49.1234 95.6545C49.7958 95.5385 50.4848 95.4348 51.1905 95.3432C51.4741 95.3041 51.7591 95.27 52.0469 95.2347L80.368 95.1238C80.368 95.1238 80.8039 95.1705 81.5745 95.3041C82.0616 95.3885 82.6814 95.5057 83.4161 95.6696C83.8709 95.7696 84.3653 95.8877 84.8994 96.0238C87.8529 96.7783 90.7121 97.811 93.4307 99.1054Z" fill="#E8ECF8"/>
<path d="M84.9374 104.342C66.5451 113.691 53.2002 107.299 46.4883 102.184C47.6284 100.896 48.8861 98.794 49.1171 95.6518C49.7896 95.5359 50.4786 95.4321 51.1842 95.3405C50.7235 97.3698 50.17 102.792 56.1486 106.289C63.6201 110.66 76.9927 108.295 79.432 104.283C81.329 101.158 81.5586 96.9954 81.5683 95.3015C82.0553 95.3859 82.6752 95.5031 83.4099 95.667C83.0958 97.3937 82.678 101.414 84.9374 104.342Z" fill="#120283"/>
<path d="M73.0386 83.7377C72.2637 84.9464 71.1527 85.7997 69.5795 85.9194C63.4071 86.387 59.9356 80.8629 60.009 80.3537L60.3285 78.8917H72.986C72.8366 80.505 72.8542 82.1275 73.0386 83.7377Z" fill="#120283"/>
<path d="M81.3476 68.3308C81.3476 66.7566 80.1258 65.4786 78.6191 65.4786C77.1123 65.4786 75.8906 66.7566 75.8906 68.3308C75.8906 69.905 77.1123 71.8863 78.6191 71.8863C80.1258 71.8863 81.3476 69.9063 81.3476 68.3308Z" fill="#E8ECF8"/>
<path d="M77.9028 69.3091L77.7104 69.2915C77.7104 69.2726 77.9443 67.4122 79.8398 67.3669V67.5433C78.1172 67.5836 77.9041 69.2915 77.9028 69.3091Z" fill="#120283"/>
<path d="M79.7715 69.0444C79.4491 68.7406 79.1198 68.5969 78.7919 68.612C78.2938 68.6385 77.9617 69.0331 77.9534 69.0368L77.7998 68.9297C77.8164 68.9108 78.1928 68.4684 78.778 68.4369C79.1724 68.4167 79.5473 68.5793 79.9112 68.9222L79.7715 69.0444Z" fill="#120283"/>
<path d="M51.0391 68.3308C51.0391 66.7567 52.2608 65.4787 53.7675 65.4787C55.2743 65.4787 56.496 66.7567 56.496 68.3308C56.496 69.905 55.2743 71.8863 53.7675 71.8863C52.2608 71.8863 51.0391 69.9063 51.0391 68.3308Z" fill="#E8ECF8"/>
<path d="M54.7901 69.3091L54.9824 69.2914C54.9824 69.2725 54.7486 67.4122 52.853 67.3668V67.5433C54.5756 67.5836 54.7887 69.2914 54.7901 69.3091Z" fill="#120283"/>
<path d="M52.9191 69.0444C53.2415 68.7406 53.5722 68.5969 53.9001 68.612C54.3968 68.6385 54.7302 69.0331 54.7385 69.0368L54.8907 68.9297C54.8755 68.9108 54.4992 68.4684 53.9139 68.4369C53.5182 68.4167 53.1446 68.5793 52.7808 68.9222L52.9191 69.0444Z" fill="#120283"/>
<path d="M73.9974 79.2822C71.9759 81.3971 69.4162 82.7595 66.3459 82.7142C63.2798 82.7595 60.7174 81.3971 58.6959 79.2822C58.6851 79.2683 58.673 79.2552 58.6599 79.2431C55.039 75.0739 54.3015 69.0015 55.2824 61.7708C55.9881 56.5706 61.3704 54.554 64.3604 53.8306C65.6615 53.5155 67.0304 53.5155 68.3314 53.8306C71.3214 54.5553 76.7052 56.5718 77.4108 61.7708C78.3946 69.0242 77.6501 75.1155 73.9974 79.2822Z" fill="#E8ECF8"/>
<path d="M70.4776 69.033C70.8398 69.033 71.1334 68.7655 71.1334 68.4355C71.1334 68.1056 70.8398 67.8381 70.4776 67.8381C70.1154 67.8381 69.8218 68.1056 69.8218 68.4355C69.8218 68.7655 70.1154 69.033 70.4776 69.033Z" fill="#120283"/>
<path d="M61.7994 69.033C62.1616 69.033 62.4552 68.7655 62.4552 68.4355C62.4552 68.1056 62.1616 67.8381 61.7994 67.8381C61.4372 67.8381 61.1436 68.1056 61.1436 68.4355C61.1436 68.7655 61.4372 69.033 61.7994 69.033Z" fill="#120283"/>
<path d="M74.6842 63.2683C74.6842 63.2683 72.9699 63.3086 70.7175 63.3187C68.465 63.3287 67.8853 63.3086 68.0886 62.7818C68.292 62.2549 70.5487 62.2663 71.9627 62.4478C72.91 62.5951 73.8274 62.8717 74.6842 63.2683V63.2683Z" fill="#120283"/>
<path d="M57.4404 63.2683C57.4404 63.2683 59.1547 63.3086 61.4059 63.3187C63.657 63.3287 64.2381 63.3086 64.0347 62.7818C63.8313 62.2549 61.5747 62.2663 60.1606 62.4478C59.2137 62.5951 58.2967 62.8717 57.4404 63.2683Z" fill="#120283"/>
<path d="M65.9057 72.6338C65.6704 72.6338 65.4366 72.5997 65.3079 72.4901C65.2639 72.4526 65.2313 72.4054 65.2132 72.3531C65.195 72.3008 65.1919 72.2451 65.2041 72.1914C65.2996 71.6419 65.651 69.4614 65.6538 69.44L65.8448 69.4652C65.8448 69.4866 65.4906 71.6683 65.3951 72.2178C65.3875 72.2432 65.3876 72.27 65.3954 72.2953C65.4032 72.3206 65.4184 72.3435 65.4394 72.3615C65.6179 72.514 66.2433 72.4561 66.5961 72.383L66.639 72.5544C66.3981 72.6032 66.1524 72.6298 65.9057 72.6338V72.6338Z" fill="#120283"/>
<path d="M67.1676 74.0124C66.8837 74.0153 66.6003 73.9874 66.3236 73.9293C66.3122 73.9265 66.3014 73.9218 66.292 73.9153C66.2826 73.9088 66.2746 73.9006 66.2687 73.8913C66.2627 73.882 66.2588 73.8717 66.2572 73.861C66.2556 73.8504 66.2563 73.8395 66.2593 73.8291C66.2623 73.8186 66.2675 73.8089 66.2747 73.8003C66.2818 73.7917 66.2908 73.7845 66.301 73.779C66.3112 73.7736 66.3225 73.77 66.3342 73.7685C66.3459 73.7671 66.3579 73.7678 66.3693 73.7705C67.1098 73.9114 67.8793 73.8518 68.583 73.5991C68.594 73.5949 68.6057 73.5926 68.6175 73.5925C68.6293 73.5924 68.6411 73.5945 68.6521 73.5985C68.6631 73.6025 68.6731 73.6085 68.6815 73.6161C68.69 73.6236 68.6967 73.6326 68.7013 73.6426C68.706 73.6525 68.7084 73.6632 68.7085 73.6739C68.7086 73.6847 68.7064 73.6954 68.702 73.7054C68.6976 73.7155 68.691 73.7246 68.6827 73.7323C68.6744 73.74 68.6645 73.7461 68.6536 73.7503C68.182 73.9258 67.6771 74.0149 67.1676 74.0124V74.0124Z" fill="#120283"/>
<path d="M77.5282 59.1998L77.1768 75.263L78.1923 65.1272C78.1923 65.1272 81.34 61.3083 77.5282 59.1998Z" fill="#120283"/>
<path d="M55.3429 59.9144L55.5144 75.2631L54.5002 65.1273C54.5002 65.1273 51.5336 62.023 55.3429 59.9144Z" fill="#120283"/>
<path d="M111.822 132.227C110.099 139.207 104.224 144.405 96.7611 148.267C95.9032 148.71 95.027 149.137 94.1322 149.546C91.8754 150.568 89.5626 151.485 87.203 152.292C86.3369 136.671 85.2231 105.358 84.8979 96.0199C93.5068 98.2243 111.44 105.415 112.316 127.139C112.392 128.848 112.226 130.558 111.822 132.227V132.227Z" fill="#BF0830"/>
<path d="M46.416 96.1912L42.9971 155.35L37.7144 152.848L34.7328 151.435L21.6646 145.246V122.264C21.6646 122.264 21.8361 101.788 46.416 96.1912Z" fill="#BF0830"/>
<path d="M55.3885 62.8232C55.3885 62.8232 55.7884 59.574 57.4404 57.8057C57.4404 57.8057 62.3301 55.0733 74.6829 57.8057C74.6829 57.8057 77.0599 59.0963 77.4183 62.8232C77.4183 62.8232 79.0634 58.8997 76.6642 54.0587C74.2651 49.2177 60.8828 49.3564 58.0644 51.872C55.246 54.3877 51.3415 59.7215 55.3885 62.8232Z" fill="#120283"/>
<path d="M96.7617 148.267C95.9038 148.71 95.0276 149.137 94.1328 149.546L90.2988 103.382C90.4261 104.452 93.8243 132.679 96.7617 148.267Z" fill="#EF9143"/>
<path d="M34.7329 151.435C37.7893 136.904 41.6855 104.528 41.8239 103.383L37.7146 152.848L34.7329 151.435Z" fill="#EF9143"/>
<path d="M49.0752 109.116C49.0752 109.116 64.4927 119.899 82.7426 109.116C82.7426 109.116 66.8532 123.766 49.0752 109.116Z" fill="#EDEDED"/>
<path d="M53.6372 140.754C53.6372 140.754 71.4152 135.309 81.4837 120.118C81.4782 120.118 71.5729 141.327 53.6372 140.754Z" fill="#EDEDED"/>
<path d="M57.4404 57.8059C57.4404 57.8059 63.3125 55.2714 63.6279 58.7109C63.9434 62.1503 66.5736 63.8783 69.8196 62.3356C73.0655 60.7929 74.4824 61.5794 73.7753 64.2261C73.0683 66.8728 76.2174 66.9006 79.9116 64.2261C83.6059 61.5517 76.5094 56.2015 75.8895 55.9154C75.2697 55.6293 73.5526 52.1886 68.7085 52.8339C63.8645 53.4791 57.4404 57.8059 57.4404 57.8059Z" fill="#120283"/>
<path d="M169.198 35.0225V65.2561C166.677 68.072 162.779 71.6126 159.45 71.1057C154.026 70.2773 152.63 63.8052 150.553 54.0519C148.475 44.2986 154.906 34.4667 169.198 35.0225Z" fill="#120283"/>
<path d="M169.197 35.0225V65.2561C171.717 68.072 175.617 71.6126 178.944 71.1057C184.368 70.2773 185.764 63.8052 187.842 54.0519C189.919 44.2986 183.496 34.4667 169.197 35.0225Z" fill="#120283"/>
<path d="M221.145 145.517C221.145 145.6 221.145 145.682 221.145 145.763C221.001 145.978 220.858 146.187 220.705 146.399C220.624 146.512 220.543 146.624 220.463 146.739C217.961 150.138 214.531 153.08 210.525 155.619C210.192 155.831 209.852 156.043 209.509 156.247C209.198 156.437 208.882 156.622 208.563 156.806C207.988 157.14 207.405 157.464 206.814 157.778C195.409 163.872 180.719 167.302 169.246 169.19C158.656 170.93 150.803 171.352 150.803 171.352L135.649 164.175L131.569 162.241L125.783 159.509L120.603 157.057L120.115 156.827L118.28 155.957L115.268 154.53V126.758C115.268 126.758 115.268 126.559 115.291 126.195C115.305 125.977 115.325 125.7 115.358 125.369C115.358 125.32 115.366 125.271 115.372 125.221C115.458 124.361 115.616 123.177 115.906 121.766C116.282 119.943 116.793 118.145 117.437 116.385C117.533 116.124 117.637 115.857 117.741 115.589C118.937 112.504 120.579 109.578 122.622 106.887C122.82 106.63 123.021 106.374 123.23 106.117C125.926 102.786 129.285 99.9461 133.132 97.7454C133.563 97.4964 134.009 97.2519 134.465 97.0148C136.162 96.1284 137.928 95.3547 139.747 94.6998C140.958 94.2631 142.229 93.8635 143.561 93.5009C144.863 93.1511 146.222 92.8404 147.64 92.5686C147.879 92.5242 148.118 92.4797 148.362 92.4382C149.53 92.2308 150.742 92.0534 151.997 91.9061L186.22 91.7743L186.347 91.8098C186.72 91.9136 187.888 92.2545 189.58 92.8369L189.666 92.868L189.775 92.9065C189.817 92.9199 189.869 92.9377 189.926 92.9614C190.318 93.1007 190.74 93.2578 191.176 93.406C192.386 93.858 193.763 94.4063 195.243 95.0584C196.545 95.6364 197.936 96.293 199.353 97.0326C199.807 97.2697 200.264 97.5167 200.723 97.7736C204.615 99.9255 208.645 102.691 211.908 106.137C212.149 106.386 212.385 106.641 212.613 106.898C214.958 109.476 216.727 112.446 217.819 115.642C217.913 115.908 218.006 116.178 218.097 116.45C218.755 118.48 219.275 120.545 219.656 122.633C219.773 123.242 219.879 123.86 219.981 124.483C220.033 124.813 220.085 125.145 220.133 125.479C220.172 125.752 220.21 126.025 220.248 126.3C220.357 127.079 220.452 127.866 220.534 128.661C220.78 130.919 220.943 133.208 221.045 135.457C221.058 135.736 221.07 136.012 221.083 136.289C221.206 139.527 221.206 142.673 221.145 145.517Z" fill="#120283"/>
<path d="M126.151 131.952C125.934 131.766 125.648 131.662 125.35 131.662C125.052 131.662 124.766 131.766 124.55 131.952C123.798 132.603 122.786 133.583 122.786 134.153C122.786 134.724 123.831 135.736 124.586 136.387C124.793 136.564 125.066 136.662 125.35 136.662C125.634 136.662 125.908 136.564 126.115 136.387C126.87 135.736 127.916 134.734 127.916 134.153C127.916 133.572 126.902 132.603 126.151 131.952Z" fill="#B036CE"/>
<path d="M142.834 131.952C142.737 131.861 142.622 131.788 142.494 131.738C142.366 131.688 142.228 131.662 142.088 131.662C141.949 131.662 141.811 131.688 141.683 131.738C141.555 131.788 141.44 131.861 141.343 131.952C140.644 132.603 139.702 133.582 139.702 134.153C139.702 134.724 140.678 135.736 141.377 136.387C141.469 136.474 141.58 136.543 141.702 136.591C141.824 136.638 141.956 136.662 142.088 136.662C142.221 136.662 142.353 136.638 142.475 136.591C142.597 136.543 142.707 136.474 142.799 136.387C143.502 135.736 144.475 134.734 144.475 134.153C144.475 133.572 143.533 132.603 142.834 131.952Z" fill="#B036CE"/>
<path d="M159.821 131.952C159.605 131.766 159.319 131.662 159.021 131.662C158.724 131.662 158.438 131.766 158.222 131.952C157.468 132.603 156.457 133.582 156.457 134.153C156.457 134.724 157.501 135.736 158.258 136.387C158.465 136.563 158.738 136.662 159.021 136.662C159.305 136.662 159.578 136.563 159.785 136.387C160.542 135.736 161.586 134.734 161.586 134.153C161.586 133.572 160.574 132.603 159.821 131.952Z" fill="#B036CE"/>
<path d="M176.504 131.952C176.407 131.861 176.292 131.788 176.164 131.738C176.036 131.688 175.898 131.663 175.759 131.663C175.62 131.663 175.482 131.688 175.354 131.738C175.226 131.788 175.111 131.861 175.015 131.952C174.314 132.603 173.372 133.583 173.372 134.153C173.372 134.724 174.348 135.736 175.047 136.387C175.139 136.474 175.25 136.543 175.372 136.591C175.494 136.638 175.626 136.663 175.758 136.663C175.891 136.663 176.023 136.638 176.145 136.591C176.267 136.543 176.377 136.474 176.469 136.387C177.174 135.736 178.145 134.734 178.145 134.153C178.145 133.572 177.203 132.603 176.504 131.952Z" fill="#B036CE"/>
<path d="M193.49 131.952C193.274 131.766 192.988 131.662 192.69 131.662C192.393 131.662 192.107 131.766 191.891 131.952C191.137 132.603 190.125 133.582 190.125 134.153C190.125 134.724 191.17 135.736 191.927 136.387C192.133 136.563 192.407 136.662 192.69 136.662C192.974 136.662 193.247 136.563 193.454 136.387C194.211 135.736 195.255 134.734 195.255 134.153C195.255 133.572 194.243 132.603 193.49 131.952Z" fill="#B036CE"/>
<path d="M210.174 131.952C210.078 131.861 209.962 131.788 209.834 131.738C209.706 131.688 209.569 131.663 209.429 131.663C209.29 131.663 209.153 131.688 209.025 131.738C208.897 131.788 208.781 131.861 208.685 131.952C207.985 132.603 207.043 133.583 207.043 134.153C207.043 134.724 208.02 135.736 208.719 136.387C208.811 136.474 208.922 136.543 209.044 136.591C209.166 136.638 209.297 136.663 209.43 136.663C209.563 136.663 209.694 136.638 209.817 136.591C209.939 136.543 210.049 136.474 210.141 136.387C210.844 135.736 211.817 134.734 211.817 134.153C211.817 133.572 210.873 132.603 210.174 131.952Z" fill="#B036CE"/>
<path d="M119.262 123.764C119.262 124.344 118.286 125.347 117.588 125.998C117.496 126.086 117.386 126.156 117.264 126.204C117.142 126.253 117.01 126.277 116.877 126.277C116.743 126.277 116.612 126.253 116.489 126.204C116.367 126.156 116.257 126.086 116.166 125.998C115.918 125.769 115.642 125.5 115.385 125.221C115.471 124.361 115.629 123.177 115.918 121.766L116.132 121.565C116.228 121.473 116.343 121.4 116.471 121.351C116.599 121.301 116.737 121.275 116.876 121.275C117.015 121.275 117.153 121.301 117.281 121.351C117.409 121.4 117.524 121.473 117.62 121.565C118.32 122.214 119.262 123.195 119.262 123.764Z" fill="#B036CE"/>
<path d="M134.61 121.563C134.394 121.377 134.107 121.273 133.809 121.273C133.512 121.273 133.225 121.377 133.009 121.563C132.257 122.214 131.244 123.193 131.244 123.766C131.244 124.338 132.29 125.348 133.045 125.998C133.252 126.175 133.525 126.274 133.809 126.274C134.094 126.274 134.367 126.175 134.574 125.998C135.329 125.348 136.373 124.345 136.373 123.766C136.373 123.186 135.362 122.214 134.61 121.563Z" fill="#B036CE"/>
<path d="M151.291 121.563C151.195 121.472 151.079 121.399 150.951 121.349C150.823 121.299 150.686 121.273 150.547 121.273C150.407 121.273 150.27 121.299 150.142 121.349C150.014 121.399 149.898 121.472 149.802 121.563C149.103 122.214 148.161 123.193 148.161 123.766C148.161 124.338 149.137 125.348 149.836 125.997C149.928 126.086 150.038 126.156 150.16 126.204C150.282 126.252 150.414 126.277 150.547 126.277C150.681 126.277 150.812 126.252 150.935 126.204C151.057 126.156 151.167 126.086 151.258 125.997C151.961 125.348 152.934 124.345 152.934 123.766C152.934 123.186 151.992 122.214 151.291 121.563Z" fill="#B036CE"/>
<path d="M168.28 121.563C168.064 121.377 167.777 121.273 167.48 121.273C167.182 121.273 166.895 121.377 166.679 121.563C165.928 122.214 164.916 123.193 164.916 123.766C164.916 124.338 165.96 125.348 166.715 125.998C166.922 126.175 167.195 126.274 167.48 126.274C167.764 126.274 168.037 126.175 168.244 125.998C168.999 125.348 170.044 124.345 170.044 123.766C170.044 123.186 169.032 122.214 168.28 121.563Z" fill="#B036CE"/>
<path d="M184.962 121.563C184.866 121.472 184.751 121.399 184.622 121.349C184.494 121.299 184.357 121.273 184.217 121.273C184.078 121.273 183.94 121.299 183.812 121.349C183.684 121.399 183.568 121.472 183.472 121.563C182.773 122.214 181.831 123.194 181.831 123.766C181.831 124.338 182.807 125.348 183.506 125.998C183.598 126.086 183.708 126.156 183.83 126.204C183.952 126.253 184.084 126.277 184.217 126.277C184.351 126.277 184.482 126.253 184.605 126.204C184.727 126.156 184.837 126.086 184.928 125.998C185.631 125.348 186.604 124.345 186.604 123.766C186.604 123.186 185.656 122.214 184.962 121.563Z" fill="#B036CE"/>
<path d="M201.949 121.563C201.733 121.377 201.447 121.273 201.149 121.273C200.852 121.273 200.566 121.377 200.35 121.563C199.596 122.214 198.584 123.194 198.584 123.766C198.584 124.338 199.629 125.349 200.386 125.998C200.592 126.175 200.865 126.274 201.149 126.274C201.433 126.274 201.707 126.175 201.913 125.998C202.67 125.349 203.714 124.345 203.714 123.766C203.714 123.186 202.702 122.214 201.949 121.563Z" fill="#B036CE"/>
<path d="M219.985 124.477C219.585 125.027 219.122 125.537 218.604 125.997C218.512 126.085 218.401 126.155 218.279 126.202C218.157 126.25 218.025 126.274 217.892 126.274C217.759 126.274 217.627 126.25 217.505 126.202C217.383 126.155 217.272 126.085 217.18 125.997C216.477 125.347 215.504 124.343 215.504 123.764C215.504 123.185 216.446 122.214 217.148 121.563C217.244 121.472 217.359 121.399 217.487 121.349C217.615 121.299 217.753 121.273 217.892 121.273C218.031 121.273 218.169 121.299 218.297 121.349C218.425 121.399 218.54 121.472 218.636 121.563C219.002 121.898 219.345 122.254 219.663 122.627C219.777 123.241 219.883 123.854 219.985 124.477Z" fill="#B036CE"/>
<path d="M126.151 112.358C125.934 112.172 125.648 112.068 125.35 112.068C125.052 112.068 124.766 112.172 124.55 112.358C123.798 113.009 122.786 113.988 122.786 114.56C122.786 115.133 123.831 116.142 124.586 116.792C124.792 116.97 125.066 117.069 125.35 117.069C125.635 117.069 125.908 116.97 126.115 116.792C126.87 116.142 127.916 115.14 127.916 114.56C127.916 113.981 126.902 113.015 126.151 112.358Z" fill="#B036CE"/>
<path d="M142.834 112.358C142.737 112.267 142.622 112.194 142.494 112.144C142.366 112.094 142.228 112.068 142.088 112.068C141.949 112.068 141.811 112.094 141.683 112.144C141.555 112.194 141.44 112.267 141.343 112.358C140.644 113.009 139.702 113.989 139.702 114.561C139.702 115.133 140.678 116.142 141.377 116.793C141.469 116.881 141.579 116.951 141.701 117C141.823 117.048 141.955 117.072 142.088 117.072C142.222 117.072 142.353 117.048 142.476 117C142.598 116.951 142.708 116.881 142.799 116.793C143.502 116.142 144.475 115.14 144.475 114.561C144.475 113.981 143.533 113.015 142.834 112.358Z" fill="#B036CE"/>
<path d="M159.821 112.358C159.605 112.172 159.319 112.068 159.021 112.068C158.724 112.068 158.438 112.172 158.222 112.358C157.468 113.009 156.457 113.989 156.457 114.561C156.457 115.133 157.501 116.142 158.258 116.793C158.464 116.97 158.737 117.069 159.021 117.069C159.305 117.069 159.579 116.97 159.785 116.793C160.542 116.142 161.586 115.14 161.586 114.561C161.586 113.981 160.574 113.015 159.821 112.358Z" fill="#B036CE"/>
<path d="M176.504 112.358C176.407 112.267 176.292 112.194 176.164 112.144C176.036 112.094 175.898 112.068 175.759 112.068C175.62 112.068 175.482 112.094 175.354 112.144C175.226 112.194 175.111 112.267 175.015 112.358C174.314 113.009 173.372 113.989 173.372 114.561C173.372 115.133 174.348 116.142 175.047 116.793C175.139 116.881 175.249 116.951 175.371 116.999C175.493 117.048 175.625 117.072 175.758 117.072C175.892 117.072 176.023 117.048 176.146 116.999C176.268 116.951 176.378 116.881 176.469 116.793C177.174 116.142 178.145 115.14 178.145 114.561C178.145 113.981 177.203 113.015 176.504 112.358Z" fill="#B036CE"/>
<path d="M193.49 112.358C193.274 112.172 192.988 112.068 192.69 112.068C192.393 112.068 192.107 112.172 191.891 112.358C191.137 113.009 190.125 113.989 190.125 114.561C190.125 115.133 191.17 116.142 191.927 116.793C192.133 116.97 192.406 117.069 192.69 117.069C192.974 117.069 193.248 116.97 193.454 116.793C194.211 116.142 195.255 115.14 195.255 114.561C195.255 113.981 194.243 113.015 193.49 112.358Z" fill="#B036CE"/>
<path d="M210.174 112.358C210.078 112.267 209.962 112.194 209.834 112.144C209.706 112.094 209.569 112.068 209.429 112.068C209.29 112.068 209.153 112.094 209.025 112.144C208.897 112.194 208.781 112.267 208.685 112.358C207.985 113.009 207.043 113.989 207.043 114.561C207.043 115.133 208.02 116.142 208.719 116.793C208.811 116.881 208.921 116.951 209.043 116.999C209.165 117.048 209.297 117.072 209.43 117.072C209.563 117.072 209.695 117.048 209.818 116.999C209.94 116.951 210.05 116.881 210.141 116.793C210.844 116.142 211.817 115.14 211.817 114.561C211.817 113.981 210.873 113.015 210.174 112.358Z" fill="#B036CE"/>
<path d="M134.61 101.971C134.394 101.784 134.107 101.679 133.809 101.679C133.511 101.679 133.225 101.784 133.009 101.971C132.257 102.62 131.244 103.601 131.244 104.171C131.244 104.742 132.29 105.754 133.045 106.403C133.252 106.581 133.525 106.68 133.809 106.68C134.094 106.68 134.367 106.581 134.574 106.403C135.329 105.754 136.373 104.751 136.373 104.171C136.373 103.592 135.362 102.62 134.61 101.971Z" fill="#B036CE"/>
<path d="M151.291 101.971C151.195 101.879 151.08 101.805 150.952 101.755C150.824 101.705 150.686 101.68 150.547 101.68C150.407 101.68 150.27 101.705 150.142 101.755C150.014 101.805 149.898 101.879 149.802 101.971C149.103 102.62 148.161 103.601 148.161 104.172C148.161 104.742 149.137 105.754 149.836 106.404C149.928 106.492 150.038 106.562 150.16 106.61C150.282 106.659 150.414 106.683 150.547 106.683C150.681 106.683 150.812 106.659 150.935 106.61C151.057 106.562 151.167 106.492 151.258 106.404C151.961 105.754 152.934 104.751 152.934 104.172C152.934 103.592 151.992 102.62 151.291 101.971Z" fill="#B036CE"/>
<path d="M168.28 101.971C168.064 101.784 167.778 101.679 167.48 101.679C167.182 101.679 166.895 101.784 166.679 101.971C165.928 102.62 164.916 103.601 164.916 104.171C164.916 104.742 165.96 105.754 166.715 106.403C166.922 106.581 167.195 106.68 167.48 106.68C167.764 106.68 168.037 106.581 168.244 106.403C168.999 105.754 170.044 104.751 170.044 104.171C170.044 103.592 169.032 102.62 168.28 101.971Z" fill="#B036CE"/>
<path d="M184.962 101.971C184.866 101.879 184.751 101.805 184.623 101.755C184.495 101.705 184.357 101.68 184.217 101.68C184.078 101.68 183.94 101.705 183.812 101.755C183.684 101.805 183.568 101.879 183.472 101.971C182.773 102.62 181.831 103.601 181.831 104.172C181.831 104.742 182.807 105.754 183.506 106.404C183.598 106.492 183.708 106.562 183.83 106.61C183.952 106.659 184.084 106.684 184.217 106.684C184.351 106.684 184.482 106.659 184.605 106.61C184.727 106.562 184.837 106.492 184.928 106.404C185.631 105.754 186.604 104.751 186.604 104.172C186.604 103.592 185.656 102.62 184.962 101.971Z" fill="#B036CE"/>
<path d="M201.949 101.971C201.733 101.784 201.447 101.68 201.149 101.68C200.852 101.68 200.565 101.784 200.35 101.971C199.596 102.62 198.584 103.601 198.584 104.172C198.584 104.742 199.629 105.754 200.386 106.404C200.592 106.581 200.865 106.68 201.149 106.68C201.433 106.68 201.707 106.581 201.913 106.404C202.67 105.754 203.714 104.751 203.714 104.172C203.714 103.592 202.702 102.62 201.949 101.971Z" fill="#B036CE"/>
<path d="M144.475 94.9666C144.475 95.5475 143.499 96.5493 142.801 97.1985C142.709 97.2859 142.599 97.3556 142.476 97.4031C142.354 97.4507 142.222 97.4752 142.089 97.4752C141.956 97.4752 141.825 97.4507 141.702 97.4031C141.58 97.3556 141.469 97.2859 141.377 97.1985C140.673 96.5493 139.702 95.5475 139.702 94.9666C139.704 94.875 139.723 94.7844 139.757 94.6983C140.967 94.2616 142.239 93.8619 143.571 93.4993C144.057 94.0239 144.475 94.5872 144.475 94.9666Z" fill="#B036CE"/>
<path d="M195.254 95.0644C195.15 95.6572 194.177 96.5849 193.464 97.1984C193.258 97.376 192.984 97.475 192.7 97.475C192.416 97.475 192.143 97.376 191.937 97.1984C191.18 96.5493 190.137 95.5475 190.137 94.9666C190.137 94.5664 190.638 93.9618 191.195 93.4119C192.395 93.8639 193.772 94.4123 195.254 95.0644Z" fill="#B036CE"/>
<path d="M186.23 91.7727C185.997 92.0083 169.425 108.7 148.372 92.4366C149.54 92.2291 150.752 92.0518 152.007 91.9046L186.23 91.7727Z" fill="#120283"/>
<path d="M186.232 91.7714C182.441 94.6451 178.767 96.3909 175.308 97.3424H175.284C163.872 100.455 154.784 94.8733 151.242 92.1745C151.499 92.0841 151.756 91.9952 152.007 91.9003C152.672 91.6592 153.313 91.3667 153.923 91.0259C156.553 89.5587 158.276 87.5283 159.397 85.3942C162.123 80.1908 161.3 74.3382 161.3 74.3382H177.311C177.13 76.2876 177.152 78.2481 177.376 80.1938C177.571 81.9455 177.955 83.6232 178.678 85.1675C179.916 87.8677 182.181 90.1679 186.232 91.7714Z" fill="#E8ECF8"/>
<path d="M177.372 80.1904C176.435 81.6517 175.094 82.6832 173.189 82.8284C165.729 83.3931 161.533 76.7166 161.621 76.1001L162.008 74.3335H177.302C177.122 76.2835 177.146 78.2445 177.372 80.1904V80.1904Z" fill="#120283"/>
<path d="M187.417 61.5702C187.417 59.6673 185.94 58.123 184.119 58.123C182.299 58.123 180.821 59.6673 180.821 61.5702C180.821 63.4732 182.297 65.8681 184.119 65.8681C185.941 65.8681 187.417 63.4747 187.417 61.5702Z" fill="#E8ECF8"/>
<path d="M183.254 62.7517L183.023 62.731C183.023 62.7073 183.305 60.4605 185.596 60.4056V60.6176C183.515 60.668 183.258 62.731 183.254 62.7517Z" fill="#120283"/>
<path d="M185.515 62.433C185.125 62.0656 184.726 61.8922 184.329 61.9115C183.729 61.9426 183.321 62.4182 183.317 62.4226L183.132 62.2938C183.151 62.2715 183.605 61.7367 184.313 61.7011C184.79 61.6759 185.242 61.873 185.683 62.2864L185.515 62.433Z" fill="#120283"/>
<path d="M150.792 61.5702C150.792 59.6673 152.268 58.123 154.09 58.123C155.912 58.123 157.386 59.6673 157.386 61.5702C157.386 63.4732 155.911 65.8681 154.09 65.8681C152.27 65.8681 150.792 63.4747 150.792 61.5702Z" fill="#E8ECF8"/>
<path d="M155.319 62.7517L155.552 62.731C155.552 62.7073 155.269 60.4605 152.98 60.4056V60.6176C155.061 60.668 155.318 62.731 155.319 62.7517Z" fill="#120283"/>
<path d="M153.059 62.433C153.45 62.0656 153.848 61.8922 154.245 61.9115C154.846 61.9426 155.252 62.4182 155.257 62.4226L155.443 62.2938C155.423 62.2715 154.969 61.7367 154.26 61.7011C153.783 61.6759 153.331 61.873 152.892 62.2864L153.059 62.433Z" fill="#120283"/>
<path d="M178.534 74.8064C176.093 77.3629 173.002 79.0095 169.286 78.9561C165.58 79.011 162.484 77.3644 160.04 74.8064C160.027 74.7893 160.012 74.7734 159.996 74.759C155.619 69.7201 154.729 62.381 155.914 53.6429C156.766 47.3561 163.274 44.9197 166.886 44.0438C168.459 43.6629 170.113 43.6629 171.686 44.0438C175.299 44.9197 181.806 47.3561 182.66 53.6429C183.849 62.4077 182.949 69.7675 178.534 74.8064Z" fill="#E8ECF8"/>
<path d="M174.279 62.4197C174.718 62.4197 175.073 62.0958 175.073 61.6964C175.073 61.297 174.718 60.9732 174.279 60.9732C173.841 60.9732 173.485 61.297 173.485 61.6964C173.485 62.0958 173.841 62.4197 174.279 62.4197Z" fill="#120283"/>
<path d="M163.792 62.4197C164.231 62.4197 164.587 62.0958 164.587 61.6964C164.587 61.297 164.231 60.9732 163.792 60.9732C163.354 60.9732 162.998 61.297 162.998 61.6964C162.998 62.0958 163.354 62.4197 163.792 62.4197Z" fill="#120283"/>
<path d="M178.518 55.6869C178.518 55.6869 176.612 55.7581 174.113 55.7759C171.614 55.7937 170.967 55.7581 171.185 54.8347C171.403 53.9112 173.918 53.9275 175.482 54.2418C177.045 54.556 178.518 55.6869 178.518 55.6869Z" fill="#120283"/>
<path d="M159.368 55.6869C159.368 55.6869 161.271 55.7581 163.772 55.7759C166.273 55.7937 166.919 55.7581 166.701 54.8347C166.483 53.9112 163.969 53.9275 162.404 54.2418C160.839 54.556 159.368 55.6869 159.368 55.6869Z" fill="#120283"/>
<path d="M168.754 66.7754C168.469 66.7754 168.188 66.7339 168.031 66.602C167.979 66.5564 167.939 66.4993 167.917 66.436C167.895 66.3727 167.892 66.3054 167.906 66.2403C168.022 65.5764 168.446 62.9413 168.451 62.9147L168.681 62.9458C168.681 62.9725 168.253 65.6135 168.137 66.273C168.128 66.3035 168.128 66.3357 168.137 66.3662C168.146 66.3968 168.164 66.4245 168.189 66.4464C168.407 66.6301 169.165 66.5605 169.588 66.4716L169.64 66.6791C169.349 66.7381 169.052 66.7704 168.754 66.7754V66.7754Z" fill="#120283"/>
<path d="M169.55 68.3241C169.266 68.3274 168.983 68.304 168.705 68.2545C168.688 68.251 168.671 68.2444 168.657 68.235C168.642 68.2255 168.63 68.2135 168.621 68.1996C168.612 68.1857 168.606 68.1703 168.604 68.1542C168.601 68.1382 168.603 68.1219 168.607 68.1063C168.611 68.0906 168.619 68.0757 168.629 68.0627C168.64 68.0496 168.653 68.0386 168.668 68.0303C168.683 68.022 168.7 68.0166 168.718 68.0144C168.735 68.0121 168.753 68.0131 168.77 68.0173C168.889 68.0425 171.699 68.5983 173.163 66.1766C173.171 66.1629 173.182 66.1508 173.196 66.141C173.209 66.1312 173.225 66.1238 173.241 66.1194C173.257 66.115 173.275 66.1136 173.292 66.1153C173.309 66.117 173.325 66.1217 173.34 66.1292C173.356 66.1367 173.369 66.1468 173.38 66.159C173.39 66.1712 173.398 66.1851 173.403 66.2001C173.408 66.2151 173.41 66.2309 173.408 66.2464C173.406 66.2619 173.401 66.277 173.393 66.2907C172.333 68.0366 170.588 68.3241 169.55 68.3241Z" fill="#120283"/>
<path d="M171.339 68.8251C171.305 68.8262 171.273 68.8156 171.248 68.7956C171.223 68.7757 171.208 68.7478 171.205 68.7177C171.202 68.6877 171.211 68.6577 171.232 68.6338C171.252 68.61 171.281 68.5941 171.314 68.5894C171.51 68.5557 171.697 68.492 171.869 68.4012C171.884 68.3931 171.9 68.3878 171.917 68.3856C171.934 68.3833 171.951 68.3841 171.968 68.388C171.985 68.3919 172 68.3987 172.014 68.4081C172.028 68.4174 172.039 68.4292 172.048 68.4427C172.065 68.4699 172.07 68.5022 172.062 68.5327C172.053 68.5632 172.032 68.5894 172.002 68.6058C171.805 68.7101 171.589 68.7832 171.365 68.8222L171.339 68.8251Z" fill="#120283"/>
<path d="M181.794 49.84L182.666 61.6963L183.605 57.6948C183.605 57.6948 186.398 52.3891 181.794 49.84Z" fill="#120283"/>
<path d="M156.778 48.4542L155.55 61.6932L154.967 57.6917C154.967 57.6917 152.174 52.389 156.778 48.4542Z" fill="#120283"/>
<path d="M186.232 91.7712C182.441 94.6449 178.767 96.3907 175.308 97.3422H175.284C163.872 100.455 154.784 94.8731 151.242 92.1742C151.499 92.0838 151.756 91.9949 152.007 91.9C152.672 91.6589 153.313 91.3664 153.923 91.0256C156.553 89.5584 158.276 87.528 159.397 85.3938C162.873 86.5202 170.439 88.2098 178.671 85.1671C179.916 87.8674 182.181 90.1676 186.232 91.7712Z" fill="#E8ECF8"/>
<path d="M185.68 58.5351C178.091 62.8494 174.322 54.089 174.276 49.8415C174.231 45.5939 169.286 45.7955 169.286 45.7955C166.701 45.3212 163.117 47.4805 163.79 51.6925C164.464 55.9045 161.636 57.5911 158.122 58.6019C154.608 59.6126 152.479 57.6756 152.479 57.6756L152.691 56.6708C154.806 56.819 159.502 56.5907 161.203 52.1179C161.088 52.2394 158.306 57.4221 152.795 56.1802L155.55 43.1826L169.343 40.0703H173.394C173.394 40.0703 180.879 42.7661 183.02 47.2315C185.161 51.697 184.116 56.7063 184.116 56.7063C180.734 57.437 178.087 52.8752 178.01 52.7537C180.322 58.1009 185.6 57.0635 185.6 57.0635L185.68 58.5351Z" fill="#120283"/>
<path d="M272.711 47.7628C272.711 47.7628 282.608 43.3918 287.9 53.8698C293.191 64.3479 292.013 72.9847 298.611 77.3188C305.208 81.6529 302.209 88.2121 298.461 92.6008C294.712 96.9896 284.289 101.628 275.254 97.1917C266.22 92.7552 259.923 99.003 253.176 92.6008C246.428 86.1987 246.507 80.1709 250.591 75.946C254.674 71.7212 256.56 41.8374 272.711 47.7628Z" fill="#120283"/>
<path d="M322.698 128.402C322.698 128.415 322.698 128.428 322.698 128.441C322.65 129.143 322.598 129.835 322.548 130.519C322.384 132.715 322.213 134.822 322.035 136.838C320.266 156.952 317.987 168 317.987 168H229.618C229.618 168 226.328 150.676 225.49 136.029C225.19 130.782 225.205 125.88 225.799 122.233C227.216 113.566 232.678 108.008 238.726 104.46L238.766 104.435C239.539 103.983 240.321 103.565 241.106 103.177C241.458 103.004 241.807 102.836 242.155 102.673C243.687 101.969 245.262 101.346 246.873 100.809C247.807 100.496 248.716 100.221 249.588 99.9794C249.798 99.9221 250.005 99.8661 250.209 99.8128C251.784 99.403 253.208 99.0957 254.408 98.8744C255.655 98.6375 256.916 98.4588 258.183 98.339L288.372 98.2215H288.396C290.041 98.4639 291.672 98.783 293.282 99.1776H293.29C294.359 99.4331 295.56 99.7486 296.848 100.134L297.006 100.18C297.839 100.43 298.709 100.709 299.604 101.018C300.859 101.451 302.164 101.945 303.484 102.509C304.213 102.819 304.948 103.152 305.686 103.508C306.048 103.681 306.409 103.861 306.77 104.046C315.39 108.465 323.578 115.955 322.698 128.402Z" fill="#BF0830"/>
<path d="M288.386 98.2269C285.042 100.762 281.801 102.301 278.751 103.144H278.73C268.669 105.894 260.651 100.968 257.529 98.5861C257.755 98.5083 257.979 98.429 258.204 98.3471C258.79 98.1337 259.355 97.8756 259.894 97.5754C267.841 93.132 266.398 80.9289 266.398 80.9289H280.519C280.36 82.6487 280.38 84.3782 280.576 86.0948C281.052 90.3455 282.769 96.0059 288.386 98.2269Z" fill="#E8ECF8"/>
<path d="M280.57 86.0949C279.743 87.383 278.559 88.2927 276.882 88.417C270.302 88.9142 266.602 83.027 266.685 82.4833L267.027 80.9248H280.523C280.36 82.6457 280.376 84.3767 280.57 86.0949V86.0949Z" fill="#120283"/>
<path d="M289.429 69.6734C289.429 67.9933 288.127 66.6329 286.521 66.6329C284.915 66.6329 283.612 67.9988 283.612 69.6734C283.612 71.3481 284.914 73.4625 286.521 73.4625C288.129 73.4625 289.429 71.359 289.429 69.6734Z" fill="#E8ECF8"/>
<path d="M285.759 70.7144L285.555 70.6953C285.555 70.6762 285.804 68.6942 287.824 68.6464V68.8335C285.987 68.8772 285.761 70.6966 285.759 70.7144Z" fill="#120283"/>
<path d="M287.752 70.433C287.409 70.1093 287.058 69.9563 286.703 69.9727C286.173 70 285.813 70.4207 285.81 70.4248L285.647 70.3114C285.774 70.1657 285.932 70.0442 286.111 69.954C286.289 69.8638 286.486 69.8065 286.689 69.7856C287.109 69.7651 287.508 69.9372 287.896 70.3033L287.752 70.433Z" fill="#120283"/>
<path d="M257.13 69.6734C257.13 67.9933 258.431 66.6329 260.037 66.6329C261.643 66.6329 262.946 67.9988 262.946 69.6734C262.946 71.3481 261.643 73.4625 260.037 73.4625C258.431 73.4625 257.13 71.359 257.13 69.6734Z" fill="#E8ECF8"/>
<path d="M261.121 70.7144L261.327 70.6953C261.327 70.6762 261.078 68.6942 259.058 68.6464V68.8335C260.894 68.8772 261.12 70.6966 261.121 70.7144Z" fill="#120283"/>
<path d="M259.129 70.433C259.473 70.1093 259.825 69.9563 260.179 69.9727C260.71 70 261.068 70.4207 261.079 70.4248L261.242 70.3114C261.224 70.291 260.824 69.8197 260.192 69.7856C259.773 69.7651 259.374 69.9372 258.985 70.3033L259.129 70.433Z" fill="#120283"/>
<path d="M281.594 81.3454C279.439 83.6006 276.713 85.0526 273.44 85.0034C270.171 85.0526 267.442 83.6006 265.285 81.3454C265.273 81.3306 265.26 81.3165 265.246 81.3031C261.387 76.8597 260.598 70.3866 261.647 62.6814C262.697 54.9502 273.441 53.8206 273.441 53.8206C273.441 53.8206 284.187 54.9502 285.235 62.6814C286.283 70.4125 285.488 76.9021 281.594 81.3454Z" fill="#E8ECF8"/>
<path d="M277.222 71.1527C277.698 71.1527 278.085 70.8011 278.085 70.3673C278.085 69.9335 277.698 69.5819 277.222 69.5819C276.746 69.5819 276.36 69.9335 276.36 70.3673C276.36 70.8011 276.746 71.1527 277.222 71.1527Z" fill="#120283"/>
<path d="M268.98 71.1527C269.457 71.1527 269.843 70.8011 269.843 70.3673C269.843 69.9335 269.457 69.5819 268.98 69.5819C268.504 69.5819 268.118 69.9335 268.118 70.3673C268.118 70.8011 268.504 71.1527 268.98 71.1527Z" fill="#120283"/>
<path d="M282.327 64.2713C282.327 64.2713 280.5 64.315 278.099 64.3259C275.698 64.3368 275.081 64.315 275.295 63.7536C275.509 63.1922 277.916 63.2072 279.419 63.3984C280.431 63.5542 281.411 63.8485 282.327 64.2713V64.2713Z" fill="#120283"/>
<path d="M263.947 64.2713C263.947 64.2713 265.775 64.315 268.176 64.3259C270.577 64.3368 271.195 64.315 270.98 63.7536C270.766 63.1922 268.357 63.2072 266.856 63.3984C265.844 63.554 264.863 63.8483 263.947 64.2713V64.2713Z" fill="#120283"/>
<path d="M272.97 74.6783C272.72 74.6783 272.471 74.6414 272.333 74.5239C272.286 74.4841 272.251 74.4338 272.232 74.378C272.213 74.3222 272.21 74.2628 272.223 74.2057C272.325 73.6211 272.699 71.2963 272.703 71.273L272.906 71.3004C272.906 71.3236 272.528 73.6484 272.426 74.2357C272.418 74.2625 272.418 74.2907 272.426 74.3173C272.434 74.344 272.45 74.3682 272.472 74.3874C272.664 74.5499 273.33 74.4884 273.706 74.4106L273.753 74.5922C273.496 74.6451 273.233 74.6739 272.97 74.6783V74.6783Z" fill="#120283"/>
<path d="M273.625 75.3379C273.625 75.3379 275.807 75.816 276.781 74.8598C276.781 74.8598 276.356 76.943 273.625 75.3379Z" fill="#E8ECF8"/>
<path d="M284.47 59.3282L285.549 73.2033L286.062 66.2576C286.062 66.2576 288.53 61.5752 284.47 59.3282Z" fill="#120283"/>
<path d="M262.409 59.3282L261.543 72.8195L260.812 66.263C260.812 66.263 258.348 61.5752 262.409 59.3282Z" fill="#120283"/>
<path d="M261.327 66.2656C261.327 66.2656 266.471 64.0801 269.47 59.328C272.469 54.5759 272.567 54.0296 275.254 59.6982C277.941 65.3668 282.258 71.7184 288.385 66.633C288.385 66.633 287.09 58.4101 285.215 55.6059C283.341 52.8016 275.305 49.9318 273.624 49.9318C271.943 49.9318 260.955 52.527 260.189 55.2589C259.422 57.9908 261.327 66.2656 261.327 66.2656Z" fill="#120283"/>
<path d="M292.447 98.9933C288.131 102.334 281.397 106.608 274.124 107.675C265.942 108.876 258.841 102.945 254.97 98.7856C256.966 98.4414 258.203 98.3458 258.203 98.3458L288.391 98.2283H288.414C288.621 98.2679 290.145 98.4756 292.447 98.9933Z" fill="#E8ECF8"/>
<path d="M322.698 128.402C322.698 128.415 322.698 128.428 322.698 128.441C316.297 106.902 293.778 99.347 293.308 99.194C294.377 99.4495 295.578 99.765 296.866 100.15L297.023 100.197C297.857 100.447 298.727 100.725 299.622 101.034C300.877 101.467 302.182 101.961 303.501 102.526C304.231 102.835 304.965 103.168 305.704 103.524C306.065 103.697 306.427 103.878 306.788 104.062C315.389 108.465 323.578 115.955 322.698 128.402Z" fill="#120283"/>
<defs>
<linearGradient id="paint0_linear_405_14251" x1="359.62" y1="28.9142" x2="170.718" y2="115.165" gradientUnits="userSpaceOnUse">
<stop stop-color="#E3E7F6"/>
<stop offset="1" stop-color="#E3E7F6" stop-opacity="0"/>
</linearGradient>
<linearGradient id="paint1_linear_405_14251" x1="236.667" y1="2.91415" x2="47.7655" y2="89.1655" gradientUnits="userSpaceOnUse">
<stop stop-color="#E3E7F6"/>
<stop offset="1" stop-color="#E3E7F6" stop-opacity="0"/>
</linearGradient>
<linearGradient id="paint2_linear_405_14251" x1="129.084" y1="35.9142" x2="-59.818" y2="122.165" gradientUnits="userSpaceOnUse">
<stop stop-color="#E3E7F6"/>
<stop offset="1" stop-color="#E3E7F6" stop-opacity="0"/>
</linearGradient>
</defs>
</svg>
