<svg width="318" height="140" viewBox="0 0 318 140" fill="none" xmlns="http://www.w3.org/2000/svg">
<path d="M166.588 28H144.766V121.59H166.588V28Z" fill="url(#paint0_linear_405_14250)"/>
<path d="M141.591 125.15C155.608 125.15 166.971 114.915 166.971 102.29C166.971 89.6647 155.608 79.43 141.591 79.43C127.573 79.43 116.21 89.6647 116.21 102.29C116.21 114.915 127.573 125.15 141.591 125.15Z" fill="url(#paint1_linear_405_14250)"/>
<path d="M219.244 122.77C231.804 122.77 241.986 113.601 241.986 102.29C241.986 90.9792 231.804 81.81 219.244 81.81C206.684 81.81 196.502 90.9792 196.502 102.29C196.502 113.601 206.684 122.77 219.244 122.77Z" fill="url(#paint2_linear_405_14250)"/>
<path d="M181.731 100.56C191.552 100.56 199.513 93.3921 199.513 84.55C199.513 75.7079 191.552 68.54 181.731 68.54C171.91 68.54 163.949 75.7079 163.949 84.55C163.949 93.3921 171.91 100.56 181.731 100.56Z" fill="url(#paint3_linear_405_14250)"/>
<path d="M149.332 85.99C156.171 85.99 161.716 80.998 161.716 74.84C161.716 68.682 156.171 63.69 149.332 63.69C142.493 63.69 136.948 68.682 136.948 74.84C136.948 80.998 142.493 85.99 149.332 85.99Z" fill="url(#paint4_linear_405_14250)"/>
<path d="M180.921 73.24C185.595 73.24 189.385 69.8284 189.385 65.62C189.385 61.4116 185.595 58 180.921 58C176.246 58 172.457 61.4116 172.457 65.62C172.457 69.8284 176.246 73.24 180.921 73.24Z" fill="url(#paint5_linear_405_14250)"/>
<path d="M165.865 97.88C174.15 97.88 180.866 91.8314 180.866 84.37C180.866 76.9086 174.15 70.86 165.865 70.86C157.581 70.86 150.865 76.9086 150.865 84.37C150.865 91.8314 157.581 97.88 165.865 97.88Z" fill="url(#paint6_linear_405_14250)"/>
<path d="M46.1013 177.74C71.4329 177.74 91.9682 159.249 91.9682 136.44C91.9682 113.631 71.4329 95.14 46.1013 95.14C20.7697 95.14 0.234375 113.631 0.234375 136.44C0.234375 159.249 20.7697 177.74 46.1013 177.74Z" fill="url(#paint7_linear_405_14250)"/>
<path d="M101.165 143.74C120.16 143.74 135.557 129.879 135.557 112.78C135.557 95.6813 120.16 81.82 101.165 81.82C82.1712 81.82 66.7734 95.6813 66.7734 112.78C66.7734 129.879 82.1712 143.74 101.165 143.74Z" fill="url(#paint8_linear_405_14250)"/>
<path d="M269.348 177.62C296.191 177.62 317.952 158.024 317.952 133.85C317.952 109.677 296.191 90.08 269.348 90.08C242.505 90.08 220.744 109.677 220.744 133.85C220.744 158.024 242.505 177.62 269.348 177.62Z" fill="url(#paint9_linear_405_14250)"/>
<path d="M148.807 154.56C167.801 154.56 183.198 140.699 183.198 123.6C183.198 106.501 167.801 92.64 148.807 92.64C129.812 92.64 114.415 106.501 114.415 123.6C114.415 140.699 129.812 154.56 148.807 154.56Z" fill="url(#paint10_linear_405_14250)"/>
<path d="M190.129 154.55C211.476 154.55 228.781 138.97 228.781 119.75C228.781 100.53 211.476 84.95 190.129 84.95C168.783 84.95 151.478 100.53 151.478 119.75C151.478 138.97 168.783 154.55 190.129 154.55Z" fill="url(#paint11_linear_405_14250)"/>
<path d="M165.003 107.566C165.034 106.808 164.896 106.052 164.597 105.343C164.298 104.635 163.844 103.988 163.263 103.441C162.681 102.895 161.984 102.461 161.213 102.164C160.442 101.867 159.612 101.714 158.774 101.714C157.936 101.714 157.107 101.867 156.336 102.164C155.565 102.461 154.867 102.895 154.286 103.441C153.704 103.988 153.251 104.635 152.952 105.343C152.652 106.052 152.514 106.808 152.545 107.566C152.545 107.566 151.742 120.902 158.779 128C165.807 120.902 165.003 107.566 165.003 107.566Z" fill="#BF0830"/>
<path d="M137.642 76.5746C137.642 76.5746 114.311 86.8971 123.553 117.326C123.553 117.326 128.486 102.03 144.32 98.063L137.642 76.5746Z" fill="#120283"/>
<path d="M181.365 76.5746C181.365 76.5746 204.697 86.8971 195.454 117.326C195.454 117.326 190.513 102.03 174.688 98.063L181.365 76.5746Z" fill="#120283"/>
<path d="M167.088 104.411H151.22C150.915 104.412 150.62 104.319 150.382 104.145C150.144 103.972 149.978 103.73 149.911 103.459L149.056 99.9526C149.011 99.7735 149.011 99.5873 149.056 99.4081C149.101 99.2289 149.189 99.0613 149.315 98.9178C149.441 98.7743 149.601 98.6587 149.783 98.5796C149.964 98.5006 150.163 98.4601 150.365 98.4612H167.943C168.144 98.4601 168.343 98.5006 168.524 98.5796C168.706 98.6587 168.866 98.7743 168.992 98.9178C169.118 99.0613 169.206 99.2289 169.251 99.4081C169.296 99.5873 169.296 99.7735 169.251 99.9526L168.396 103.459C168.329 103.73 168.163 103.972 167.925 104.145C167.688 104.319 167.392 104.412 167.088 104.411V104.411Z" fill="#1A2578"/>
<path d="M136.258 68.3525C136.258 68.3525 138.694 88.7634 146.218 101.694C154.585 98.5688 163.961 98.5688 172.328 101.694C172.328 101.694 180.955 90.7623 182.725 66.7361C183.742 52.8842 182.528 37.0646 177.501 23.4313H142.405C137.737 34.5347 134.411 49.4486 136.258 68.3525Z" fill="#DEE4FA"/>
<path d="M156.683 1.31806C150.534 7.86278 145.7 15.3491 142.405 23.4312H177.501C174.287 14.7093 169.516 6.88538 162.762 1.05257C162.349 0.696324 161.861 0.41988 161.328 0.239775C160.795 0.0596696 160.228 -0.0203836 159.661 0.00440308C159.093 0.0291898 158.537 0.158302 158.025 0.384024C157.514 0.609746 157.057 0.927436 156.683 1.31806Z" fill="#1A2578"/>
<path d="M158.88 67.3687C158.88 67.3687 148.116 89.7082 158.88 116.272C158.88 116.272 170.841 94.1043 158.88 67.3687Z" fill="#120283"/>
<path d="M159.88 59.0058C167.36 59.0058 173.423 53.4683 173.423 46.6374C173.423 39.8065 167.36 34.269 159.88 34.269C152.401 34.269 146.338 39.8065 146.338 46.6374C146.338 53.4683 152.401 59.0058 159.88 59.0058Z" fill="#1A2578"/>
<path d="M169.038 48.6108C170.226 43.9929 167.09 39.3699 162.033 38.2851C156.977 37.2002 151.915 40.0644 150.727 44.6823C149.54 49.3002 152.676 53.9233 157.732 55.0081C162.788 56.0929 167.85 53.2288 169.038 48.6108Z" fill="#BF0830"/>
<defs>
<linearGradient id="paint0_linear_405_14250" x1="165.686" y1="30.0506" x2="131.379" y2="33.4285" gradientUnits="userSpaceOnUse">
<stop stop-color="#E3E7F6"/>
<stop offset="1" stop-color="#E3E7F6" stop-opacity="0"/>
</linearGradient>
<linearGradient id="paint1_linear_405_14250" x1="164.873" y1="80.4318" x2="98.8148" y2="111.402" gradientUnits="userSpaceOnUse">
<stop stop-color="#E3E7F6"/>
<stop offset="1" stop-color="#E3E7F6" stop-opacity="0"/>
</linearGradient>
<linearGradient id="paint2_linear_405_14250" x1="240.105" y1="82.7075" x2="180.919" y2="110.46" gradientUnits="userSpaceOnUse">
<stop stop-color="#E3E7F6"/>
<stop offset="1" stop-color="#E3E7F6" stop-opacity="0"/>
</linearGradient>
<linearGradient id="paint3_linear_405_14250" x1="198.043" y1="69.2416" x2="151.768" y2="90.9444" gradientUnits="userSpaceOnUse">
<stop stop-color="#E3E7F6"/>
<stop offset="1" stop-color="#E3E7F6" stop-opacity="0"/>
</linearGradient>
<linearGradient id="paint4_linear_405_14250" x1="160.692" y1="64.1786" x2="128.465" y2="79.2929" gradientUnits="userSpaceOnUse">
<stop stop-color="#E3E7F6"/>
<stop offset="1" stop-color="#E3E7F6" stop-opacity="0"/>
</linearGradient>
<linearGradient id="paint5_linear_405_14250" x1="188.685" y1="58.3339" x2="166.66" y2="68.6646" gradientUnits="userSpaceOnUse">
<stop stop-color="#E3E7F6"/>
<stop offset="1" stop-color="#E3E7F6" stop-opacity="0"/>
</linearGradient>
<linearGradient id="paint6_linear_405_14250" x1="179.626" y1="71.452" x2="140.585" y2="89.757" gradientUnits="userSpaceOnUse">
<stop stop-color="#E3E7F6"/>
<stop offset="1" stop-color="#E3E7F6" stop-opacity="0"/>
</linearGradient>
<linearGradient id="paint7_linear_405_14250" x1="88.1763" y1="96.9498" x2="-31.1893" y2="152.928" gradientUnits="userSpaceOnUse">
<stop stop-color="#E3E7F6"/>
<stop offset="1" stop-color="#E3E7F6" stop-opacity="0"/>
</linearGradient>
<linearGradient id="paint8_linear_405_14250" x1="132.714" y1="83.1767" x2="43.2192" y2="125.157" gradientUnits="userSpaceOnUse">
<stop stop-color="#E3E7F6"/>
<stop offset="1" stop-color="#E3E7F6" stop-opacity="0"/>
</linearGradient>
<linearGradient id="paint9_linear_405_14250" x1="313.934" y1="91.9981" x2="187.439" y2="151.312" gradientUnits="userSpaceOnUse">
<stop stop-color="#E3E7F6"/>
<stop offset="1" stop-color="#E3E7F6" stop-opacity="0"/>
</linearGradient>
<linearGradient id="paint10_linear_405_14250" x1="180.355" y1="93.9967" x2="90.8603" y2="135.977" gradientUnits="userSpaceOnUse">
<stop stop-color="#E3E7F6"/>
<stop offset="1" stop-color="#E3E7F6" stop-opacity="0"/>
</linearGradient>
<linearGradient id="paint11_linear_405_14250" x1="225.585" y1="86.475" x2="125.001" y2="133.649" gradientUnits="userSpaceOnUse">
<stop stop-color="#E3E7F6"/>
<stop offset="1" stop-color="#E3E7F6" stop-opacity="0"/>
</linearGradient>
</defs>
</svg>
