<svg width="338" height="130" viewBox="0 0 338 130" fill="none" xmlns="http://www.w3.org/2000/svg">
<path d="M165.548 243C237.811 243 296.393 188.603 296.393 121.5C296.393 54.3974 237.811 0 165.548 0C93.2839 0 34.7026 54.3974 34.7026 121.5C34.7026 188.603 93.2839 243 165.548 243Z" fill="url(#paint0_linear_405_14252)"/>
<path d="M154.291 77.9834L106.008 130.591L107.034 131.376L155.316 78.7683L154.291 77.9834Z" fill="#120283"/>
<path d="M17.8395 107.14L17.437 108.305L106.163 133.87L106.566 132.705L17.8395 107.14Z" fill="#120283"/>
<path d="M18.9476 122.275C27.7206 121.619 34.2504 114.592 33.5322 106.579C32.814 98.5671 25.1199 92.6036 16.3468 93.2595C7.57384 93.9154 1.04412 100.942 1.76231 108.955C2.4805 116.967 10.1746 122.931 18.9476 122.275Z" fill="#353A85"/>
<path d="M73.0167 47.2769L71.7661 47.7106L105.987 130.03L107.238 129.596L73.0167 47.2769Z" fill="#120283"/>
<path d="M74.252 47.0333L73.7373 48.161L154.549 78.9284L155.064 77.8007L74.252 47.0333Z" fill="#120283"/>
<path d="M234.126 41.1715L152.815 77.7285L153.406 78.8246L234.717 42.2677L234.126 41.1715Z" fill="#120283"/>
<path d="M155.157 77.8468L154.457 78.8876L239.935 126.877L240.635 125.836L155.157 77.8468Z" fill="#120283"/>
<path d="M317.873 68.6582L239.866 125.898L240.704 126.851L318.711 69.6106L317.873 68.6582Z" fill="#120283"/>
<path d="M164.996 99.7704C180.117 96.2991 189.293 82.2903 185.492 68.4808C181.692 54.6713 166.353 46.2905 151.232 49.7617C136.112 53.233 126.935 67.2418 130.736 81.0514C134.537 94.8609 149.876 103.242 164.996 99.7704Z" fill="#353A85"/>
<path d="M319.624 87.1061C330.542 86.4315 338.793 77.8015 338.055 67.8303C337.316 57.8591 327.867 50.3227 316.949 50.9972C306.031 51.6717 297.779 60.3018 298.518 70.273C299.257 80.2442 308.706 87.7806 319.624 87.1061Z" fill="#353A85"/>
<path d="M95.7707 49.9256C96.9649 39.2062 88.4183 29.6322 76.6812 28.5415C64.9441 27.4507 54.4612 35.2563 53.2669 45.9757C52.0726 56.6952 60.6193 66.2692 72.3564 67.3599C84.0934 68.4506 94.5764 60.645 95.7707 49.9256Z" fill="#120283"/>
<path d="M247.679 49.3376C252.285 42.6526 250.085 33.8232 242.765 29.6166C235.445 25.4101 225.778 27.4193 221.172 34.1044C216.566 40.7894 218.766 49.6188 226.086 53.8254C233.405 58.0319 243.073 56.0227 247.679 49.3376Z" fill="#BF0830"/>
<path d="M268.683 144.681C285.09 129.696 285.09 105.402 268.683 90.4177C252.276 75.4334 225.676 75.4334 209.269 90.4177C192.862 105.402 192.862 129.696 209.269 144.681C225.676 159.665 252.276 159.665 268.683 144.681Z" fill="#120283"/>
<path d="M107.091 145.212C120.092 143.683 129.274 132.817 127.599 120.944C125.924 109.07 114.027 100.684 101.026 102.213C88.0248 103.743 78.843 114.609 80.5177 126.482C82.1924 138.356 94.0895 146.742 107.091 145.212Z" fill="#BF0830"/>
<path d="M16.8179 120.631C18.6729 120.741 20.5334 120.516 22.293 119.968C24.0526 119.421 25.6768 118.562 27.0726 117.441C26.7225 116.228 26.2898 115.036 25.7769 113.873C24.9459 112 23.3972 110.466 21.4197 109.559L21.4694 109.496C22.2408 108.266 22.6145 106.862 22.5472 105.447C22.5472 104.124 22.272 102.759 21.4006 101.645C20.937 101.012 20.29 100.508 19.5316 100.19C18.7732 99.8722 17.9331 99.7528 17.1048 99.8451C16.2765 99.9373 15.4925 100.238 14.84 100.713C14.1874 101.188 13.6919 101.818 13.4086 102.535C12.7971 103.879 12.8621 105.328 12.9806 106.759C13.0584 107.778 13.3723 108.77 13.9017 109.67C12.6585 110.405 11.574 111.342 10.7026 112.435C9.68592 113.629 9.72797 113.685 9.08968 115.095C8.77627 115.793 8.46668 116.491 8.19531 117.29C10.5694 119.268 13.6112 120.446 16.8179 120.631V120.631Z" fill="white"/>
<path d="M73.71 64.7416C76.1616 64.8887 78.6208 64.5923 80.9466 63.8693C83.2724 63.1463 85.419 62.0109 87.2631 60.5283C86.8037 58.9237 86.2331 57.3474 85.5547 55.8089C84.4557 53.3334 82.4085 51.3074 79.7948 50.1086C79.7948 50.0772 79.8406 50.0527 79.8598 50.0248C80.9643 48.3982 81.3007 46.5132 81.2816 44.6736C81.2816 42.9283 80.9223 41.1201 79.7527 39.6435C79.1306 38.858 78.3014 38.2285 77.3419 37.8136C76.3825 37.3987 75.3239 37.2116 74.2642 37.2699C71.906 37.4618 70.0103 39.0536 69.2038 40.8269C68.3973 42.6001 68.4814 44.534 68.642 46.412C68.7413 47.7571 69.1571 49.0668 69.8612 50.2517C68.2168 51.2206 66.7824 52.4584 65.6302 53.903C64.2886 55.4842 64.3421 55.5576 63.4974 57.4181C63.0846 58.3361 62.6719 59.2821 62.3164 60.3223C65.452 62.938 69.4718 64.4971 73.71 64.7416V64.7416Z" fill="white"/>
<path d="M102.857 142.992C105.494 143.149 108.139 142.829 110.641 142.05C113.142 141.272 115.451 140.05 117.434 138.454C116.937 136.729 116.323 135.034 115.596 133.379C114.413 130.717 112.211 128.539 109.4 127.249C109.419 127.218 109.446 127.19 109.469 127.159C110.658 125.413 111.021 123.382 110.998 121.406C110.979 119.524 110.616 117.566 109.354 115.999C108.685 115.152 107.793 114.474 106.76 114.027C105.727 113.579 104.587 113.378 103.446 113.44C100.912 113.65 98.859 115.36 98.0067 117.28C97.1544 119.2 97.2423 121.27 97.399 123.284C97.5078 124.733 97.9548 126.145 98.71 127.424C96.9418 128.466 95.3998 129.797 94.1617 131.351C92.717 133.051 92.7781 133.128 91.8685 135.131C91.4213 136.116 90.9779 137.135 90.5957 138.255C93.9735 141.063 98.2987 142.734 102.857 142.992Z" fill="white"/>
<path d="M317.287 83.881C319.563 84.0167 321.846 83.7409 324.005 83.0694C326.164 82.398 328.157 81.344 329.87 79.9679C329.441 78.4787 328.909 77.0156 328.28 75.5871C327.256 73.2896 325.355 71.4093 322.929 70.2952C322.929 70.2708 322.971 70.2464 322.986 70.2184C324.014 68.7105 324.324 66.9616 324.308 65.2547C324.308 63.628 323.976 61.956 322.89 60.5876C322.313 59.8571 321.543 59.2715 320.652 58.8853C319.76 58.499 318.777 58.3245 317.792 58.378C315.606 58.5596 313.847 60.0361 313.098 61.6837C312.349 63.3313 312.426 65.122 312.575 66.8639C312.674 68.1152 313.065 69.3326 313.721 70.4349C312.195 71.3353 310.864 72.4842 309.792 73.8243C308.55 75.2904 308.6 75.3602 307.816 77.0881C307.434 77.9363 307.052 78.816 306.719 79.7829C309.629 82.2072 313.357 83.6527 317.287 83.881V83.881Z" fill="white"/>
<path d="M156.718 96.999C159.898 97.1886 163.089 96.8031 166.106 95.8644C169.123 94.9258 171.907 93.4525 174.299 91.5291C173.701 89.4465 172.959 87.4003 172.079 85.403C170.651 82.1906 167.994 79.561 164.603 78.0027C164.629 77.9653 164.657 77.9291 164.687 77.8945C166.12 75.8001 166.556 73.3357 166.533 70.948C166.533 68.6756 166.067 66.3368 164.549 64.4205C163.032 62.5041 160.269 61.1008 157.421 61.3347C154.363 61.5895 151.902 63.6525 150.855 65.9529C149.808 68.2532 149.93 70.77 150.136 73.2135C150.268 74.9625 150.807 76.6656 151.719 78.2087C149.708 79.3187 147.927 80.9454 146.226 82.949C144.525 84.9527 144.56 85.0958 143.463 87.5148C142.924 88.7017 142.393 89.9304 141.934 91.2848C146.007 94.6702 151.222 96.6859 156.718 96.999Z" fill="white"/>
<path d="M233.614 53.6028C235.436 53.7103 237.263 53.488 238.991 52.9489C240.718 52.4098 242.313 51.5644 243.682 50.4612C243.339 49.2745 242.915 48.1086 242.413 46.9705C241.596 45.1321 240.076 43.6273 238.136 42.7363C238.15 42.7146 238.165 42.6936 238.182 42.6735C238.94 41.4679 239.307 40.0902 239.24 38.7011C239.24 37.3991 238.973 36.0622 238.094 34.9661C237.637 34.3474 237.002 33.8561 236.259 33.5465C235.515 33.2369 234.693 33.121 233.882 33.2117C233.071 33.3024 232.304 33.5961 231.664 34.0603C231.025 34.5245 230.538 35.1412 230.258 35.8422C229.658 37.1582 229.719 38.5964 229.838 39.9892C229.914 40.9902 230.222 41.9649 230.744 42.848C229.523 43.5663 228.457 44.4847 227.602 45.5568C226.604 46.7332 226.647 46.7855 226.02 48.1713C225.71 48.8485 225.404 49.5676 225.141 50.3286C227.474 52.2702 230.464 53.4254 233.614 53.6028V53.6028Z" fill="white"/>
<path d="M236.706 152.134C241.852 152.443 247.014 151.821 251.895 150.303C256.777 148.786 261.283 146.403 265.154 143.292C264.185 139.925 262.985 136.616 261.561 133.386C259.255 128.192 254.96 123.94 249.476 121.423C249.518 121.364 249.571 121.308 249.61 121.249C251.93 117.838 252.637 113.88 252.602 110.019C252.568 106.347 251.838 102.567 249.392 99.4669C246.946 96.3671 242.47 94.0982 237.868 94.4787C232.922 94.8871 228.944 98.2242 227.254 101.945C225.565 105.666 225.725 109.726 226.069 113.66C226.28 116.487 227.151 119.241 228.626 121.734C225.374 123.528 222.511 126.157 219.748 129.413C216.935 132.726 217.049 132.883 215.28 136.789C214.408 138.713 213.545 140.699 212.795 142.884C219.38 148.364 227.815 151.627 236.706 152.134Z" fill="white"/>
<defs>
<linearGradient id="paint0_linear_405_14252" x1="285.575" y1="5.32435" x2="-58.6453" y2="161.858" gradientUnits="userSpaceOnUse">
<stop stop-color="#E3E7F6"/>
<stop offset="1" stop-color="#E3E7F6" stop-opacity="0"/>
</linearGradient>
</defs>
</svg>
