<svg width="35" height="35" viewBox="0 0 35 35" fill="none" xmlns="http://www.w3.org/2000/svg">
<path d="M7.93618 31.9419C6.42594 30.9574 5.07882 29.7457 3.94287 28.352C4.1555 27.9806 4.2458 27.551 4.2458 27.0762C4.2458 22.2193 4.2458 17.3624 4.2458 12.5069V12.204C4.35066 12.2797 4.40891 12.3307 4.47445 12.3686C5.56234 12.9933 6.64877 13.621 7.74249 14.2341C7.89832 14.3215 7.92745 14.4206 7.92745 14.5793C7.92454 20.2445 7.92598 25.9112 7.92161 31.5764C7.92161 31.7001 7.92598 31.821 7.93618 31.9419ZM16.0204 34.69C14.3995 34.5633 12.8426 34.2138 11.3775 33.672C11.9703 33.2526 12.2892 32.6963 12.2907 31.9623C12.2936 27.0325 12.2921 22.1013 12.2921 17.1716V16.8221C12.6781 17.0551 13.0174 17.2706 13.3669 17.4672C14.1067 17.8852 14.848 18.3017 15.5966 18.7008C15.9141 18.8697 16.032 19.0794 16.0306 19.461C16.016 24.5378 16.0189 29.6147 16.0204 34.69ZM17.3952 34.7439C17.3908 34.7439 17.3879 34.7439 17.3835 34.7439C18.4073 34.7439 19.4108 34.6536 20.3851 34.4832C20.3894 29.2476 20.388 24.0106 20.3851 18.775C20.3851 18.2872 20.3909 17.7949 20.3239 17.3158C20.2846 17.0318 20.1287 16.7536 19.986 16.4944C19.753 16.0735 19.3394 15.8463 18.9389 15.6162C18.3738 15.2929 17.8073 14.974 17.2423 14.6507C16.6233 14.2953 16.0102 13.9327 15.3898 13.5802C14.583 13.123 13.7689 12.6817 12.9664 12.2186C12.0795 11.7074 11.2057 11.1758 10.3217 10.6588C9.89061 10.4069 9.44788 10.1709 9.01243 9.92344C8.15464 9.43844 7.2983 8.95344 6.44342 8.46564C5.9104 8.16124 5.38174 7.85104 4.84727 7.54955C4.45696 7.32964 4.04044 7.15051 3.67199 6.90147C3.6516 6.88691 3.63122 6.8738 3.60938 6.86069C4.8298 5.26599 6.31818 3.8912 8.01046 2.80185C7.86483 3.26206 7.89687 3.74993 8.08765 4.24946C8.29154 4.78394 8.70804 5.14803 9.19592 5.42619C10.0042 5.88494 10.8212 6.33204 11.6295 6.79225C12.3839 7.22187 13.1324 7.66314 13.8854 8.09714C14.5407 8.47574 15.1946 8.85294 15.8529 9.22724C16.4092 9.54324 16.9685 9.85354 17.5262 10.1666C17.969 10.4156 18.4132 10.6617 18.8501 10.918C19.3321 11.2006 19.8025 11.502 20.2875 11.7787C20.9239 12.1428 21.5691 12.4909 22.2084 12.8492C22.7094 13.1302 23.2075 13.4157 23.707 13.6982C23.9385 13.8293 24.0784 13.9691 24.0769 14.2953C24.0609 19.9023 24.0667 25.5107 24.0609 31.1176C24.0609 31.5676 24.1264 31.9812 24.3492 32.3832C24.4992 32.6526 24.6827 32.8667 24.8939 33.0342C26.1653 32.4225 27.3493 31.6608 28.427 30.771C28.4387 27.8466 28.4314 24.9223 28.4314 21.9979C28.4314 18.9411 28.4299 15.8842 28.4328 12.8259C28.4328 12.4326 28.3644 12.0642 28.1911 11.703C27.9945 11.2923 27.7003 10.9821 27.3173 10.7578C26.7012 10.3967 26.0721 10.0603 25.4531 9.70494C24.5502 9.18644 23.6546 8.65494 22.7516 8.13794C21.9448 7.67625 21.1278 7.23061 20.3195 6.77186C19.2841 6.18495 18.2515 5.59221 17.219 4.99948C16.466 4.56694 15.716 4.13004 14.9645 3.69313C14.4067 3.36837 13.8519 3.03923 13.2926 2.71592C12.9329 2.50767 12.5688 2.30378 12.2047 2.10135C11.8931 1.9295 11.561 1.78823 11.2698 1.58725C11.1154 1.48094 10.9523 1.4023 10.7848 1.34696C12.6446 0.580916 14.666 0.127986 16.7835 0.0551758C16.8927 0.144006 17.0122 0.227016 17.1447 0.302746C18.1481 0.880916 19.1442 1.47075 20.1491 2.04746C20.8453 2.4465 21.5531 2.82806 22.2521 3.22419C22.9162 3.59993 23.573 3.98732 24.2356 4.36451C24.7993 4.68491 25.3672 4.99365 25.9308 5.31114C26.375 5.56163 26.8163 5.81504 27.2561 6.07281C27.6479 6.30291 28.0309 6.54903 28.427 6.77331C28.9091 7.04565 29.4071 7.29032 29.8892 7.56411C30.5533 7.94134 31.2057 8.33594 31.8669 8.71754C32.0358 8.81654 32.1174 8.92434 32.1174 9.14714C32.1072 14.8036 32.1058 20.46 32.1189 26.1165C32.1189 26.2461 32.1276 26.3801 32.1451 26.5126C33.7893 23.8606 34.7403 20.7324 34.7417 17.3828C34.7417 17.3871 34.7417 17.3901 34.7417 17.3944C34.7432 26.9772 26.975 34.7439 17.3952 34.7439Z" fill="#D60936"/>
<path d="M3.92923 28.3767C1.47382 25.381 0 21.5479 0 17.3725C0 13.4084 1.32819 9.75444 3.56369 6.83008C3.57971 6.84027 3.59573 6.85047 3.61175 6.86066C1.37625 9.78064 0.0466032 13.4331 0.0466032 17.3959C0.0466032 21.5508 1.50732 25.365 3.94379 28.352C3.93942 28.3607 3.93505 28.368 3.92923 28.3767ZM11.3683 33.6778C10.1551 33.2307 9.00752 32.654 7.93856 31.9623C7.93856 31.955 7.9371 31.9477 7.9371 31.9419C9.00752 32.6395 10.1609 33.222 11.377 33.672C11.3755 33.6735 11.3712 33.6764 11.3683 33.6778ZM17.3713 34.7439C16.9169 34.7439 16.4655 34.7264 16.0198 34.6929V34.6915C16.4699 34.7264 16.9242 34.7453 17.383 34.7453C17.3801 34.7439 17.3757 34.7439 17.3713 34.7439Z" fill="#E3E3E3"/>
<path d="M17.3837 34.744C16.925 34.744 16.4706 34.7251 16.0206 34.6902C16.0191 29.6148 16.0162 24.538 16.0323 19.4611C16.0337 19.0796 15.9157 18.8713 15.5983 18.7009C14.8482 18.3004 14.1084 17.8839 13.3686 17.4674C13.0191 17.2693 12.6797 17.0538 12.2938 16.8222V17.1717C12.2938 22.1015 12.2953 27.0312 12.2924 31.9624C12.2924 32.6964 11.9734 33.2527 11.3807 33.6707C10.1632 33.2207 9.0112 32.6382 7.93933 31.9406C7.92913 31.8197 7.92476 31.6988 7.92476 31.575C7.92913 25.9098 7.92767 20.2432 7.93059 14.578C7.93059 14.4192 7.90146 14.3202 7.74563 14.2328C6.65191 13.6197 5.56548 12.992 4.47758 12.3672C4.41205 12.3294 4.3538 12.2784 4.24894 12.2027V12.5056C4.24894 17.3625 4.24894 22.218 4.24894 27.0749C4.24894 27.5497 4.15864 27.9793 3.94602 28.3507C1.50955 25.3637 0.0488281 21.5495 0.0488281 17.3946C0.0488281 13.4318 1.37702 9.78084 3.61251 6.85938C3.6329 6.87248 3.65329 6.88705 3.67514 6.90016C4.04505 7.1492 4.46011 7.32977 4.85041 7.54823C5.38489 7.84974 5.91354 8.15995 6.44657 8.46425C7.29999 8.95365 8.15632 9.43855 9.01265 9.92355C9.4481 10.1696 9.88938 10.4055 10.3205 10.6589C11.2045 11.176 12.0783 11.7075 12.9652 12.2187C13.7676 12.6818 14.5832 13.1231 15.3885 13.5804C16.009 13.9328 16.6221 14.2955 17.241 14.6508C17.8061 14.9756 18.3726 15.2931 18.9377 15.6164C19.3396 15.8465 19.7518 16.0737 19.9848 16.4945C20.1275 16.7538 20.2833 17.0305 20.3227 17.3159C20.3897 17.7965 20.3838 18.2888 20.3838 18.7752C20.3867 24.0108 20.3882 29.2478 20.3838 34.4834C19.411 34.6538 18.4076 34.7426 17.3837 34.744Z" fill="#BF0830"/>
<path d="M8.01367 2.80047C8.02241 2.77134 8.0326 2.74367 8.0428 2.71454C8.88457 2.17715 9.77585 1.71112 10.7079 1.32373C10.7356 1.33101 10.7618 1.33975 10.7895 1.34849C9.81663 1.75044 8.88748 2.23832 8.01367 2.80047Z" fill="#E3E3E3"/>
<path d="M24.8962 33.0344C24.6836 32.8684 24.5001 32.6543 24.3515 32.3834C24.1287 31.9814 24.0632 31.5664 24.0632 31.1178C24.069 25.5094 24.0617 19.9025 24.0792 14.2955C24.0807 13.9693 23.9408 13.8295 23.7093 13.6984C23.2098 13.4145 22.7117 13.129 22.2107 12.8479C21.5714 12.4897 20.9247 12.1416 20.2898 11.7775C19.8048 11.4994 19.3344 11.1979 18.8524 10.9168C18.414 10.6605 17.9698 10.4144 17.5285 10.1653C16.9708 9.85224 16.4115 9.54204 15.8552 9.22604C15.1984 8.85174 14.543 8.47454 13.8877 8.09594C13.1362 7.66191 12.3876 7.22064 11.6318 6.79102C10.8235 6.33081 10.0065 5.88517 9.19822 5.42496C8.71034 5.14825 8.29383 4.78271 8.08994 4.24823C7.89916 3.7487 7.86712 3.25937 8.01275 2.80062C8.88656 2.23701 9.81571 1.75059 10.7886 1.3501C10.956 1.40689 11.1177 1.48554 11.2735 1.59185C11.5648 1.79283 11.8968 1.93264 12.2085 2.10594C12.5726 2.30837 12.9352 2.51226 13.2964 2.72052C13.8542 3.04383 14.4105 3.37297 14.9683 3.69773C15.7198 4.13464 16.4698 4.57154 17.2227 5.00408C18.2553 5.59681 19.2878 6.18809 20.3233 6.77645C21.1315 7.2352 21.9486 7.68085 22.7554 8.14254C23.6583 8.65954 24.554 9.19104 25.4569 9.70954C26.0759 10.0648 26.705 10.4013 27.321 10.7624C27.704 10.9867 27.9982 11.2969 28.1948 11.7076C28.3667 12.0673 28.4366 12.4358 28.4366 12.829C28.4337 15.8859 28.4351 18.9428 28.4351 22.0011C28.4351 24.9254 28.4439 27.8498 28.4308 30.7741C27.3516 31.661 26.1676 32.4227 24.8962 33.0344Z" fill="#BF0830"/>
<path d="M34.7431 17.3844C34.7358 7.80894 26.972 0.0480599 17.3951 0.0480599C17.1912 0.0480599 16.9887 0.05097 16.7863 0.05825C16.7674 0.04369 16.7499 0.0276698 16.7324 0.0116498C16.945 0.00436985 17.1577 0 17.3718 0C26.9662 0 34.7431 7.77694 34.7431 17.3713C34.7431 17.3757 34.7431 17.38 34.7431 17.3844Z" fill="#E3E3E3"/>
<path d="M32.1448 26.514C32.1273 26.3815 32.1186 26.2475 32.1186 26.1179C32.1069 20.4615 32.1084 14.805 32.1171 9.14854C32.1171 8.92574 32.037 8.81804 31.8666 8.72044C31.2054 8.33884 30.553 7.94274 29.8889 7.56699C29.4068 7.29319 28.9102 7.04853 28.4267 6.77619C28.0306 6.55337 27.6476 6.30579 27.2558 6.07714C26.816 5.81937 26.3747 5.56597 25.9305 5.31547C25.3669 4.99799 24.7975 4.68779 24.2353 4.36885C23.5727 3.99165 22.9144 3.60426 22.2518 3.22853C21.5527 2.8324 20.8464 2.45083 20.1488 2.0518C19.1439 1.47508 18.1478 0.885256 17.1444 0.307086C17.0133 0.231356 16.8924 0.148346 16.7832 0.0595064C16.9856 0.0522264 17.1881 0.0493164 17.392 0.0493164C26.9689 0.0493164 34.7342 7.81024 34.74 17.3857C34.74 20.7338 33.7904 23.862 32.1448 26.514Z" fill="#BF0830"/>
<path d="M14.3231 11.0464C15.0018 11.0464 15.6688 11.1426 16.3242 11.3319C16.9781 11.5227 17.546 11.8081 18.0266 12.1897C18.5233 11.8591 19.084 11.5853 19.7044 11.3698C20.3262 11.1542 21.0748 11.0464 21.9544 11.0464C22.5836 11.0464 23.2011 11.1295 23.8054 11.2955C24.4098 11.4615 24.9487 11.7222 25.4205 12.079C25.8924 12.4358 26.2696 12.9077 26.5507 13.496C26.8317 14.0844 26.973 14.8009 26.973 15.6456V23.4749C26.807 23.5244 26.5463 23.574 26.1895 23.6235C25.8327 23.673 25.4642 23.6977 25.0841 23.6977C24.7186 23.6977 24.3923 23.673 24.1025 23.6235C23.8127 23.574 23.5681 23.4749 23.3685 23.3249C23.1705 23.1749 23.0161 22.9725 22.9083 22.7162C22.8006 22.4599 22.7467 22.1234 22.7467 21.7098V15.7694C22.7467 15.2728 22.6054 14.9116 22.3243 14.6873C22.0418 14.4645 21.6617 14.3524 21.1811 14.3524C20.9481 14.3524 20.7005 14.4062 20.4354 14.514C20.1704 14.6218 19.9709 14.7339 19.8383 14.849C19.8544 14.916 19.8631 14.9771 19.8631 15.0354V15.197V23.4735C19.6811 23.523 19.4116 23.5725 19.0548 23.622C18.698 23.6715 18.3383 23.6963 17.9742 23.6963C17.6101 23.6963 17.2824 23.6715 16.9926 23.622C16.7028 23.5725 16.4582 23.4735 16.2601 23.3235C16.0606 23.1735 15.9077 22.971 15.7999 22.7147C15.6921 22.4584 15.6382 22.122 15.6382 21.7084V15.7679C15.6382 15.2713 15.4853 14.9101 15.178 14.6859C14.8707 14.463 14.5023 14.3509 14.0727 14.3509C13.7741 14.3509 13.5178 14.396 13.3022 14.4878C13.0867 14.5795 12.9047 14.6655 12.7547 14.7485V23.472C12.5886 23.5215 12.328 23.571 11.9726 23.6206C11.6158 23.6701 11.2473 23.6948 10.8672 23.6948C10.5017 23.6948 10.1755 23.6701 9.88565 23.6206C9.59584 23.571 9.35117 23.472 9.15311 23.322C8.95505 23.172 8.80067 22.9696 8.6929 22.7133C8.58513 22.4569 8.53125 22.1205 8.53125 21.7069V14.2009C8.53125 13.7538 8.62591 13.397 8.81669 13.1319C9.00602 12.8669 9.26816 12.6178 9.59875 12.3863C10.1624 11.9887 10.8629 11.6654 11.6988 11.4164C12.5377 11.1717 13.4115 11.0464 14.3231 11.0464Z" fill="white"/>
</svg>
