<svg width="515" height="256" viewBox="0 0 515 256" fill="none" xmlns="http://www.w3.org/2000/svg">
<path d="M342.5 311.202C436.112 311.202 512 242.408 512 157.546C512 72.6846 436.112 3.89075 342.5 3.89075C248.888 3.89075 173 72.6846 173 157.546C173 242.408 248.888 311.202 342.5 311.202Z" fill="url(#paint0_linear_6554_814)"/>
<path opacity="0.2" d="M468.5 68.6807C474.299 68.6807 479 64.4932 479 59.3277C479 54.1622 474.299 49.9748 468.5 49.9748C462.701 49.9748 458 54.1622 458 59.3277C458 64.4932 462.701 68.6807 468.5 68.6807Z" stroke="#BF0830" stroke-width="10"/>
<path d="M65.5 240.832C100.018 240.832 128 215.508 128 184.269C128 153.03 100.018 127.706 65.5 127.706C30.9822 127.706 3 153.03 3 184.269C3 215.508 30.9822 240.832 65.5 240.832Z" fill="url(#paint1_linear_6554_814)"/>
<path opacity="0.3" d="M307.5 16.7867C311.642 16.7867 315 13.7005 315 9.89336C315 6.08626 311.642 3 307.5 3C303.358 3 300 6.08626 300 9.89336C300 13.7005 303.358 16.7867 307.5 16.7867Z" stroke="#6258C4" stroke-width="5"/>
<path opacity="0.3" d="M10.5 151.904C14.6421 151.904 18 148.818 18 145.011C18 141.204 14.6421 138.118 10.5 138.118C6.35786 138.118 3 141.204 3 145.011C3 148.818 6.35786 151.904 10.5 151.904Z" stroke="#6258C4" stroke-width="5"/>
<path opacity="0.3" d="M504.5 178.014C508.642 178.014 512 174.927 512 171.12C512 167.313 508.642 164.227 504.5 164.227C500.358 164.227 497 167.313 497 171.12C497 174.927 500.358 178.014 504.5 178.014Z" stroke="#74BBFB" stroke-width="5"/>
<defs>
<linearGradient id="paint0_linear_6554_814" x1="116.976" y1="173.371" x2="360.796" y2="483.102" gradientUnits="userSpaceOnUse">
<stop stop-color="#E3E7F6"/>
<stop offset="1" stop-color="#E3E7F6" stop-opacity="0"/>
</linearGradient>
<linearGradient id="paint1_linear_6554_814" x1="-17.6577" y1="190.094" x2="72.0608" y2="304.257" gradientUnits="userSpaceOnUse">
<stop stop-color="#E3E7F6"/>
<stop offset="1" stop-color="#E3E7F6" stop-opacity="0"/>
</linearGradient>
</defs>
</svg>
