<svg width="592" height="425" viewBox="0 0 592 425" fill="none" xmlns="http://www.w3.org/2000/svg">
<path d="M382.833 123.14C382.44 117.416 377.259 112.073 371.554 111.522C370.055 111.375 368.543 111.495 367.086 111.876C366.886 111.943 366.673 111.959 366.466 111.923C366.259 111.887 366.063 111.8 365.898 111.67C365.732 111.54 365.602 111.371 365.518 111.178C365.434 110.985 365.399 110.774 365.416 110.564V63.2139C365.416 58.118 363.393 53.2309 359.793 49.6276C356.193 46.0243 351.31 44 346.219 44H217.206C212.114 44 207.231 46.0242 203.63 49.6273C200.029 53.2305 198.006 58.1176 198.004 63.2139V108.577C198.005 109.075 198.118 109.566 198.335 110.014C198.552 110.462 198.867 110.855 199.257 111.164C199.648 111.473 200.103 111.69 200.588 111.798C201.074 111.906 201.577 111.903 202.061 111.789C203.923 111.354 205.859 111.349 207.722 111.776C209.585 112.203 211.327 113.05 212.813 114.252C214.3 115.455 215.493 116.981 216.301 118.714C217.11 120.448 217.512 122.344 217.478 124.256C217.443 126.169 216.973 128.049 216.103 129.752C215.234 131.456 213.987 132.938 212.458 134.086C210.929 135.235 209.158 136.018 207.281 136.378C205.403 136.738 203.469 136.664 201.624 136.162C201.201 136.043 200.755 136.024 200.323 136.106C199.891 136.188 199.484 136.369 199.133 136.635C198.782 136.9 198.497 137.243 198.301 137.637C198.104 138.031 198.001 138.465 198 138.905V192.338C198 194.861 198.497 197.36 199.462 199.692C200.427 202.024 201.841 204.142 203.624 205.927C205.407 207.712 207.524 209.127 209.853 210.093C212.183 211.059 214.68 211.556 217.201 211.556H267.915C268.15 211.557 268.382 211.608 268.596 211.706C268.81 211.804 269.001 211.946 269.156 212.123C269.311 212.3 269.426 212.508 269.495 212.733C269.564 212.958 269.584 213.195 269.554 213.429C269.352 215.198 269.529 216.99 270.071 218.687C270.614 220.383 271.511 221.944 272.702 223.267C273.893 224.59 275.352 225.644 276.981 226.361C278.61 227.077 280.373 227.438 282.152 227.42C283.932 227.403 285.687 227.007 287.302 226.259C288.917 225.511 290.355 224.428 291.52 223.082C292.685 221.736 293.551 220.157 294.06 218.451C294.569 216.744 294.71 214.949 294.474 213.184C294.449 212.979 294.468 212.771 294.53 212.574C294.591 212.377 294.694 212.195 294.832 212.041C294.969 211.887 295.138 211.764 295.326 211.681C295.515 211.597 295.719 211.554 295.925 211.556H346.202C351.294 211.556 356.178 209.531 359.779 205.927C363.38 202.323 365.403 197.435 365.403 192.338V138.013C365.401 137.751 365.458 137.492 365.569 137.256C365.68 137.019 365.843 136.81 366.046 136.645C366.249 136.479 366.486 136.361 366.74 136.3C366.994 136.238 367.259 136.234 367.514 136.289C369.424 136.721 371.408 136.701 373.309 136.229C375.209 135.757 376.973 134.847 378.459 133.572C379.946 132.297 381.114 130.691 381.87 128.884C382.627 127.076 382.951 125.117 382.816 123.162L382.833 123.14Z" fill="#1A2578"/>
<path d="M347.098 211.202H322.13C320.455 205.01 318.908 199.51 317.627 195.173C316.001 189.638 314.82 185.984 314.409 185.223C312.765 182.16 319.078 172.765 324.303 169.908C325.209 169.389 326.19 169.013 327.21 168.792C330.436 168.158 332.653 169.995 334.743 172.595C336.295 174.52 339.491 176.095 342.214 180.348C343.08 181.711 343.802 183.16 344.37 184.672C347.017 191.683 349.255 198.842 351.072 206.113C351.22 206.717 351.229 207.346 351.099 207.955C350.969 208.563 350.702 209.133 350.319 209.623C349.937 210.113 349.448 210.51 348.89 210.783C348.332 211.057 347.719 211.2 347.098 211.202Z" fill="#E0E0E0"/>
<path d="M307.349 103.79C307.349 103.79 309.933 91.1008 298.666 88.913C287.4 86.7251 289.219 95.5772 286.967 97.5857C284.716 99.5942 289.367 106.538 294.758 107.886C300.148 109.234 307.349 103.79 307.349 103.79Z" fill="#30262A"/>
<path d="M336.483 211.201H247.21C247.21 211.201 243.616 198.451 244.315 192.491C244.63 189.795 245.002 187.179 245.443 184.671C245.735 182.968 246.061 181.322 246.423 179.735C246.506 179.354 246.613 178.979 246.742 178.611C246.971 177.925 247.324 177.288 247.782 176.729C251.411 172.454 259.682 178.418 262.336 172.765C262.336 172.765 266.935 162.377 279.168 157.45C281.192 156.637 283.29 156.02 285.433 155.608C289.602 154.828 293.865 154.691 298.076 155.201L299.287 155.341H299.318L300.551 155.498C310.357 156.78 321.597 159.581 327.219 168.792C328.658 171.186 329.66 173.817 330.179 176.563C330.878 180.064 331.621 183.652 332.364 187.406C333.807 194.582 335.246 202.362 336.483 211.201Z" fill="#BF0830"/>
<path d="M232.861 175.959L258.323 193.589C258.323 193.589 304.035 200.249 316.381 195.659C330.494 190.408 343.771 179.066 343.771 179.066C343.771 179.066 334.616 158.872 300.511 155.407C296.546 155.004 281.874 155.599 277.996 156.185C242.82 161.528 232.861 175.959 232.861 175.959Z" fill="#BF0830"/>
<path d="M232.861 175.959C231.256 178.436 232.83 185.621 241.369 190.815C249.907 196.009 256.43 197.173 258.323 193.589C259.748 190.889 256.058 181.6 247.922 176.808C239.537 171.868 234.011 174.196 232.861 175.959Z" fill="#30262A"/>
<path d="M254.755 195.637C254.038 196.591 251.144 202.542 247.209 211.202H222.355C221.569 211.202 220.795 211.005 220.105 210.627C219.415 210.25 218.831 209.706 218.406 209.043C217.981 208.381 217.729 207.623 217.674 206.838C217.618 206.052 217.761 205.266 218.089 204.551C220.35 199.632 222.726 194.965 225.215 190.548C228.642 184.492 230.513 181.609 232.424 179.561C232.774 179.189 233.123 178.847 233.482 178.515C233.951 178.089 234.474 177.727 235.038 177.438C238.238 175.776 243.013 176.034 246.742 178.589C246.921 178.707 247.1 178.834 247.275 178.97C250.515 181.451 253.794 187.017 254.882 191.183C255.381 193.13 255.411 194.753 254.755 195.637Z" fill="#E0E0E0"/>
<path d="M277.943 156.221C282.315 161.323 292.86 164.569 298.605 161.703C303.501 159.266 300.511 155.429 300.511 155.429C298.124 155.372 295.177 151.679 294.976 149.302L294.74 146.375L294.622 144.927L294.237 140.288L293.896 136.123L292.493 119.057L288.029 136.403L287.269 139.361L284.645 149.552C284.229 151.147 283.397 152.602 282.232 153.768C281.068 154.934 279.615 155.768 278.022 156.186L277.943 156.221Z" fill="#E0E0E0"/>
<path d="M287.247 139.361C287.247 139.361 290.115 144.406 294.622 144.896L294.237 140.258C291.426 139.698 287.247 139.361 287.247 139.361Z" fill="#30262A"/>
<path d="M272.986 119.197C272.986 119.197 274.066 121.866 273.357 127.796C272.317 136.473 282.346 138.468 284.41 135.716C284.663 135.379 282.071 121.298 282.071 121.298L278.757 119.985L272.986 119.197Z" fill="#30262A"/>
<path d="M296.7 141.243C305.459 139.882 311.2 130.012 309.523 119.196C307.846 108.381 299.387 100.716 290.628 102.076C281.869 103.436 276.128 113.307 277.805 124.122C279.481 134.938 287.941 142.603 296.7 141.243Z" fill="#E0E0E0"/>
<path d="M297.647 105.589C297.302 106.258 301.359 115.942 283.089 121.245C264.819 126.549 272.505 102.167 286.184 99.5153C305.932 95.6909 310.898 108.612 309.735 113.719C308.573 118.825 297.647 105.589 297.647 105.589Z" fill="#30262A"/>
<path d="M284.624 117.714C284.624 117.714 278.25 126.938 282.167 134.749C282.167 134.749 276.999 130.601 276.623 128.815C276.247 127.03 276.409 120.326 276.409 120.326L284.624 117.714Z" fill="#30262A"/>
<path d="M280.396 126.684C282.46 128.119 285 127.905 286.08 126.203C287.159 124.501 286.342 121.958 284.278 120.514C282.215 119.07 279.679 119.294 278.595 120.996C277.511 122.698 278.337 125.245 280.396 126.684Z" fill="#E0E0E0"/>
<path d="M295.239 121.547C295.308 121.516 295.366 121.463 295.405 121.398C295.443 121.332 295.46 121.256 295.453 121.18C295.447 121.104 295.417 121.032 295.367 120.974C295.318 120.916 295.252 120.874 295.178 120.856C294.338 120.603 293.439 120.638 292.621 120.955C291.804 121.272 291.116 121.853 290.666 122.606C290.612 122.686 290.591 122.784 290.608 122.879C290.625 122.974 290.679 123.058 290.758 123.114C290.84 123.161 290.937 123.178 291.03 123.161C291.124 123.145 291.209 123.095 291.269 123.022C292.321 122.133 293.636 121.616 295.012 121.551C295.086 121.574 295.165 121.573 295.239 121.547Z" fill="#080435"/>
<path d="M293 125.958C293.11 126.833 293.704 127.463 294.312 127.384C294.92 127.306 295.361 126.544 295.256 125.678C295.151 124.812 294.557 124.173 293.945 124.251C293.333 124.33 292.896 125.092 293 125.958Z" fill="#080435"/>
<path d="M308.407 121.429C308.484 121.427 308.558 121.401 308.619 121.354C308.68 121.308 308.725 121.244 308.748 121.17C308.771 121.097 308.77 121.018 308.745 120.945C308.721 120.872 308.675 120.809 308.612 120.764C307.928 120.215 307.081 119.91 306.205 119.895C305.328 119.88 304.471 120.156 303.768 120.681C303.688 120.734 303.631 120.816 303.611 120.91C303.59 121.004 303.608 121.102 303.659 121.184C303.717 121.259 303.8 121.311 303.893 121.331C303.986 121.351 304.082 121.338 304.166 121.293C305.478 120.873 306.891 120.896 308.188 121.359C308.252 121.405 308.329 121.429 308.407 121.429Z" fill="#080435"/>
<path d="M304.643 124.654C304.411 125.494 304.717 126.313 305.329 126.479C305.941 126.645 306.619 126.102 306.851 125.262C307.082 124.422 306.772 123.604 306.164 123.433C305.557 123.263 304.892 123.81 304.643 124.654Z" fill="#080435"/>
<g opacity="0.3">
<path opacity="0.3" d="M292.851 133.546C296.271 133.334 298.79 129.078 298.479 124.039C298.167 119 295.143 115.087 291.723 115.299C288.303 115.511 285.784 119.767 286.095 124.806C286.407 129.845 289.431 133.758 292.851 133.546Z" fill="white"/>
</g>
<g opacity="0.3">
<path opacity="0.3" d="M302.457 122.527C302.282 127.341 304.59 132.128 307.611 133.187C310.632 134.246 313.229 131.178 313.404 126.347C313.579 121.516 311.27 116.721 308.249 115.688C305.228 114.655 302.645 117.714 302.457 122.527Z" fill="white"/>
</g>
<path d="M286.718 120.024C286.67 120.164 286.626 120.3 286.587 120.462C286.571 120.502 286.558 120.543 286.547 120.585C286.521 120.663 286.504 120.746 286.482 120.834C286.46 120.921 286.442 120.974 286.425 121.048L286.372 121.28C286.362 121.319 286.353 121.359 286.346 121.398C286.348 121.438 286.348 121.477 286.346 121.517C286.346 121.556 286.346 121.595 286.32 121.63C286.294 121.783 286.268 121.945 286.241 122.107C286.215 122.269 286.198 122.422 286.18 122.58C286.18 122.58 286.18 122.646 286.18 122.676V122.711L286.206 122.768C286.206 122.768 286.206 122.768 286.206 122.794V122.829C286.21 122.842 286.21 122.856 286.206 122.869C286.21 122.882 286.21 122.895 286.206 122.908C286.206 122.956 286.241 123.004 286.259 123.048C286.261 123.057 286.261 123.066 286.259 123.074C286.272 122.525 286.322 121.976 286.408 121.433C286.481 120.938 286.59 120.448 286.731 119.968L286.718 120.024ZM286.718 120.024C286.67 120.164 286.626 120.3 286.587 120.462C286.571 120.502 286.558 120.543 286.547 120.585C286.521 120.663 286.504 120.746 286.482 120.834C286.46 120.921 286.442 120.974 286.425 121.048L286.372 121.28C286.362 121.319 286.353 121.359 286.346 121.398C286.348 121.438 286.348 121.477 286.346 121.517C286.346 121.556 286.346 121.595 286.32 121.63C286.294 121.783 286.268 121.945 286.241 122.107C286.215 122.269 286.198 122.422 286.18 122.58C286.18 122.58 286.18 122.646 286.18 122.676V122.711L286.206 122.768C286.206 122.768 286.206 122.768 286.206 122.794V122.829C286.21 122.842 286.21 122.856 286.206 122.869C286.21 122.882 286.21 122.895 286.206 122.908C286.206 122.956 286.241 123.004 286.259 123.048C286.261 123.057 286.261 123.066 286.259 123.074C286.272 122.525 286.322 121.976 286.408 121.433C286.481 120.938 286.59 120.448 286.731 119.968L286.718 120.024ZM286.718 120.024C286.67 120.164 286.626 120.3 286.587 120.462C286.571 120.502 286.558 120.543 286.547 120.585C286.521 120.663 286.504 120.746 286.482 120.834C286.46 120.921 286.442 120.974 286.425 121.048L286.372 121.28C286.362 121.319 286.353 121.359 286.346 121.398C286.348 121.438 286.348 121.477 286.346 121.517C286.346 121.556 286.346 121.595 286.32 121.63C286.294 121.783 286.268 121.945 286.241 122.107C286.215 122.269 286.198 122.422 286.18 122.58C286.18 122.58 286.18 122.646 286.18 122.676C286.182 122.689 286.182 122.702 286.18 122.716L286.206 122.772C286.206 122.772 286.206 122.772 286.206 122.799V122.834C286.21 122.847 286.21 122.86 286.206 122.873C286.21 122.886 286.21 122.9 286.206 122.912C286.206 122.961 286.241 123.009 286.259 123.052C286.261 123.061 286.261 123.07 286.259 123.079C286.272 122.529 286.322 121.981 286.408 121.438C286.481 120.942 286.59 120.452 286.731 119.972L286.718 120.024ZM286.718 120.024C286.67 120.164 286.626 120.3 286.587 120.462C286.571 120.502 286.558 120.543 286.547 120.585C286.521 120.663 286.504 120.746 286.482 120.834C286.46 120.921 286.442 120.974 286.425 121.048L286.372 121.28C286.362 121.319 286.353 121.359 286.346 121.398C286.348 121.438 286.348 121.477 286.346 121.517C286.346 121.556 286.346 121.595 286.32 121.63C286.294 121.783 286.268 121.945 286.241 122.107C286.215 122.269 286.198 122.422 286.18 122.58C286.18 122.58 286.18 122.646 286.18 122.676V122.724L286.206 122.781C286.206 122.781 286.206 122.781 286.206 122.807V122.842C286.21 122.855 286.21 122.869 286.206 122.882C286.21 122.895 286.21 122.908 286.206 122.921C286.206 122.969 286.241 123.017 286.259 123.061C286.261 123.07 286.261 123.079 286.259 123.087C286.272 122.538 286.322 121.99 286.408 121.447C286.481 120.951 286.59 120.461 286.731 119.981L286.718 120.024ZM299.532 123.652C299.532 123.267 299.479 122.895 299.431 122.514C298.994 119.162 297.337 116.191 295.038 114.839C294.758 114.671 294.465 114.525 294.163 114.402C293.451 114.118 292.682 114.005 291.918 114.069C291.154 114.134 290.416 114.375 289.761 114.774C288.012 115.797 286.7 117.762 286.084 120.269C285.992 120.633 285.927 120.996 285.865 121.372C285.83 121.595 285.8 121.81 285.782 122.042C285.713 122.688 285.691 123.339 285.717 123.989C285.737 124.517 285.788 125.043 285.87 125.564C285.909 125.814 285.957 126.067 286.014 126.308C286.421 128.527 287.511 130.563 289.131 132.132C289.707 132.659 290.376 133.074 291.103 133.357C291.759 133.616 292.462 133.733 293.166 133.699C293.351 133.691 293.535 133.672 293.717 133.642C294.347 133.533 294.953 133.312 295.505 132.99C297.026 132.026 298.171 130.57 298.749 128.863C299.05 128.061 299.269 127.229 299.401 126.382C299.531 125.478 299.569 124.564 299.514 123.652H299.532ZM298.797 126.304C298.673 127.108 298.465 127.897 298.177 128.658C297.845 129.558 297.363 130.395 296.751 131.134C296.751 131.134 296.751 131.134 296.751 131.165C296.32 131.687 295.803 132.131 295.221 132.478C294.643 132.828 293.992 133.04 293.318 133.096C292.644 133.153 291.967 133.052 291.339 132.802C290.581 132.511 289.893 132.063 289.319 131.489C287.841 130.062 286.823 127.857 286.464 125.398C286.416 125.022 286.377 124.641 286.351 124.251C286.324 123.862 286.32 123.521 286.351 123.149C286.364 122.599 286.413 122.051 286.499 121.508C286.573 121.012 286.681 120.523 286.823 120.042C286.894 119.778 286.98 119.518 287.081 119.263C287.078 119.249 287.078 119.234 287.081 119.219C287.082 119.206 287.082 119.193 287.081 119.18C287.08 119.165 287.08 119.151 287.081 119.136C287.255 118.661 287.471 118.203 287.728 117.767C288.275 116.766 289.074 115.926 290.045 115.329C290.672 114.952 291.382 114.737 292.113 114.704C292.732 114.678 293.35 114.781 293.927 115.005C294.156 115.093 294.378 115.199 294.592 115.321C296.826 116.546 298.421 119.425 298.828 122.689C298.882 123.071 298.914 123.455 298.924 123.84C298.953 124.664 298.905 125.489 298.78 126.304H298.797ZM286.718 120.024C286.67 120.164 286.626 120.3 286.587 120.462C286.571 120.502 286.558 120.543 286.547 120.585C286.521 120.663 286.504 120.746 286.482 120.834C286.46 120.921 286.442 120.974 286.425 121.048L286.372 121.28C286.362 121.319 286.353 121.359 286.346 121.398C286.348 121.438 286.348 121.477 286.346 121.517C286.346 121.556 286.346 121.595 286.32 121.63C286.294 121.783 286.268 121.945 286.241 122.107C286.215 122.269 286.198 122.422 286.18 122.58C286.18 122.58 286.18 122.646 286.18 122.676V122.72L286.206 122.777C286.206 122.777 286.206 122.777 286.206 122.803V122.838C286.21 122.851 286.21 122.865 286.206 122.877C286.21 122.89 286.21 122.904 286.206 122.917C286.206 122.965 286.241 123.013 286.259 123.057C286.261 123.065 286.261 123.074 286.259 123.083C286.272 122.533 286.322 121.985 286.408 121.442C286.481 120.947 286.59 120.457 286.731 119.976L286.718 120.024ZM286.718 120.024C286.67 120.164 286.626 120.3 286.587 120.462C286.571 120.502 286.558 120.543 286.547 120.585C286.521 120.663 286.504 120.746 286.482 120.834C286.46 120.921 286.442 120.974 286.425 121.048L286.372 121.28C286.362 121.319 286.353 121.359 286.346 121.398C286.348 121.438 286.348 121.477 286.346 121.517C286.346 121.556 286.346 121.595 286.32 121.63C286.294 121.783 286.268 121.945 286.241 122.107C286.215 122.269 286.198 122.422 286.18 122.58C286.18 122.58 286.18 122.646 286.18 122.676V122.711L286.206 122.768C286.206 122.768 286.206 122.768 286.206 122.794V122.829C286.21 122.842 286.21 122.856 286.206 122.869C286.21 122.882 286.21 122.895 286.206 122.908C286.206 122.956 286.241 123.004 286.259 123.048C286.261 123.057 286.261 123.066 286.259 123.074C286.272 122.525 286.322 121.976 286.408 121.433C286.481 120.938 286.59 120.448 286.731 119.968L286.718 120.024ZM286.718 120.024C286.67 120.164 286.626 120.3 286.587 120.462C286.571 120.502 286.558 120.543 286.547 120.585C286.521 120.663 286.504 120.746 286.482 120.834C286.46 120.921 286.442 120.974 286.425 121.048L286.372 121.28C286.362 121.319 286.353 121.359 286.346 121.398C286.348 121.438 286.348 121.477 286.346 121.517C286.346 121.556 286.346 121.595 286.32 121.63C286.294 121.783 286.268 121.945 286.241 122.107C286.215 122.269 286.198 122.422 286.18 122.58C286.18 122.58 286.18 122.646 286.18 122.676V122.711L286.206 122.768C286.206 122.768 286.206 122.768 286.206 122.794V122.829C286.21 122.842 286.21 122.856 286.206 122.869C286.21 122.882 286.21 122.895 286.206 122.908C286.206 122.956 286.241 123.004 286.259 123.048C286.261 123.057 286.261 123.066 286.259 123.074C286.272 122.525 286.322 121.976 286.408 121.433C286.481 120.938 286.59 120.448 286.731 119.968L286.718 120.024Z" fill="#30262A"/>
<path d="M302.563 120.024C302.515 120.164 302.471 120.3 302.432 120.462C302.416 120.502 302.403 120.543 302.393 120.585C302.366 120.663 302.349 120.746 302.327 120.834C302.305 120.921 302.288 120.974 302.27 121.048L302.218 121.28C302.207 121.319 302.198 121.359 302.192 121.398C302.194 121.438 302.194 121.477 302.192 121.517C302.192 121.556 302.191 121.595 302.165 121.63C302.139 121.783 302.113 121.945 302.087 122.107C302.06 122.269 302.043 122.422 302.025 122.58C302.025 122.58 302.025 122.646 302.025 122.676V122.711L302.052 122.768C302.052 122.768 302.052 122.768 302.052 122.794V122.829C302.055 122.842 302.055 122.856 302.052 122.869C302.055 122.882 302.055 122.895 302.052 122.908C302.052 122.956 302.087 123.004 302.104 123.048C302.106 123.057 302.106 123.066 302.104 123.074C302.117 122.525 302.167 121.976 302.253 121.433C302.327 120.938 302.435 120.448 302.576 119.968L302.563 120.024ZM302.563 120.024C302.515 120.164 302.471 120.3 302.432 120.462C302.416 120.502 302.403 120.543 302.393 120.585C302.366 120.663 302.349 120.746 302.327 120.834C302.305 120.921 302.288 120.974 302.27 121.048L302.218 121.28C302.207 121.319 302.198 121.359 302.192 121.398C302.194 121.438 302.194 121.477 302.192 121.517C302.192 121.556 302.191 121.595 302.165 121.63C302.139 121.783 302.113 121.945 302.087 122.107C302.06 122.269 302.043 122.422 302.025 122.58C302.025 122.58 302.025 122.646 302.025 122.676V122.711L302.052 122.768C302.052 122.768 302.052 122.768 302.052 122.794V122.829C302.055 122.842 302.055 122.856 302.052 122.869C302.055 122.882 302.055 122.895 302.052 122.908C302.052 122.956 302.087 123.004 302.104 123.048C302.106 123.057 302.106 123.066 302.104 123.074C302.117 122.525 302.167 121.976 302.253 121.433C302.327 120.938 302.435 120.448 302.576 119.968L302.563 120.024ZM302.563 120.024C302.515 120.164 302.471 120.3 302.432 120.462C302.416 120.502 302.403 120.543 302.393 120.585C302.366 120.663 302.349 120.746 302.327 120.834C302.305 120.921 302.288 120.974 302.27 121.048L302.218 121.28C302.207 121.319 302.198 121.359 302.192 121.398C302.194 121.438 302.194 121.477 302.192 121.517C302.192 121.556 302.191 121.595 302.165 121.63C302.139 121.783 302.113 121.945 302.087 122.107C302.06 122.269 302.043 122.422 302.025 122.58C302.025 122.58 302.025 122.646 302.025 122.676C302.027 122.689 302.027 122.702 302.025 122.716L302.052 122.772C302.052 122.772 302.052 122.772 302.052 122.799V122.834C302.055 122.847 302.055 122.86 302.052 122.873C302.055 122.886 302.055 122.9 302.052 122.912C302.052 122.961 302.087 123.009 302.104 123.052C302.106 123.061 302.106 123.07 302.104 123.079C302.117 122.529 302.167 121.981 302.253 121.438C302.327 120.942 302.435 120.452 302.576 119.972L302.563 120.024ZM302.563 120.024C302.515 120.164 302.471 120.3 302.432 120.462C302.416 120.502 302.403 120.543 302.393 120.585C302.366 120.663 302.349 120.746 302.327 120.834C302.305 120.921 302.288 120.974 302.27 121.048L302.218 121.28C302.207 121.319 302.198 121.359 302.192 121.398C302.194 121.438 302.194 121.477 302.192 121.517C302.192 121.556 302.191 121.595 302.165 121.63C302.139 121.783 302.113 121.945 302.087 122.107C302.06 122.269 302.043 122.422 302.025 122.58C302.025 122.58 302.025 122.646 302.025 122.676V122.724L302.052 122.781C302.052 122.781 302.052 122.781 302.052 122.807V122.842C302.055 122.855 302.055 122.869 302.052 122.882C302.055 122.895 302.055 122.908 302.052 122.921C302.052 122.969 302.087 123.017 302.104 123.061C302.106 123.07 302.106 123.079 302.104 123.087C302.117 122.538 302.167 121.99 302.253 121.447C302.327 120.951 302.435 120.461 302.576 119.981L302.563 120.024ZM315.377 123.652C315.377 123.267 315.325 122.895 315.276 122.514C314.839 119.162 313.182 116.191 310.883 114.839C310.603 114.671 310.311 114.525 310.008 114.402C309.296 114.118 308.527 114.005 307.763 114.069C306.999 114.134 306.261 114.375 305.606 114.774C303.857 115.797 302.546 117.762 301.929 120.269C301.837 120.633 301.772 120.996 301.711 121.372C301.676 121.595 301.645 121.81 301.628 122.042C301.558 122.688 301.536 123.339 301.562 123.989C301.582 124.517 301.633 125.043 301.715 125.564C301.754 125.814 301.802 126.067 301.859 126.308C302.266 128.527 303.356 130.563 304.976 132.132C305.552 132.659 306.221 133.074 306.948 133.357C307.604 133.616 308.307 133.733 309.012 133.699C309.196 133.691 309.38 133.672 309.562 133.642C310.193 133.533 310.798 133.312 311.351 132.99C312.872 132.026 314.016 130.57 314.594 128.863C314.896 128.061 315.114 127.229 315.246 126.382C315.376 125.478 315.414 124.564 315.36 123.652H315.377ZM314.642 126.304C314.519 127.108 314.311 127.897 314.022 128.658C313.69 129.558 313.208 130.395 312.596 131.134C312.596 131.134 312.596 131.134 312.596 131.165C312.165 131.687 311.648 132.131 311.066 132.478C310.488 132.828 309.837 133.04 309.163 133.096C308.49 133.153 307.812 133.052 307.184 132.802C306.426 132.511 305.738 132.063 305.164 131.489C303.687 130.062 302.668 127.857 302.31 125.398C302.261 125.022 302.222 124.641 302.196 124.251C302.17 123.862 302.165 123.521 302.196 123.149C302.209 122.599 302.259 122.051 302.345 121.508C302.418 121.012 302.527 120.523 302.668 120.042C302.74 119.778 302.826 119.518 302.926 119.263C302.924 119.249 302.924 119.234 302.926 119.219C302.928 119.206 302.928 119.193 302.926 119.18C302.925 119.165 302.925 119.151 302.926 119.136C303.1 118.661 303.317 118.203 303.573 117.767C304.121 116.766 304.919 115.926 305.89 115.329C306.517 114.952 307.227 114.737 307.958 114.704C308.577 114.678 309.195 114.781 309.772 115.005C310.001 115.093 310.224 115.199 310.437 115.321C312.671 116.546 314.267 119.425 314.673 122.689C314.727 123.071 314.759 123.455 314.769 123.84C314.798 124.664 314.75 125.489 314.625 126.304H314.642ZM302.563 120.024C302.515 120.164 302.471 120.3 302.432 120.462C302.416 120.502 302.403 120.543 302.393 120.585C302.366 120.663 302.349 120.746 302.327 120.834C302.305 120.921 302.288 120.974 302.27 121.048L302.218 121.28C302.207 121.319 302.198 121.359 302.192 121.398C302.194 121.438 302.194 121.477 302.192 121.517C302.192 121.556 302.191 121.595 302.165 121.63C302.139 121.783 302.113 121.945 302.087 122.107C302.06 122.269 302.043 122.422 302.025 122.58C302.025 122.58 302.025 122.646 302.025 122.676V122.72L302.052 122.777C302.052 122.777 302.052 122.777 302.052 122.803V122.838C302.055 122.851 302.055 122.865 302.052 122.877C302.055 122.89 302.055 122.904 302.052 122.917C302.052 122.965 302.087 123.013 302.104 123.057C302.106 123.065 302.106 123.074 302.104 123.083C302.117 122.533 302.167 121.985 302.253 121.442C302.327 120.947 302.435 120.457 302.576 119.976L302.563 120.024ZM302.563 120.024C302.515 120.164 302.471 120.3 302.432 120.462C302.416 120.502 302.403 120.543 302.393 120.585C302.366 120.663 302.349 120.746 302.327 120.834C302.305 120.921 302.288 120.974 302.27 121.048L302.218 121.28C302.207 121.319 302.198 121.359 302.192 121.398C302.194 121.438 302.194 121.477 302.192 121.517C302.192 121.556 302.191 121.595 302.165 121.63C302.139 121.783 302.113 121.945 302.087 122.107C302.06 122.269 302.043 122.422 302.025 122.58C302.025 122.58 302.025 122.646 302.025 122.676V122.711L302.052 122.768C302.052 122.768 302.052 122.768 302.052 122.794V122.829C302.055 122.842 302.055 122.856 302.052 122.869C302.055 122.882 302.055 122.895 302.052 122.908C302.052 122.956 302.087 123.004 302.104 123.048C302.106 123.057 302.106 123.066 302.104 123.074C302.117 122.525 302.167 121.976 302.253 121.433C302.327 120.938 302.435 120.448 302.576 119.968L302.563 120.024ZM302.563 120.024C302.515 120.164 302.471 120.3 302.432 120.462C302.416 120.502 302.403 120.543 302.393 120.585C302.366 120.663 302.349 120.746 302.327 120.834C302.305 120.921 302.288 120.974 302.27 121.048L302.218 121.28C302.207 121.319 302.198 121.359 302.192 121.398C302.194 121.438 302.194 121.477 302.192 121.517C302.192 121.556 302.191 121.595 302.165 121.63C302.139 121.783 302.113 121.945 302.087 122.107C302.06 122.269 302.043 122.422 302.025 122.58C302.025 122.58 302.025 122.646 302.025 122.676V122.711L302.052 122.768C302.052 122.768 302.052 122.768 302.052 122.794V122.829C302.055 122.842 302.055 122.856 302.052 122.869C302.055 122.882 302.055 122.895 302.052 122.908C302.052 122.956 302.087 123.004 302.104 123.048C302.106 123.057 302.106 123.066 302.104 123.074C302.117 122.525 302.167 121.976 302.253 121.433C302.327 120.938 302.435 120.448 302.576 119.968L302.563 120.024Z" fill="#30262A"/>
<path d="M300.402 135.488C299.029 135.492 297.701 134.997 296.664 134.097C296.626 134.065 296.603 134.019 296.599 133.97C296.595 133.921 296.61 133.872 296.642 133.834C296.657 133.815 296.677 133.8 296.698 133.788C296.72 133.777 296.744 133.77 296.768 133.768C296.793 133.766 296.818 133.769 296.841 133.776C296.864 133.784 296.886 133.796 296.904 133.812C300.231 136.609 303.974 134.106 304.131 133.996C304.151 133.982 304.174 133.971 304.198 133.965C304.223 133.96 304.248 133.959 304.272 133.964C304.297 133.968 304.32 133.978 304.341 133.992C304.362 134.005 304.38 134.023 304.393 134.044C304.421 134.086 304.431 134.136 304.422 134.185C304.413 134.234 304.385 134.278 304.345 134.307C303.16 135.047 301.798 135.455 300.402 135.488Z" fill="#020202"/>
<path d="M296.467 134.863C296.418 134.862 296.372 134.842 296.337 134.808C296.302 134.774 296.282 134.728 296.279 134.679C296.312 134.066 296.569 133.487 297.001 133.051L297.027 133.021C297.058 132.982 297.102 132.957 297.151 132.951C297.2 132.944 297.249 132.957 297.289 132.986C297.309 133 297.325 133.018 297.338 133.039C297.351 133.06 297.359 133.083 297.363 133.107C297.366 133.131 297.365 133.155 297.359 133.179C297.353 133.202 297.343 133.224 297.328 133.244L297.289 133.296C296.916 133.659 296.69 134.147 296.655 134.666C296.656 134.691 296.652 134.715 296.643 134.738C296.634 134.761 296.62 134.782 296.603 134.8C296.586 134.818 296.566 134.833 296.543 134.843C296.521 134.853 296.496 134.858 296.472 134.859L296.467 134.863Z" fill="#020202"/>
<path d="M303.095 123.954C303.212 123.937 303.322 123.884 303.407 123.802C303.493 123.72 303.551 123.613 303.572 123.496C303.593 123.379 303.577 123.259 303.526 123.152C303.475 123.044 303.391 122.956 303.287 122.899C303.2 122.851 301.101 121.718 298.194 122.877C298.054 122.935 297.943 123.047 297.886 123.186C297.828 123.326 297.828 123.484 297.886 123.623C297.944 123.763 298.055 123.874 298.195 123.932C298.334 123.99 298.492 123.99 298.631 123.932C301.053 122.965 302.736 123.879 302.75 123.888C302.854 123.948 302.976 123.971 303.095 123.954Z" fill="#30262A"/>
<path d="M282.346 103.76C282.346 103.76 278.879 91.2626 267.867 94.4613C256.854 97.6599 260.133 103.65 261.383 107.514C262.314 110.385 267.582 114.393 272.999 113.141C278.416 111.89 282.346 103.76 282.346 103.76Z" fill="#30262A"/>
<path d="M277.148 143.671C277.078 143.671 277.01 143.652 276.951 143.614C276.913 143.589 276.88 143.556 276.855 143.518C276.829 143.479 276.812 143.437 276.803 143.391C276.794 143.346 276.794 143.3 276.803 143.255C276.812 143.21 276.829 143.167 276.855 143.129C278.566 140.777 280.893 138.945 283.579 137.834C283.665 137.799 283.762 137.8 283.848 137.837C283.933 137.873 284.001 137.942 284.036 138.029C284.071 138.115 284.07 138.212 284.033 138.298C283.997 138.383 283.928 138.451 283.841 138.486C281.294 139.555 279.082 141.294 277.441 143.518C277.408 143.566 277.364 143.604 277.313 143.631C277.262 143.658 277.205 143.672 277.148 143.671Z" fill="#30262A"/>
<path d="M173.536 307.522C172.039 307.376 170.528 307.498 169.073 307.881C168.873 307.946 168.661 307.961 168.454 307.925C168.247 307.888 168.052 307.801 167.887 307.672C167.722 307.542 167.591 307.373 167.507 307.181C167.422 306.988 167.387 306.778 167.403 306.568V259.218C167.403 256.695 166.906 254.195 165.941 251.864C164.976 249.532 163.562 247.414 161.779 245.629C159.996 243.844 157.879 242.429 155.549 241.463C153.22 240.497 150.723 240 148.201 240H96.8934C96.4652 240.001 96.0445 240.113 95.6723 240.325C95.3 240.536 94.9887 240.841 94.7688 241.209C94.5488 241.576 94.4275 241.995 94.4168 242.423C94.4061 242.852 94.5062 243.276 94.7075 243.654C95.7595 245.562 96.2975 247.712 96.2687 249.891C96.2399 252.07 95.6452 254.205 94.5432 256.085C93.4411 257.965 91.8695 259.525 89.9827 260.614C88.0958 261.702 85.9586 262.28 83.781 262.292C81.6034 262.303 79.4601 261.748 77.5618 260.68C75.6634 259.612 74.0753 258.068 72.9531 256.2C71.831 254.332 71.2136 252.204 71.1614 250.026C71.1093 247.847 71.6243 245.691 72.6558 243.772C72.8607 243.377 72.9602 242.936 72.9448 242.492C72.9293 242.047 72.7994 241.614 72.5676 241.235C72.3358 240.856 72.0101 240.543 71.6219 240.326C71.2337 240.11 70.7962 239.997 70.3519 240H19.2012C14.1087 240 9.22483 242.025 5.62391 245.629C2.02299 249.233 0 254.121 0 259.218V388.342C0.00115901 393.439 2.02452 398.326 5.62519 401.93C9.22586 405.534 14.1091 407.559 19.2012 407.56H148.21C153.303 407.559 158.187 405.533 161.788 401.929C165.389 398.324 167.411 393.435 167.411 388.338V334.013C167.41 333.752 167.468 333.494 167.579 333.258C167.69 333.023 167.853 332.815 168.055 332.65C168.257 332.485 168.493 332.367 168.747 332.306C169 332.244 169.264 332.24 169.519 332.293C170.431 332.498 171.364 332.6 172.299 332.599C174.023 332.6 175.729 332.244 177.31 331.556C178.892 330.867 180.314 329.861 181.49 328.598C182.665 327.335 183.568 325.844 184.143 324.217C184.717 322.589 184.951 320.861 184.829 319.14C184.422 313.416 179.242 308.073 173.536 307.522Z" fill="#1A2578"/>
<path d="M146.4 407.311H121.437C119.767 401.115 118.215 395.62 116.938 391.279C115.308 385.748 114.127 382.09 113.716 381.333C112.073 378.27 118.385 368.875 123.614 366.018C124.519 365.496 125.5 365.119 126.522 364.902C129.744 364.267 131.96 366.101 134.054 368.7C135.602 370.63 138.798 372.201 141.521 376.454C142.387 377.818 143.109 379.268 143.677 380.781C146.328 387.791 148.566 394.95 150.379 402.223C150.527 402.827 150.536 403.457 150.406 404.065C150.275 404.674 150.008 405.245 149.625 405.735C149.242 406.225 148.753 406.621 148.194 406.895C147.635 407.168 147.022 407.31 146.4 407.311Z" fill="white"/>
<path d="M135.781 407.311H46.5075C46.5075 407.311 42.9183 394.561 43.6177 388.601C43.9282 385.905 44.2997 383.289 44.7413 380.781C45.0327 379.081 45.3592 377.434 45.7206 375.841C45.8061 375.461 45.9127 375.085 46.0398 374.717C46.2711 374.032 46.6235 373.395 47.0803 372.835C50.7133 368.56 58.9804 374.524 61.6385 368.875C61.6385 368.875 66.2333 358.483 78.4658 353.56C80.491 352.743 82.5906 352.125 84.7351 351.713C88.9025 350.932 93.165 350.794 97.3741 351.306L98.5851 351.446H98.62L99.8485 351.6C109.655 352.886 120.899 355.686 126.517 364.897C127.952 367.292 128.953 369.921 129.472 372.664C130.172 376.165 130.915 379.757 131.658 383.512C133.105 390.692 134.561 398.472 135.781 407.311Z" fill="#BF0830"/>
<path d="M32.1641 372.069L57.6214 389.699C57.6214 389.699 103.333 396.355 115.68 391.769C129.792 386.518 143.074 375.176 143.074 375.176C143.074 375.176 133.915 354.982 99.8141 351.517C95.8445 351.114 81.1725 351.705 77.2947 352.295C42.1231 357.638 32.1641 372.069 32.1641 372.069Z" fill="#BF0830"/>
<path d="M32.1635 372.069C30.5547 374.542 32.1329 381.731 40.6711 386.925C49.2093 392.119 55.7278 393.283 57.6208 389.699C59.0504 386.999 55.3605 377.71 47.2201 372.918C38.8349 367.978 33.3089 370.306 32.1635 372.069Z" fill="#30262A"/>
<path d="M54.0536 391.747C53.341 392.696 50.4425 398.647 46.5078 407.311H21.6582C20.8719 407.311 20.0982 407.114 19.4081 406.737C18.718 406.359 18.1336 405.815 17.7084 405.153C17.2833 404.491 17.0311 403.733 16.9749 402.948C16.9187 402.163 17.0604 401.376 17.3869 400.66C19.6457 395.739 22.0225 391.072 24.5174 386.658C27.9449 380.597 29.8117 377.718 31.7266 375.67C32.072 375.298 32.4217 374.957 32.7846 374.625C33.2509 374.197 33.773 373.835 34.3366 373.548C37.5368 371.885 42.3152 372.144 46.04 374.695C46.2193 374.817 46.3985 374.944 46.5734 375.08C49.8129 377.556 53.0962 383.127 54.1804 387.292C54.6788 389.24 54.7094 390.863 54.0536 391.747Z" fill="white"/>
<path d="M75.8083 352.584C77.5528 352.403 79.2179 351.761 80.6335 350.725C82.0491 349.688 83.1644 348.294 83.8656 346.685L88.2943 336.389L89.5796 333.401L97.1342 315.832L95.8226 334.039L95.0313 344.979L94.8083 348.094C94.7208 349.322 95.0917 350.539 95.8493 351.51C96.6069 352.48 97.6972 353.134 98.9091 353.345H98.9528C100.295 355.533 102.153 359.983 96.6052 361.751C90.0824 363.829 79.555 358.688 75.7471 352.601L75.8083 352.584Z" fill="white"/>
<path d="M88.2722 336.088C88.2722 336.188 88.2722 336.289 88.2722 336.39C88.7094 342.258 94.9787 345.001 94.9787 345.001L95.0136 344.966L95.8049 334.027C93.8857 333.322 91.1533 332.6 89.5575 333.388C88.7444 333.812 88.2154 334.635 88.2722 336.088Z" fill="#30262A"/>
<path d="M97.9607 339.846C107.401 339.846 115.055 330.397 115.055 318.742C115.055 307.086 107.401 297.637 97.9607 297.637C88.52 297.637 80.8667 307.086 80.8667 318.742C80.8667 330.397 88.52 339.846 97.9607 339.846Z" fill="white"/>
<path d="M107.172 332.399C103.202 332.39 99.2593 331.742 95.4944 330.482C95.4944 330.482 95.0092 336.241 101.331 336.608C104.986 336.853 107.172 332.399 107.172 332.399Z" fill="white"/>
<path d="M99.6132 318.948C99.6721 318.933 99.7266 318.904 99.7722 318.864C99.8178 318.823 99.8533 318.773 99.8755 318.716C99.913 318.62 99.911 318.512 99.8701 318.417C99.8292 318.322 99.7527 318.247 99.6569 318.208C98.8121 317.812 97.8597 317.707 96.949 317.911C96.0384 318.114 95.221 318.614 94.625 319.333C94.5539 319.407 94.5142 319.506 94.5142 319.609C94.5142 319.711 94.5539 319.81 94.625 319.884C94.7028 319.948 94.8001 319.982 94.9004 319.982C95.0007 319.982 95.0979 319.948 95.1758 319.884C96.4281 319.12 97.8967 318.79 99.3553 318.944C99.4383 318.974 99.5292 318.976 99.6132 318.948Z" fill="#080435"/>
<path d="M96.5394 323.223C96.5088 324.151 97.029 324.921 97.7022 324.943C98.3755 324.964 98.9439 324.229 98.9745 323.302C99.0051 322.374 98.4848 321.604 97.8115 321.582C97.1383 321.56 96.57 322.295 96.5394 323.223Z" fill="#080435"/>
<path d="M113.493 320.974C113.553 320.982 113.614 320.976 113.671 320.956C113.728 320.936 113.779 320.903 113.821 320.86C113.893 320.786 113.934 320.687 113.934 320.584C113.934 320.481 113.893 320.382 113.821 320.309C113.191 319.621 112.35 319.161 111.43 319.003C110.511 318.845 109.565 318.996 108.741 319.433C108.647 319.476 108.574 319.555 108.537 319.651C108.5 319.748 108.503 319.855 108.544 319.95C108.594 320.036 108.672 320.103 108.765 320.138C108.858 320.174 108.961 320.177 109.056 320.147C110.505 319.914 111.991 320.169 113.279 320.873C113.337 320.929 113.413 320.965 113.493 320.974Z" fill="#080435"/>
<path d="M109.021 323.757C108.64 324.601 108.828 325.507 109.458 325.787C110.087 326.067 110.874 325.603 111.255 324.754C111.635 323.905 111.447 323.004 110.817 322.724C110.188 322.444 109.401 322.908 109.021 323.757Z" fill="#080435"/>
<path d="M108.68 341.237C107.285 341.231 105.913 340.882 104.684 340.222C104.601 340.157 104.545 340.064 104.525 339.96C104.506 339.856 104.524 339.749 104.577 339.658C104.631 339.567 104.715 339.498 104.815 339.464C104.915 339.43 105.024 339.434 105.121 339.474C106.478 340.24 108.052 340.528 109.591 340.289C111.131 340.051 112.545 339.302 113.607 338.161C117.507 334.223 114.792 329.913 114.674 329.734C114.61 329.636 114.588 329.517 114.611 329.403C114.635 329.289 114.703 329.189 114.801 329.126C114.898 329.062 115.017 329.039 115.131 329.063C115.245 329.087 115.345 329.155 115.408 329.252C115.439 329.305 118.635 334.306 114.228 338.774C113.521 339.543 112.664 340.159 111.71 340.582C110.755 341.006 109.724 341.229 108.68 341.237Z" fill="#74BBFB"/>
<path d="M92.7441 303.808C93.3606 307.628 92.3813 310.594 104.111 313.434C104.111 313.434 106.043 314.712 106.153 312.633C106.262 310.555 103.32 307.383 104.898 304.972C104.898 304.972 113.327 322.435 116.134 318.738C118.94 315.04 122.621 303.077 116.134 295.778C109.646 288.479 89.2948 286.917 85.8847 292.86C80.8702 301.62 92.2195 300.539 92.7441 303.808Z" fill="#30262A"/>
<path d="M85.557 296.872C85.557 296.872 90.7246 298.159 90.4972 300.473C90.2699 302.788 93.9073 307.155 90.4972 308.617C87.0872 310.078 86.2565 310.953 86.2696 313.513C86.2696 315.298 83.1613 319.237 82.0421 322.816C81.5568 324.374 82.4792 327.673 82.4792 327.673C82.4792 327.673 69.4205 323.262 71.7551 308.345C73.2677 298.636 82.2869 295.555 85.557 296.872Z" fill="#30262A"/>
<path d="M81.1896 321.928C83.1263 323.774 85.8325 323.967 87.2359 322.365C88.6393 320.764 88.2064 317.941 86.2741 316.09C84.3417 314.239 81.6268 314.051 80.2234 315.653C78.8201 317.254 79.2529 320.077 81.1896 321.928Z" fill="white"/>
<path d="M82.9125 336.766C82.5493 336.766 82.1868 336.737 81.8283 336.678C78.803 336.193 76.2411 333.873 76.1186 331.506C75.8913 327.179 80.1495 323.739 80.3287 323.595C80.3738 323.559 80.4255 323.532 80.4809 323.516C80.5363 323.5 80.5942 323.496 80.6515 323.502C80.7087 323.509 80.7641 323.526 80.8145 323.554C80.8649 323.582 80.9093 323.62 80.9452 323.665C80.9811 323.71 81.0077 323.762 81.0236 323.817C81.0395 323.872 81.0444 323.931 81.0379 323.988C81.0314 324.045 81.0137 324.101 80.9858 324.151C80.9578 324.201 80.9203 324.246 80.8752 324.282C80.8315 324.317 76.7875 327.59 76.993 331.458C77.0936 333.405 79.3713 335.396 81.9682 335.834C84.8973 336.302 87.3194 334.665 88.6134 331.34C89.5578 328.911 89.584 326.811 88.6921 325.096C87.2363 322.3 83.8131 321.429 83.7781 321.42C83.7205 321.408 83.6659 321.385 83.6176 321.351C83.5692 321.318 83.5281 321.275 83.4967 321.225C83.4654 321.175 83.4444 321.119 83.435 321.061C83.4257 321.003 83.4281 320.944 83.4422 320.886C83.4564 320.829 83.4819 320.776 83.5173 320.729C83.5527 320.681 83.5971 320.642 83.6481 320.613C83.699 320.583 83.7554 320.564 83.8138 320.557C83.8723 320.55 83.9315 320.555 83.988 320.571C84.141 320.606 87.8352 321.547 89.4703 324.693C90.4802 326.64 90.4671 328.986 89.431 331.659C87.7391 335.987 84.8012 336.766 82.9125 336.766Z" fill="#74BBFB"/>
<path d="M75.7508 295.783C75.654 295.783 75.5597 295.752 75.4827 295.693C75.4057 295.634 75.3504 295.552 75.3254 295.458C75.3004 295.365 75.3071 295.265 75.3445 295.176C75.382 295.087 75.448 295.012 75.5322 294.964C76.6442 294.276 77.9256 293.912 79.2329 293.912C80.5402 293.912 81.8217 294.276 82.9338 294.964C82.9842 294.996 83.0277 295.037 83.0616 295.086C83.0956 295.134 83.1193 295.19 83.1313 295.248C83.1433 295.306 83.1434 295.366 83.1315 295.424C83.1196 295.482 83.096 295.537 83.0622 295.586C83.0283 295.635 82.9849 295.676 82.9346 295.708C82.8842 295.739 82.828 295.76 82.7694 295.769C82.7107 295.778 82.6509 295.775 82.5934 295.76C82.536 295.745 82.4822 295.718 82.4354 295.682C81.4628 295.084 80.3437 294.768 79.2024 294.768C78.061 294.768 76.9419 295.084 75.9694 295.682C75.9073 295.735 75.8316 295.77 75.7508 295.783Z" fill="#30262A"/>
<path d="M83.7301 294.177C83.6142 294.177 83.503 294.13 83.421 294.048C83.339 293.966 83.293 293.855 83.293 293.739C83.293 293.612 83.293 290.597 84.6701 289.455C84.7596 289.383 84.8741 289.348 84.9887 289.36C85.1033 289.371 85.2088 289.428 85.2822 289.516C85.319 289.561 85.3467 289.612 85.3638 289.667C85.3808 289.722 85.3869 289.779 85.3816 289.837C85.3764 289.894 85.3598 289.95 85.333 290.001C85.3061 290.052 85.2696 290.097 85.2253 290.133C84.351 290.86 84.163 292.978 84.1673 293.73C84.1673 293.846 84.1213 293.958 84.0393 294.04C83.9573 294.122 83.8461 294.168 83.7301 294.168V294.177Z" fill="#30262A"/>
<g filter="url(#filter0_d_1_90251)">
<path d="M571.411 389.19C571.411 391.714 570.914 394.214 569.949 396.546C568.984 398.878 567.569 400.996 565.786 402.781C564.002 404.566 561.885 405.981 559.555 406.947C557.225 407.912 554.728 408.409 552.206 408.408H423.201C418.109 408.408 413.226 406.384 409.625 402.781C406.025 399.178 404.001 394.291 404 389.195V335.758C404.002 335.318 404.105 334.883 404.302 334.49C404.499 334.096 404.785 333.753 405.136 333.487C405.487 333.222 405.895 333.041 406.327 332.959C406.759 332.877 407.205 332.896 407.629 333.014C409.472 333.513 411.404 333.585 413.279 333.224C415.154 332.862 416.922 332.078 418.448 330.93C419.975 329.782 421.22 328.301 422.088 326.599C422.956 324.897 423.426 323.019 423.46 321.109C423.494 319.198 423.093 317.304 422.286 315.572C421.479 313.84 420.288 312.315 418.804 311.113C417.32 309.911 415.581 309.064 413.72 308.636C411.859 308.207 409.926 308.209 408.066 308.642C407.582 308.756 407.078 308.76 406.592 308.652C406.106 308.545 405.651 308.329 405.261 308.02C404.87 307.712 404.554 307.319 404.337 306.871C404.119 306.423 404.005 305.932 404.004 305.434V260.071C404.004 254.974 406.027 250.086 409.628 246.481C413.229 242.877 418.113 240.853 423.206 240.853H474.356C474.801 240.85 475.238 240.962 475.626 241.179C476.014 241.395 476.34 241.708 476.572 242.088C476.804 242.467 476.934 242.9 476.949 243.344C476.965 243.789 476.865 244.23 476.66 244.624C475.595 246.607 475.081 248.839 475.172 251.087C475.262 253.336 475.954 255.519 477.175 257.409C478.396 259.299 480.102 260.827 482.114 261.832C484.125 262.837 486.37 263.284 488.613 263.125C490.715 262.975 492.746 262.298 494.518 261.156C496.29 260.014 497.747 258.444 498.754 256.591C499.761 254.737 500.285 252.66 500.279 250.551C500.274 248.441 499.738 246.367 498.721 244.519C498.516 244.141 498.413 243.715 498.423 243.285C498.432 242.855 498.552 242.434 498.773 242.065C498.993 241.695 499.306 241.389 499.68 241.176C500.054 240.964 500.476 240.852 500.906 240.853H552.21C554.732 240.853 557.229 241.35 559.558 242.315C561.888 243.281 564.004 244.697 565.787 246.481C567.57 248.266 568.985 250.385 569.95 252.716C570.915 255.048 571.411 257.547 571.411 260.071V389.19Z" fill="white"/>
</g>
<path d="M425.799 411.038H450.763C452.437 404.847 453.985 399.346 455.266 395.01C456.892 389.475 458.072 385.821 458.483 385.06C460.127 381.997 453.814 372.602 448.59 369.745C447.683 369.226 446.703 368.85 445.682 368.629C442.456 367.994 440.239 369.832 438.145 372.431C436.598 374.357 433.402 375.932 430.678 380.185C429.813 381.548 429.09 382.997 428.523 384.508C425.872 391.518 423.634 398.677 421.821 405.949C421.672 406.554 421.662 407.184 421.792 407.793C421.922 408.402 422.189 408.973 422.572 409.463C422.956 409.954 423.445 410.35 424.004 410.623C424.563 410.896 425.177 411.038 425.799 411.038Z" fill="#D6D6D6"/>
<path d="M436.427 411.038H525.701C525.701 411.038 529.294 398.287 528.595 392.327C528.28 389.632 527.908 387.015 527.467 384.508C527.175 382.807 526.849 381.162 526.487 379.572C526.404 379.191 526.297 378.816 526.168 378.448C525.939 377.762 525.586 377.124 525.128 376.566C521.499 372.291 513.228 378.255 510.57 372.602C510.57 372.602 505.975 362.214 493.742 357.286C491.718 356.473 489.62 355.856 487.477 355.444C483.308 354.665 479.045 354.528 474.834 355.037L473.623 355.177H473.588L472.355 355.335C462.549 356.617 451.305 359.417 445.687 368.628C444.248 371.023 443.245 373.654 442.727 376.4C442.028 379.9 441.284 383.488 440.541 387.243C439.094 394.419 437.638 402.199 436.427 411.038Z" fill="#BF0830"/>
<path d="M540.04 375.796L514.579 393.426C514.579 393.426 468.867 400.086 456.52 395.496C442.408 390.245 429.131 378.903 429.131 378.903C429.131 378.903 438.286 358.709 472.412 355.243C476.377 354.841 491.049 355.436 494.927 356.022C530.081 361.365 540.04 375.796 540.04 375.796Z" fill="#BF0830"/>
<path d="M540.041 375.796C541.65 378.272 540.076 385.457 531.537 390.673C522.999 395.889 516.476 397.031 514.583 393.448C513.158 390.748 516.848 381.458 524.984 376.667C533.365 371.704 538.891 374.032 540.041 375.796Z" fill="#30262A"/>
<path d="M518.146 395.474C518.858 396.428 521.757 402.374 525.691 411.038H550.532C551.319 411.038 552.092 410.841 552.783 410.464C553.473 410.086 554.057 409.542 554.482 408.88C554.907 408.218 555.16 407.46 555.216 406.675C555.272 405.89 555.13 405.103 554.804 404.387C552.542 399.469 550.167 394.801 547.678 390.385C544.25 384.329 542.379 381.445 540.464 379.397C540.119 379.025 539.769 378.684 539.41 378.352C538.942 377.925 538.418 377.563 537.854 377.275C534.654 375.612 529.875 375.871 526.151 378.426C525.971 378.544 525.792 378.671 525.617 378.807C522.378 381.288 519.094 386.854 518.01 391.019C517.521 392.988 517.49 394.59 518.146 395.474Z" fill="#D6D6D6"/>
<path d="M457.653 347.388L457.775 347.008C457.732 347.008 453.478 345.607 452.472 342.557C451.952 340.973 452.389 339.201 453.784 337.307C454.435 336.405 455.034 335.591 455.585 334.847C459.367 329.71 460.783 327.789 460.189 323.309L459.795 323.361C460.368 327.684 459.083 329.43 455.266 334.611C454.715 335.355 454.116 336.169 453.465 337.07C452 339.096 451.541 341.008 452.105 342.702C453.163 345.927 457.474 347.331 457.653 347.388Z" fill="#30262A"/>
<path d="M459.983 323.318C459.983 323.318 460.975 330.262 455.917 337.071C450.859 343.879 455.388 349.471 461.719 347.183C468.049 344.894 469.798 352.871 477.951 349.156C486.105 345.441 459.983 323.318 459.983 323.318Z" fill="#30262A"/>
<path d="M486.651 350.049L483.154 339.932L482.144 336.996L476.212 319.725L476.155 337.153L476.124 347.616V350.596C476.185 354.608 472.329 355.322 472.329 355.322C470.895 357.308 468.281 361.386 473.435 363.469C479.495 365.915 490.429 361.487 494.468 355.96C494.455 355.96 487.762 353.278 486.651 350.049Z" fill="#D6D6D6"/>
<path d="M483.206 339.648C483.206 339.74 483.184 339.836 483.167 339.932C482.336 345.489 476.172 347.647 476.172 347.647L476.137 347.616L476.167 337.154C478.047 336.624 480.697 336.13 482.161 336.996C482.931 337.447 483.368 338.291 483.206 339.648Z" fill="#A6A6A6"/>
<path d="M458.96 321.226C459.795 310.129 467.757 301.684 476.745 302.362C485.734 303.04 492.339 312.584 491.504 323.681C490.669 334.778 482.708 343.223 473.72 342.545C464.731 341.866 458.125 332.31 458.96 321.226Z" fill="#D6D6D6"/>
<path d="M489.1 326.534C487.123 328.153 484.531 328.14 483.311 326.503C482.091 324.867 482.704 322.219 484.68 320.596C486.656 318.972 489.248 318.986 490.468 320.626C491.688 322.267 491.076 324.91 489.1 326.534Z" fill="#D6D6D6"/>
<path d="M465.492 334.791C469.271 335.066 473.071 334.732 476.745 333.802C476.745 333.802 476.793 339.32 470.747 339.232C467.227 339.166 465.492 334.791 465.492 334.791Z" fill="#1A2578"/>
<path d="M465.492 334.791C465.492 334.791 466.751 336.007 469.89 336.23C473.029 336.453 476.745 333.802 476.745 333.802C476.745 333.802 469.907 335.128 465.492 334.791Z" fill="white"/>
<path d="M473.645 322.512C473.59 322.494 473.54 322.464 473.5 322.422C473.46 322.381 473.43 322.331 473.413 322.276C473.398 322.229 473.392 322.18 473.396 322.132C473.4 322.083 473.414 322.035 473.436 321.992C473.458 321.949 473.489 321.91 473.526 321.878C473.564 321.847 473.607 321.823 473.653 321.808C474.486 321.491 475.401 321.459 476.254 321.718C477.107 321.977 477.85 322.512 478.366 323.239C478.428 323.316 478.457 323.414 478.447 323.512C478.438 323.61 478.39 323.701 478.314 323.764C478.234 323.818 478.138 323.842 478.042 323.833C477.946 323.823 477.857 323.78 477.789 323.711C476.646 322.888 475.262 322.469 473.854 322.521C473.785 322.538 473.712 322.535 473.645 322.512Z" fill="#080435"/>
<path d="M476.264 326.805C476.229 327.68 475.674 328.389 475.036 328.359C474.397 328.328 473.903 327.593 473.938 326.705C473.973 325.816 474.529 325.125 475.171 325.151C475.814 325.177 476.303 325.921 476.264 326.805Z" fill="#080435"/>
<path d="M460.289 323.449C460.232 323.453 460.174 323.443 460.121 323.42C460.067 323.397 460.02 323.362 459.983 323.318C459.921 323.241 459.891 323.144 459.9 323.045C459.909 322.947 459.956 322.856 460.031 322.793C460.68 322.183 461.513 321.805 462.399 321.72C463.285 321.634 464.174 321.845 464.928 322.32C465.014 322.367 465.078 322.446 465.107 322.54C465.135 322.634 465.126 322.736 465.081 322.823C465.029 322.905 464.95 322.965 464.858 322.993C464.766 323.022 464.666 323.015 464.578 322.976C463.216 322.653 461.784 322.79 460.508 323.366C460.445 323.415 460.369 323.444 460.289 323.449Z" fill="#080435"/>
<path d="M464.346 326.42C464.648 327.251 464.403 328.105 463.795 328.323C463.188 328.542 462.458 328.043 462.156 327.212C461.854 326.381 462.099 325.523 462.707 325.304C463.314 325.085 464.045 325.602 464.346 326.42Z" fill="#080435"/>
<path d="M469.562 305.473C469.562 305.473 469.387 312.474 477.995 314.312C486.603 316.15 492.326 320.294 490.673 326.477C489.021 332.66 474.034 344.614 483.958 350.43C493.882 356.245 492.396 346.684 503.404 349.708C514.412 352.731 517.551 337.95 510.513 328.704C503.474 319.458 508.327 296.761 479.39 295.606C450.452 294.451 459.279 318.281 459.279 318.281C459.279 318.281 468.998 313.17 469.562 305.473Z" fill="#30262A"/>
<path d="M486.839 351.939C484.736 350.902 483.499 349.493 483.167 347.76C482.253 342.991 488.225 336.335 493.498 330.467C494.884 328.923 496.195 327.466 497.367 326.065C500.611 322.184 501.218 317.502 498.989 313.542C496.541 309.201 491.421 307.057 485.628 307.95C479.836 308.843 476.036 307.355 473.855 305.955C472.487 305.124 471.324 303.995 470.454 302.651L470.659 302.537C470.698 302.603 474.699 309.394 485.589 307.718C491.487 306.808 496.698 308.996 499.194 313.406C501.437 317.393 500.807 322.294 497.546 326.197C496.374 327.597 495.063 329.058 493.672 330.603C488.426 336.432 482.507 343.039 483.399 347.695C483.722 349.375 484.881 350.688 486.944 351.707L486.839 351.939Z" fill="white"/>
<path d="M458.724 336.257C456.35 335.171 454.4 332.318 453.521 328.599C452.087 322.547 453.902 316.08 457.565 314.159C458.216 313.806 458.942 313.613 459.682 313.595C460.423 313.578 461.156 313.736 461.823 314.058C464.197 315.144 466.147 317.997 467.026 321.707C468.46 327.746 466.646 334.226 462.982 336.147C462.203 336.568 461.32 336.758 460.437 336.694C459.845 336.649 459.265 336.501 458.724 336.257ZM466.318 321.904C465.491 318.404 463.695 315.734 461.509 314.741C460.941 314.47 460.318 314.335 459.69 314.348C459.061 314.361 458.444 314.521 457.889 314.815C454.496 316.566 452.852 322.692 454.216 328.428C455.043 331.929 456.839 334.598 459.025 335.596C459.593 335.864 460.215 335.997 460.842 335.984C461.469 335.971 462.085 335.813 462.641 335.521C466.033 333.745 467.682 327.645 466.318 321.904Z" fill="#1A2578"/>
<g opacity="0.3">
<path opacity="0.3" d="M486.131 319.309C487.005 325.146 484.452 331.15 480.447 332.717C476.443 334.283 472.46 330.826 471.586 324.993C470.711 319.16 473.264 313.179 477.269 311.586C481.274 309.993 485.256 313.476 486.131 319.309Z" fill="white"/>
</g>
<g opacity="0.3">
<path opacity="0.3" d="M467.135 322.219C468.009 328.083 465.797 334.2 462.195 335.885C458.592 337.569 454.955 334.183 454.081 328.323C453.206 322.464 455.418 316.343 459.021 314.658C462.623 312.973 466.261 316.36 467.135 322.219Z" fill="white"/>
</g>
<path d="M475.013 332.388C472.604 330.984 470.899 328.096 470.34 324.464C469.378 318.228 472.193 311.774 476.622 310.094C477.477 309.757 478.398 309.621 479.314 309.697C480.229 309.773 481.115 310.058 481.903 310.531C484.308 311.932 486.004 314.82 486.559 318.443C487.525 324.691 484.71 331.132 480.277 332.813C479.445 333.146 478.548 333.287 477.654 333.224C476.722 333.148 475.819 332.863 475.013 332.388ZM476.876 310.768C472.757 312.343 470.147 318.434 471.057 324.332C471.577 327.697 473.195 330.459 475.381 331.745C476.077 332.151 476.856 332.395 477.659 332.461C478.462 332.527 479.27 332.413 480.023 332.126C484.146 330.55 486.756 324.459 485.847 318.561C485.331 315.2 483.718 312.435 481.536 311.157C480.841 310.739 480.06 310.486 479.252 310.417C478.444 310.349 477.631 310.467 476.876 310.763V310.768Z" fill="#1A2578"/>
<path d="M466.209 324.311C466.365 324.32 466.519 324.276 466.646 324.184C466.724 324.127 468.582 322.871 471.564 323.689C471.737 323.732 471.92 323.707 472.075 323.619C472.23 323.531 472.346 323.387 472.399 323.217C472.423 323.131 472.43 323.041 472.419 322.953C472.409 322.865 472.38 322.779 472.336 322.702C472.291 322.625 472.232 322.558 472.161 322.504C472.09 322.45 472.009 322.411 471.922 322.39C468.329 321.353 465.968 323.007 465.863 323.072C465.791 323.124 465.729 323.19 465.682 323.265C465.635 323.341 465.604 323.425 465.59 323.513C465.575 323.601 465.579 323.691 465.6 323.777C465.62 323.864 465.658 323.945 465.71 324.017C465.765 324.101 465.839 324.171 465.925 324.222C466.012 324.273 466.109 324.303 466.209 324.311Z" fill="#1A2578"/>
<path d="M558.113 39H429.103C424.012 39 419.129 41.0242 415.528 44.6273C411.927 48.2305 409.903 53.1176 409.902 58.2139V103.577C409.904 104.075 410.017 104.567 410.235 105.015C410.452 105.463 410.768 105.856 411.158 106.164C411.549 106.473 412.004 106.69 412.49 106.798C412.975 106.906 413.479 106.903 413.964 106.789C415.825 106.354 417.761 106.349 419.624 106.776C421.488 107.203 423.229 108.05 424.716 109.252C426.202 110.455 427.395 111.981 428.204 113.714C429.012 115.448 429.414 117.344 429.38 119.256C429.346 121.169 428.876 123.049 428.006 124.752C427.136 126.456 425.889 127.938 424.36 129.086C422.831 130.235 421.06 131.018 419.183 131.378C417.306 131.738 415.371 131.664 413.527 131.162C413.103 131.042 412.657 131.023 412.224 131.104C411.791 131.186 411.383 131.367 411.032 131.632C410.681 131.898 410.395 132.241 410.199 132.636C410.002 133.03 409.899 133.465 409.898 133.905V187.338C409.898 189.861 410.395 192.36 411.36 194.692C412.325 197.024 413.739 199.142 415.522 200.927C417.305 202.712 419.422 204.127 421.751 205.093C424.081 206.059 426.578 206.556 429.099 206.556H478.554C478.936 206.559 479.314 206.638 479.666 206.79C480.017 206.942 480.334 207.163 480.598 207.441C480.862 207.718 481.067 208.046 481.202 208.404C481.337 208.762 481.398 209.144 481.382 209.527C481.369 210.053 481.387 210.579 481.435 211.102C481.752 214.312 483.29 217.276 485.73 219.383C488.17 221.489 491.326 222.576 494.544 222.419C497.763 222.263 500.798 220.874 503.022 218.54C505.246 216.207 506.489 213.107 506.494 209.881C506.494 209.689 506.494 209.496 506.494 209.308C506.472 208.956 506.522 208.604 506.641 208.272C506.76 207.94 506.945 207.637 507.185 207.379C507.425 207.121 507.715 206.915 508.038 206.774C508.36 206.632 508.708 206.558 509.06 206.556H558.117C563.21 206.556 568.094 204.531 571.696 200.927C575.297 197.323 577.321 192.435 577.322 187.338V58.2139C577.322 55.6896 576.825 53.19 575.86 50.858C574.894 48.526 573.479 46.4073 571.695 44.623C569.911 42.8386 567.793 41.4236 565.463 40.4588C563.132 39.494 560.635 38.9983 558.113 39Z" fill="#F5F6FC"/>
<path d="M488.307 227.853C488.062 227.853 487.822 227.853 487.581 227.853C484.53 227.667 481.644 226.403 479.438 224.286C477.232 222.168 475.849 219.335 475.537 216.292C475.487 215.758 475.469 215.222 475.484 214.686C475.496 214.33 475.436 213.975 475.307 213.643C475.179 213.31 474.985 213.007 474.737 212.752C474.501 212.507 474.218 212.312 473.904 212.179C473.591 212.047 473.254 211.98 472.914 211.982H423.464C418.303 211.976 413.356 209.922 409.707 206.27C406.058 202.617 404.006 197.666 404 192.501V139.051C403.997 138.574 404.105 138.103 404.316 137.675C404.527 137.248 404.835 136.875 405.215 136.588C405.6 136.292 406.047 136.09 406.523 135.997C406.999 135.904 407.49 135.924 407.957 136.054C409.762 136.545 411.656 136.618 413.494 136.266C415.332 135.915 417.066 135.148 418.563 134.024C420.06 132.9 421.281 131.45 422.133 129.782C422.985 128.115 423.446 126.275 423.48 124.402C423.515 122.53 423.122 120.674 422.331 118.976C421.54 117.279 420.373 115.784 418.918 114.606C417.463 113.428 415.759 112.598 413.935 112.179C412.112 111.76 410.216 111.764 408.394 112.189C407.872 112.31 407.329 112.313 406.806 112.195C406.283 112.078 405.793 111.844 405.373 111.511C404.953 111.178 404.613 110.754 404.379 110.272C404.145 109.789 404.023 109.26 404.022 108.723V63.3597C404.029 58.1956 406.082 53.2451 409.731 49.594C413.379 45.9428 418.326 43.8891 423.485 43.8833H552.494C557.653 43.8891 562.6 45.9429 566.248 49.5942C569.896 53.2455 571.948 58.196 571.953 63.3597V192.479C571.948 197.644 569.895 202.596 566.247 206.249C562.598 209.902 557.651 211.957 552.49 211.964H503.407C503.099 211.963 502.794 212.025 502.51 212.146C502.227 212.267 501.971 212.445 501.759 212.669C501.538 212.902 501.366 213.177 501.253 213.477C501.141 213.778 501.09 214.098 501.103 214.419C501.103 214.612 501.103 214.809 501.103 215.001C501.103 218.402 499.754 221.664 497.352 224.07C494.95 226.476 491.692 227.828 488.294 227.831L488.307 227.853ZM407.117 136.461C406.543 136.463 405.986 136.654 405.53 137.003C405.216 137.243 404.961 137.553 404.786 137.909C404.612 138.264 404.522 138.655 404.525 139.051V192.483C404.529 197.509 406.526 202.328 410.077 205.882C413.628 209.436 418.442 211.435 423.464 211.439H472.914C473.321 211.44 473.725 211.523 474.1 211.682C474.475 211.842 474.815 212.074 475.099 212.367C475.393 212.674 475.622 213.037 475.772 213.435C475.922 213.833 475.991 214.257 475.974 214.682C475.961 215.196 475.978 215.71 476.026 216.222C476.326 219.141 477.651 221.859 479.767 223.891C481.882 225.922 484.65 227.136 487.577 227.314C489.247 227.408 490.919 227.159 492.49 226.584C494.061 226.008 495.498 225.118 496.714 223.967C497.929 222.817 498.897 221.43 499.559 219.892C500.22 218.354 500.561 216.697 500.561 215.023C500.561 214.835 500.561 214.651 500.561 214.463C500.544 214.069 500.605 213.675 500.743 213.305C500.88 212.935 501.091 212.597 501.361 212.31C501.622 212.033 501.936 211.813 502.285 211.662C502.634 211.512 503.01 211.434 503.39 211.435H552.451C557.473 211.429 562.288 209.43 565.839 205.875C569.39 202.321 571.388 197.501 571.394 192.475V63.3597C571.387 58.3379 569.392 53.5236 565.845 49.9714C562.298 46.4192 557.49 44.4188 552.472 44.4084H423.464C418.442 44.413 413.628 46.4116 410.077 49.9655C406.526 53.5194 404.529 58.3382 404.525 63.3641V108.732C404.524 109.191 404.627 109.644 404.827 110.057C405.026 110.47 405.317 110.833 405.677 111.117C406.037 111.401 406.457 111.6 406.905 111.699C407.352 111.797 407.817 111.793 408.263 111.685C409.222 111.465 410.203 111.354 411.187 111.353C413.013 111.356 414.816 111.748 416.478 112.505C418.139 113.262 419.62 114.365 420.821 115.741C422.022 117.116 422.915 118.733 423.442 120.482C423.968 122.232 424.115 124.073 423.873 125.884C423.631 127.695 423.006 129.433 422.038 130.982C421.071 132.531 419.784 133.856 418.264 134.867C416.744 135.879 415.025 136.553 413.224 136.846C411.422 137.139 409.578 137.044 407.817 136.566C407.589 136.501 407.354 136.466 407.117 136.461Z" fill="#30262A"/>
<path d="M479.877 142.91C479.877 142.91 477.516 132.365 482.649 125.985C487.781 119.605 504.311 111.724 501.085 102.675C497.858 93.6264 486.697 92.5412 482.225 96.9169C477.752 101.293 480.253 106.045 477.236 106.635C474.22 107.226 456.689 108.058 457.961 97.9846C459.233 87.9117 470.473 73.8699 485.442 73.3973C500.412 72.9248 520.317 73.126 524.64 92.6506C528.964 112.175 521.58 119.833 510.996 124.869C500.412 129.906 505.334 141.348 501.491 142.919C497.649 144.49 480.332 146.319 479.877 142.91Z" fill="#BF0830"/>
<path d="M476.104 162.553C477.254 154.48 481.967 149.426 489.22 149.426C496.473 149.426 502.48 153.145 504.298 162.465C505.688 169.571 496.455 175.645 489.22 175.645C481.984 175.645 475.072 169.711 476.104 162.553Z" fill="#BF0830"/>
<path d="M483.563 145.772C480.799 145.772 478.408 145.501 477.201 144.801C476.992 144.704 476.808 144.559 476.664 144.379C476.521 144.198 476.422 143.986 476.375 143.759C475.984 141.755 475.803 139.715 475.837 137.673C475.881 134.522 476.498 130.072 479.169 126.755C480.76 124.773 483.449 122.651 486.291 120.402C492.621 115.396 499.795 109.725 497.587 103.542C496.906 101.577 495.731 99.8197 494.175 98.4403C492.619 97.061 490.735 96.1054 488.704 95.6656C484.94 94.7904 481.092 95.6656 478.898 97.8053C476.554 100.111 476.152 102.465 475.837 104.369C475.562 105.988 475.348 107.266 473.861 107.559C471.286 108.062 460.785 108.548 456.374 104.413C454.818 102.96 454.188 101.07 454.468 98.7986C455.744 88.8175 466.853 74.6051 482.041 74.1281C489.613 73.8875 498.309 73.8393 505.649 76.2591C514.262 79.0902 519.39 84.7131 521.322 93.447C523.346 102.566 522.94 109.637 520.085 115.05C517.75 119.478 513.908 122.786 507.625 125.771C501.067 128.886 500.503 134.522 500.084 138.635C499.826 141.191 499.616 143.212 498.116 143.825C495.992 144.713 489.04 145.772 483.563 145.772ZM485.77 95.1667C486.772 95.1666 487.771 95.2812 488.747 95.508C490.808 95.9529 492.72 96.9195 494.301 98.3154C495.881 99.7112 497.078 101.49 497.775 103.481C500.027 109.795 492.796 115.514 486.409 120.546C483.576 122.786 480.896 124.922 479.317 126.869C476.694 130.142 476.074 134.548 476.03 137.664C475.996 139.693 476.175 141.72 476.563 143.711C476.605 143.908 476.693 144.092 476.819 144.249C476.945 144.405 477.106 144.53 477.289 144.613C480.668 146.573 494.431 145.116 498.051 143.632C499.445 143.064 499.642 141.099 499.896 138.605C500.333 134.448 500.901 128.751 507.551 125.587C513.789 122.616 517.606 119.338 519.919 114.949C522.752 109.576 523.15 102.553 521.143 93.4777C517.003 74.7933 498.79 73.7868 482.041 74.3163C466.954 74.7889 455.924 88.905 454.656 98.8204C454.484 99.8105 454.563 100.828 454.885 101.78C455.207 102.731 455.763 103.587 456.501 104.268C460.873 108.346 471.256 107.861 473.813 107.362C475.16 107.095 475.361 105.935 475.632 104.33C475.938 102.514 476.362 100.019 478.753 97.6696C480.415 96.0418 482.994 95.1667 485.77 95.1667Z" fill="#30262A"/>
<path d="M485.788 176.586C483.79 176.58 481.816 176.15 479.996 175.325C478.176 174.499 476.552 173.298 475.23 171.799C474.206 170.668 473.442 169.327 472.989 167.87C472.536 166.413 472.405 164.875 472.607 163.362H472.707H472.607C473.787 155.096 478.727 150.165 485.805 150.165C493.941 150.165 499.327 154.825 500.984 163.292C501.461 165.73 500.726 168.215 498.86 170.486C495.887 174.074 490.531 176.586 485.788 176.586ZM485.788 150.362C482.29 150.362 479.274 151.57 477.044 153.863C474.814 156.155 473.372 159.407 472.803 163.393C472.608 164.879 472.738 166.39 473.185 167.82C473.632 169.25 474.385 170.566 475.392 171.676C476.696 173.154 478.299 174.338 480.093 175.151C481.888 175.964 483.835 176.388 485.805 176.393C490.479 176.393 495.786 173.912 498.707 170.359C500.534 168.141 501.255 165.708 500.792 163.327C499.139 154.965 493.819 150.362 485.788 150.362Z" fill="#30262A"/>
<path d="M370.295 333.02C369.358 333.021 368.424 332.919 367.51 332.714C367.255 332.661 366.991 332.665 366.738 332.727C366.485 332.788 366.248 332.906 366.046 333.071C365.844 333.235 365.682 333.443 365.57 333.679C365.459 333.915 365.402 334.173 365.403 334.434V388.759C365.403 391.283 364.906 393.782 363.941 396.114C362.975 398.446 361.561 400.565 359.777 402.349C357.994 404.134 355.877 405.55 353.547 406.515C351.216 407.481 348.719 407.977 346.197 407.977H217.201C214.68 407.977 212.183 407.481 209.854 406.516C207.524 405.55 205.407 404.135 203.624 402.351C201.841 400.567 200.427 398.448 199.462 396.117C198.497 393.785 198 391.286 198 388.763V335.326C198.001 334.886 198.104 334.452 198.301 334.058C198.497 333.664 198.782 333.321 199.133 333.055C199.484 332.79 199.891 332.609 200.323 332.527C200.755 332.445 201.201 332.464 201.624 332.583C203.469 333.085 205.403 333.159 207.281 332.799C209.158 332.439 210.929 331.656 212.458 330.507C213.987 329.359 215.234 327.877 216.103 326.173C216.973 324.47 217.443 322.59 217.478 320.677C217.512 318.764 217.11 316.869 216.301 315.135C215.493 313.402 214.3 311.876 212.813 310.673C211.327 309.471 209.585 308.624 207.722 308.197C205.859 307.77 203.923 307.775 202.061 308.21C201.577 308.326 201.073 308.33 200.587 308.223C200.101 308.115 199.645 307.899 199.255 307.591C198.864 307.282 198.548 306.889 198.331 306.441C198.113 305.992 198 305.501 198 305.002V259.639C198 257.115 198.497 254.616 199.462 252.285C200.427 249.953 201.841 247.834 203.624 246.05C205.407 244.265 207.524 242.85 209.853 241.884C212.183 240.918 214.68 240.421 217.201 240.421H268.352C268.796 240.418 269.234 240.531 269.622 240.747C270.01 240.963 270.336 241.277 270.568 241.656C270.799 242.035 270.929 242.468 270.945 242.913C270.96 243.357 270.861 243.798 270.656 244.193C269.591 246.175 269.077 248.407 269.168 250.656C269.258 252.905 269.95 255.088 271.171 256.978C272.392 258.868 274.097 260.395 276.109 261.4C278.121 262.406 280.366 262.852 282.609 262.693C284.711 262.543 286.742 261.866 288.514 260.724C290.286 259.582 291.743 258.012 292.749 256.159C293.756 254.306 294.281 252.229 294.275 250.119C294.269 248.01 293.733 245.936 292.716 244.088C292.512 243.709 292.409 243.284 292.418 242.853C292.428 242.423 292.548 242.003 292.769 241.633C292.989 241.263 293.301 240.957 293.675 240.745C294.049 240.532 294.472 240.421 294.902 240.421H346.206C348.727 240.421 351.224 240.918 353.554 241.884C355.883 242.85 358 244.265 359.783 246.05C361.566 247.834 362.981 249.953 363.945 252.285C364.91 254.616 365.407 257.115 365.407 259.639V306.998C365.391 307.207 365.427 307.418 365.511 307.61C365.596 307.803 365.726 307.971 365.891 308.101C366.057 308.231 366.251 308.318 366.458 308.355C366.665 308.391 366.878 308.376 367.077 308.311C368.532 307.927 370.043 307.806 371.541 307.952C377.25 308.503 382.427 313.846 382.825 319.569C382.946 321.29 382.712 323.018 382.137 324.644C381.562 326.271 380.659 327.761 379.483 329.023C378.308 330.285 376.886 331.291 375.305 331.979C373.724 332.666 372.018 333.021 370.295 333.02Z" fill="#BF0830"/>
<path d="M343.176 407.698H231.41C232.105 401.371 232.988 395.324 234.103 389.789C234.846 386.091 235.69 382.621 236.652 379.453C236.765 379.064 236.888 378.674 237.014 378.298C237.399 377.09 237.801 375.933 238.221 374.828C238.221 374.828 242.304 358.638 268.824 353.15C269.423 353.024 270.026 352.905 270.643 352.796H270.756C271.583 352.647 272.426 352.516 273.292 352.385L273.869 352.306C274.306 352.24 274.765 352.179 275.229 352.122H275.347C277.096 351.908 278.914 351.737 280.825 351.619C281.87 351.553 282.936 351.501 284.034 351.466H284.082C285.116 351.431 286.177 351.41 287.264 351.405H287.531C289.863 351.405 292.095 351.479 294.229 351.628C294.819 351.671 295.4 351.72 295.978 351.772C296.695 351.842 297.398 351.917 298.094 352.004C300.641 352.311 303.167 352.777 305.657 353.4C318.156 356.559 326.642 363.394 332.557 373.419C334.997 377.66 336.969 382.154 338.437 386.822C340.487 393.031 341.991 400.023 343.176 407.698Z" fill="#BF0830"/>
<path d="M351.391 407.699H214.08C213.204 407.697 212.342 407.487 211.563 407.087C210.784 406.686 210.111 406.107 209.599 405.396C209.087 404.685 208.75 403.863 208.617 402.997C208.484 402.13 208.559 401.245 208.834 400.413C213.643 385.925 228.223 357.531 269.279 352.411C270.695 352.233 272.142 352.087 273.62 351.973C275.281 351.839 276.985 351.742 278.731 351.68C279.435 351.658 280.139 351.628 280.847 351.597L284.056 351.444H284.104C285.201 351.392 286.29 351.339 287.413 351.308C289.516 351.247 291.623 351.247 293.731 351.387L294.29 351.422C295.571 351.514 296.83 351.628 298.072 351.772C299.544 351.938 300.988 352.138 302.404 352.372C302.872 352.45 303.331 352.52 303.79 352.608C304.249 352.695 304.726 352.787 305.185 352.888C336.072 359.189 350.079 378.477 354.351 404.229C354.421 404.657 354.396 405.096 354.28 405.514C354.163 405.932 353.956 406.32 353.675 406.65C353.393 406.981 353.043 407.246 352.648 407.427C352.254 407.608 351.825 407.7 351.391 407.699Z" fill="#1A2578"/>
<path d="M294.614 359.259C287.321 361.801 278.621 358.169 273.594 351.973C273.637 351.973 280.589 349.085 281.778 345.261L284.563 336.265L284.615 336.094L285.441 333.416L286.508 329.964L292.791 309.691L293.617 329.854L293.927 337.42V337.525L294.106 341.966V342.404V342.736L294.229 345.799C294.334 348.425 296.061 351.05 298.019 351.768C298.054 351.759 299.261 357.627 294.614 359.259Z" fill="white"/>
<path d="M294.146 342.719C290.232 341.9 286.794 339.58 284.567 336.256L284.445 336.059C284.504 336.064 284.562 336.073 284.62 336.085C285.599 336.23 290.517 336.96 293.932 337.398V337.503L294.111 341.944V342.382L294.146 342.719Z" fill="#30262A"/>
<path d="M311.428 303.499C312.202 307.145 312.202 310.914 311.428 314.561C310.151 320.717 303.895 305.59 303.895 305.59L311.428 303.499Z" fill="#30262A"/>
<path d="M297.151 340.216C307.009 338.92 313.735 328.224 312.174 316.325C310.614 304.426 301.356 295.83 291.498 297.125C281.64 298.421 274.913 309.117 276.474 321.016C278.035 332.915 287.292 341.511 297.151 340.216Z" fill="white"/>
<path d="M276.02 314.81L284.733 313.904C285.682 313.813 286.598 313.508 287.414 313.014C288.229 312.519 288.922 311.847 289.442 311.047C291.226 308.251 293.377 306.816 301.504 307.109C311.8 307.494 318.598 301.35 319.708 295.959C320.845 290.459 315.577 286.727 310.405 289.352C305.233 291.978 307.454 285.541 302.483 284.858C293.193 283.58 291.453 290.752 283.842 290.516C273.869 290.21 256.002 297.797 264.474 315.37L276.02 314.81Z" fill="#30262A"/>
<path d="M295.269 317.772C295.316 317.741 295.356 317.7 295.385 317.652C295.413 317.603 295.431 317.549 295.435 317.492C295.44 317.445 295.434 317.397 295.42 317.351C295.405 317.305 295.382 317.263 295.351 317.226C295.32 317.19 295.283 317.159 295.24 317.138C295.197 317.116 295.151 317.102 295.103 317.099C294.235 316.972 293.35 317.139 292.588 317.574C291.826 318.008 291.231 318.685 290.898 319.496C290.855 319.584 290.849 319.684 290.88 319.776C290.911 319.867 290.977 319.943 291.064 319.986C291.152 320.02 291.249 320.022 291.338 319.991C291.428 319.961 291.504 319.9 291.553 319.82C292.466 318.787 293.697 318.086 295.051 317.829C295.128 317.832 295.203 317.812 295.269 317.772Z" fill="#080435"/>
<path d="M293.708 322.459C293.936 323.299 294.618 323.846 295.225 323.68C295.833 323.514 296.143 322.696 295.916 321.855C295.689 321.015 295.007 320.468 294.395 320.635C293.783 320.801 293.455 321.628 293.708 322.459Z" fill="#080435"/>
<path d="M308.77 316.687C308.816 316.679 308.859 316.657 308.893 316.626C308.928 316.594 308.953 316.553 308.966 316.508C308.998 316.421 309.002 316.327 308.977 316.238C308.951 316.149 308.899 316.071 308.827 316.014C308.559 315.785 308.247 315.614 307.911 315.512C307.574 315.41 307.22 315.378 306.871 315.419C306.521 315.46 306.184 315.573 305.881 315.751C305.577 315.928 305.313 316.167 305.106 316.451C305.052 316.526 305.023 316.615 305.023 316.707C305.023 316.799 305.052 316.888 305.106 316.963C305.127 316.995 305.155 317.022 305.187 317.043C305.22 317.063 305.256 317.077 305.294 317.082C305.332 317.088 305.371 317.085 305.408 317.074C305.445 317.063 305.479 317.045 305.508 317.02C305.97 316.747 306.483 316.574 307.016 316.513C307.548 316.451 308.088 316.501 308.599 316.661C308.651 316.689 308.711 316.698 308.77 316.687Z" fill="#080435"/>
<path d="M305.443 320.433C305.334 321.308 305.753 322.061 306.383 322.14C307.013 322.218 307.607 321.58 307.695 320.718C307.782 319.855 307.384 319.085 306.759 319.007C306.134 318.928 305.552 319.567 305.443 320.433Z" fill="#080435"/>
<path d="M264.474 315.383C264.474 315.383 270.494 328.384 279.028 329.337C279.028 329.337 272.129 319.431 286.674 313.392C286.674 313.392 273.318 311.292 264.474 315.383Z" fill="#30262A"/>
<path d="M276.51 322.559C278.333 323.719 280.654 323.338 281.691 321.684C282.727 320.03 282.093 317.785 280.265 316.626C278.438 315.466 276.121 315.843 275.08 317.475C274.04 319.107 274.682 321.395 276.51 322.559Z" fill="white"/>
<path d="M305.784 328.913C301.944 329.848 297.98 330.161 294.041 329.841C294.041 329.841 294.942 335.529 301.145 334.392C304.752 333.731 305.784 328.913 305.784 328.913Z" fill="white"/>
<path d="M309.299 288.669C306.452 288.669 306.195 286.188 306.195 286.166C306.187 286.112 306.191 286.057 306.205 286.004C306.22 285.951 306.245 285.902 306.279 285.859C306.313 285.816 306.355 285.781 306.403 285.755C306.451 285.729 306.504 285.712 306.558 285.707C306.612 285.702 306.667 285.707 306.72 285.724C306.772 285.74 306.82 285.767 306.862 285.803C306.903 285.838 306.937 285.882 306.961 285.931C306.986 285.98 307 286.033 307.003 286.088C307.025 286.276 307.266 287.921 309.43 287.838C309.538 287.834 309.642 287.874 309.721 287.948C309.8 288.022 309.846 288.124 309.849 288.232C309.853 288.34 309.813 288.445 309.74 288.523C309.666 288.602 309.564 288.648 309.456 288.652L309.299 288.669Z" fill="#BF0830"/>
<path d="M304.424 304.234L304.354 303.998C304.464 303.962 315.42 300.716 315.87 295.071C316.001 293.474 315.734 292.415 315.057 291.833C313.973 290.897 311.996 291.356 310.248 291.763C309.977 291.829 309.714 291.89 309.465 291.942L309.413 291.702L310.191 291.527C311.992 291.089 314.034 290.652 315.214 291.645C315.953 292.284 316.246 293.395 316.11 295.089C315.918 297.504 313.828 299.849 310.068 301.88C308.264 302.838 306.375 303.626 304.424 304.234Z" fill="white"/>
<path d="M282.849 292.787C281.751 292.785 280.654 292.709 279.566 292.559L279.596 292.314C285.184 293.071 289.215 291.776 291.597 290.564C293.057 289.853 294.377 288.883 295.493 287.702L295.681 287.86C295.632 287.899 291.457 292.787 282.849 292.787Z" fill="white"/>
<path d="M288.87 355.99C288.87 355.99 296.787 353.54 298.89 355.439C300.993 357.338 299.445 366.05 295.803 366.816C292.162 367.582 285.263 358.091 288.87 355.99Z" fill="white"/>
<path d="M293.517 353.934C293.517 353.934 283.182 350.28 281.166 346.622C279.151 342.964 268.449 351.435 268.637 353.934C268.825 356.432 288.096 370.452 289.355 368.689C290.614 366.925 296.044 356.331 293.517 353.934Z" fill="#1A2578"/>
<path d="M293.517 353.934C293.517 353.934 295.065 350.096 294.321 348.013C294.321 348.013 293.827 346.18 295.401 346.307C296.975 346.434 305.544 352.433 306.3 354.249C307.057 356.065 307.175 364.654 304.412 365.284C301.649 365.915 294.96 356.704 294.173 355.793C293.945 355.543 293.769 355.25 293.656 354.93C293.544 354.611 293.496 354.272 293.517 353.934Z" fill="#1A2578"/>
<path d="M292.131 365.324L298.011 363.469C298.011 363.469 298.151 363.823 298.409 364.501C300.096 368.96 306.886 387.194 312.98 407.703H292.708C293.735 388.139 294.247 370.045 292.131 365.324Z" fill="white"/>
<path d="M295.738 367.013C293.425 367.013 291.444 364.956 291.366 364.869L291.641 364.61C291.641 364.61 293.595 366.632 295.751 366.632H295.808C297.928 366.597 299.2 362.016 299.213 361.968L299.576 362.068C299.524 362.269 298.216 366.973 295.812 367.013H295.738Z" fill="#30262A"/>
<path opacity="0.3" d="M382.5 18C386.642 18 390 14.6421 390 10.5C390 6.35786 386.642 3 382.5 3C378.358 3 375 6.35786 375 10.5C375 14.6421 378.358 18 382.5 18Z" stroke="#74BBFB" stroke-width="5"/>
<path opacity="0.3" fill-rule="evenodd" clip-rule="evenodd" d="M116.555 175.581C113.626 175.581 111.257 173.205 111.257 170.276C111.257 167.345 113.626 164.97 116.555 164.97C119.496 164.97 121.866 167.345 121.866 170.276C121.866 173.205 119.496 175.581 116.555 175.581ZM116.555 180.887C110.698 180.887 105.959 176.136 105.959 170.276C105.959 164.415 110.698 159.664 116.555 159.664C122.425 159.664 127.163 164.415 127.163 170.276C127.163 176.136 122.425 180.887 116.555 180.887Z" fill="#FB5472"/>
<defs>
<filter id="filter0_d_1_90251" x="392" y="232.853" width="191.411" height="191.556" filterUnits="userSpaceOnUse" color-interpolation-filters="sRGB">
<feFlood flood-opacity="0" result="BackgroundImageFix"/>
<feColorMatrix in="SourceAlpha" type="matrix" values="0 0 0 0 0 0 0 0 0 0 0 0 0 0 0 0 0 0 127 0" result="hardAlpha"/>
<feOffset dy="4"/>
<feGaussianBlur stdDeviation="6"/>
<feComposite in2="hardAlpha" operator="out"/>
<feColorMatrix type="matrix" values="0 0 0 0 0 0 0 0 0 0 0 0 0 0 0 0 0 0 0.06 0"/>
<feBlend mode="normal" in2="BackgroundImageFix" result="effect1_dropShadow_1_90251"/>
<feBlend mode="normal" in="SourceGraphic" in2="effect1_dropShadow_1_90251" result="shape"/>
</filter>
</defs>
</svg>
